<?xml version="1.0" encoding="utf-8" ?>
<svg baseProfile="full" height="200mm" version="1.1" viewBox="0,0,200,200" width="200mm" xmlns="http://www.w3.org/2000/svg" xmlns:ev="http://www.w3.org/2001/xml-events" xmlns:xlink="http://www.w3.org/1999/xlink"><defs /><rect fill="#1a1a1a" height="200" width="200" x="0" y="0" /><text alignment-baseline="middle" fill="#e1ed5e" style="dominant-baseline: central; font-size:9.0px; font-family:Arial;" text-anchor="middle" x="100.0" y="100.0">2023</text><line stroke="#e1ed5e" stroke-width="0.3" x1="100.0" x2="100.0" y1="15.0" y2="10.0" /><path d="M 100.0 14.0 a86.0,86.0 0 0,1 42.46469731375804,11.215312516191453" fill="none" id="id73" stroke="none" /><text fill="#e1ed5e" style="font-size:6.75px; font-family:Arial;" text-anchor="middle"><textPath startOffset="22.20632615414155" xlink:href="#id73">January</textPath></text><path d="M 100.36148047927253 79.00311137660856 l 0.0558160515469096 -3.2421209025906115 a24.242601328968032,24.242601328968032 0 0,0 0.4171728768513594,0.01077434462919843 l -0.1116155635931368 3.240679765819053" fill="#ff1802" stroke="none" /><path d="M 100.72285384407766 79.0124445844662 l 0.3062925786937959 -8.892990638937729 a29.89826374345001,29.89826374345001 0 0,0 0.5141920022185064,0.02214218924713747 l -0.4593254133016338 8.886400723166396" fill="#ff6809" stroke="none" /><path d="M 102.16513564639614 79.11191278185805 l 0.29799926302541885 -2.8749397791209406 a23.89034293715048,23.89034293715048 0 0,0 0.40867650702836755,0.04591956732944976 l -0.34744247356351166 2.8693842583208897" fill="#ff1202" stroke="none" /><path d="M 102.52436894288641 79.15227682838746 l 0.886447695023693 -7.320806336191551 a28.374279281939028,28.374279281939028 0 0,0 0.4843695815133386,0.0628850731805018 l -1.0123320050448776 7.304462939846913" fill="#ff5307" stroke="none" /><path d="M 103.59715602781102 79.31037775812273 l 0.5090680649273223 -2.927986964512915 a23.97191149920155,23.97191149920155 0 0,0 0.4059299374097879,0.0741811014227766 l -0.559393123440011 2.9187903817394" fill="#ff1402" stroke="none" /><path d="M 103.95276090670814 79.375362276772 l 1.2140242761118092 -6.334511869796496 a27.449798103164277,27.449798103164277 0 0,0 0.46329192862414315,0.09293200245782529 l -1.3228826142030778 6.312675911261462" fill="#ff4606" stroke="none" /><path d="M 108.43124777332544 80.76684994638697 l 1.7384683579091 -3.9657502293917437 a25.330063176602835,25.330063176602835 0 0,0 0.39782417980998885,0.17849211318424144 l -1.806474656185869 3.935237785690971" fill="#ff2703" stroke="none" /><path d="M 109.73455568895987 81.39251694778311 l 3.8033301192458495 -7.270018580931761 a29.204784589680322,29.204784589680322 0 0,0 0.4434328681663436,0.2368664811217285 l -3.927908033940504 7.203473373308277" fill="#ff5e08" stroke="none" /><path d="M 110.05341064243156 81.56283822128135 l 3.6386924073848803 -6.673074736925728 a28.600658450434196,28.600658450434196 0 0,0 0.4302028114843095,0.23940739882031695 l -3.753019307941225 6.609451940545231" fill="#ff5607" stroke="none" /><line stroke="#e1ed5e" stroke-width="0.3" x1="143.23703022742887" x2="145.7803849466894" y1="26.81831364943548" y2="22.513508569990506" /><path d="M 143.74570117128098 25.957352633546492 a86.0,86.0 0 0,1 28.547481713284135,27.462654790039103" fill="none" id="id74" stroke="none" /><text fill="#e1ed5e" style="font-size:6.75px; font-family:Arial;" text-anchor="middle"><textPath startOffset="19.985693538727396" xlink:href="#id74">February</textPath></text><path d="M 110.68208982089419 81.91981866633111 l 3.762499695762534 -6.368292900346173 a28.396726196447496,28.396726196447496 0 0,0 0.41870017265007087,0.25226216915346 l -3.8715619346302423 6.302584121734098" fill="#ff5307" stroke="none" /><path d="M 110.99172775467656 82.1063720568725 l 0.855264960855345 -1.392300950669732 a22.634007371618235,22.634007371618235 0 0,0 0.3302203030347065,0.2067839234658644 l -0.8791044162623148 1.3773726858809232" fill="#ff0000" stroke="none" /><path d="M 111.2981086023043 82.29822771554956 l 7.690493163553611 -12.04939371078302 a35.29445955243227,35.29445955243227 0 0,0 0.5093040500719036,0.3312655213805916 l -7.896764239409794 11.915229265242901" fill="#ffb010" stroke="none" /><path d="M 111.90073688211348 82.69761687909136 l 7.614028414579517 -11.069973063646401 a34.43568875524739,34.43568875524739 0 0,0 0.48549214892467524,0.3401182760810387 l -7.803451703087843 10.937269944801427" fill="#ffa50f" stroke="none" /><path d="M 112.48926042617603 83.11751280151076 l 5.8847182117318155 -7.954728821896906 a30.89482789448131,30.89482789448131 0 0,0 0.42480954207163224,0.31995773986293696 l -6.02077390756183 7.852254492528122" fill="#ff750a" stroke="none" /><path d="M 113.34407831869373 83.78471172551755 l 6.578500516743172 -7.993979032885698 a31.352795266352288,31.352795266352288 0 0,0 0.41377099539682854,0.3465213092280431 l -6.715129049099118 7.879556566263836" fill="#ff7c0b" stroke="none" /><path d="M 113.89432698308785 84.25364557470407 l 9.189873485888015 -10.414826512184414 a34.88965031833152,34.88965031833152 0 0,0 0.44690155153567845,0.4012326255033171 l -9.367786025019683 10.255094877911798" fill="#ffab0f" stroke="none" /><path d="M 114.68862486808459 84.99185889309783 l 5.665138758628316 -5.78837043244345 a29.099322775250926,29.099322775250926 0 0,0 0.35496213020928385,0.3534378100155717 l -5.763936689004923 5.68999677177776" fill="#ff5d08" stroke="none" /><path d="M 115.19652480421416 85.50635884689758 l 9.599661725937688 -9.155649336901636 a34.26572350204618,34.26572350204618 0 0,0 0.40340983743002495,0.4303294876328562 l -9.755838885338177 8.989050432390725" fill="#ffa30f" stroke="none" /><path d="M 115.68641384162765 86.03803664274999 l 7.819626285551473 -6.959993327253071 a31.468431704944862,31.468431704944862 0 0,0 0.35665441839150874,0.4077176541716879 l -7.93827256752083 6.824360116878435" fill="#ff7d0b" stroke="none" /><path d="M 115.9244219780498 86.31012108654704 l 6.881496660475188 -5.915872874700933 a30.074830475427817,30.074830475427817 0 0,0 0.3341018452900717,0.3954712036767235 l -6.982309119252377 5.796542721395103" fill="#ff6a09" stroke="none" /><path d="M 116.15771136456269 86.58626213691792 l 11.699359059384255 -9.712522525488385 a36.20552847514731,36.20552847514731 0 0,0 0.393953231035318,0.48294007969492564 l -11.864810782495981 9.509698276185357" fill="#ffbc11" stroke="none" /><path d="M 116.82858285166822 87.43820079747576 l 8.725634082642433 -6.5133032428806406 a31.888517313109748,31.888517313109748 0 0,0 0.32456039911038437,0.4427000196382515 l -8.836457094266445 6.362140779570895" fill="#ff830c" stroke="none" /><path d="M 117.2510076193507 88.02491185347247 l 14.549780985773227 -10.099984514635706 a38.711742261275404,38.711742261275404 0 0,0 0.3752744578920674,0.5506689605207017 l -14.721479909334027 9.848037530844596" fill="#ffdc14" stroke="none" /><line stroke="#e1ed5e" stroke-width="0.3" x1="172.23445277983987" x2="176.4835382374775" y1="55.19839476539836" y2="52.563006222186495" /><path d="M 173.08426987136738 54.67131705675599 a86.0,86.0 0 0,1 12.851231095245387,41.99856678651699" fill="none" id="id75" stroke="none" /><text fill="#e1ed5e" style="font-size:6.75px; font-family:Arial;" text-anchor="middle"><textPath startOffset="22.20632615414155" xlink:href="#id75">March</textPath></text><path d="M 117.84615892207809 88.93136811851018 l 9.718020529244969 -6.027358174083101 a32.43542607713036,32.43542607713036 0 0,0 0.29019543503561107,0.4770049934465365 l -9.820331762566804 5.859185407429483" fill="#ff8a0c" stroke="none" /><path d="M 118.21658344932153 89.55222093294921 l 12.089333518722677 -6.933610027527447 a34.93653231405649,34.93653231405649 0 0,0 0.2947018923416715,0.5242417827550064 l -12.206893052356781 6.724484734837646" fill="#ffac0f" stroke="none" /><path d="M 118.56541770881063 90.18545643968196 l 24.229300336099122 -12.808735430273698 a48.40661777928174,48.40661777928174 0 0,0 0.38308205940668677,0.7399926062031814 l -24.446191828665928 12.389770101810173" fill="#adff20" stroke="none" /><path d="M 118.89224826269711 90.83032412892265 l 14.611496561356892 -7.091939804938604 a37.24165761119895,37.24165761119895 0 0,0 0.27495304096986634,0.5791212260502483 l -14.731407796168513 6.839376163247816" fill="#ffca12" stroke="none" /><path d="M 119.196687751892 91.48605970444005 l 20.30671617428426 -9.006250002149343 a43.214303069962675,43.214303069962675 0 0,0 0.2957284199441714,0.6825819664000199 l -20.458735304071116 8.65536889116272" fill="#eaff1a" stroke="none" /><path d="M 119.61058180528143 92.48833698450437 l 30.843417939442947 -11.814303323973375 a54.028687428022316,54.028687428022316 0 0,0 0.32518943715152127,0.8713460175497761 l -31.042211965096094 11.281634169394266" fill="#70ff27" stroke="none" /><path d="M 119.85752413597 93.16781622104841 l 8.171724857255171 -2.8115653106351877 a29.64187402353501,29.64187402353501 0 0,0 0.16184845205784737,0.483906271193151 l -8.218910603084788 2.670485936519723" fill="#ff6409" stroke="none" /><path d="M 119.97218684219823 93.5106431181261 l 15.962552352789553 -5.186547661570247 a37.78402080138389,37.78402080138389 0 0,0 0.19565738396850121,0.6202873753818006 l -16.04946522052626 4.911010119762026" fill="#ffd113" stroke="none" /><path d="M 120.37134235888165 94.90015583598534 l 61.11402707664495 -15.299532492043943 a84.0,84.0 0 0,0 0.33906879895672226,1.4056590733623755 l -61.36832867586249 14.245288187022162" fill="#4dd2ff" stroke="none" /><path d="M 120.6074358757038 95.95851677861258 l 4.883948886465045 -0.9578288923385129 a25.976986328351884,25.976986328351884 0 0,0 0.08227811622065752,0.4395329868532721 l -4.899712726595562 0.873617828022678" fill="#ff3104" stroke="none" /><path d="M 120.83666639777658 97.38593545837742 l 9.377591633937053 -1.1764660098751283 a30.451100312941225,30.451100312941225 0 0,0 0.06077118403655571,0.5206503924885516 l -9.396453170977198 1.0148718790617242" fill="#ff6f0a" stroke="none" /><path d="M 120.87857604477298 97.74499172005257 l 16.231446984870722 -1.7530911719228404 a37.32584453802445,37.32584453802445 0 0,0 0.0634945930112628,0.6393818865452195 l -16.259218703564216 1.473433754673186" fill="#ffcb12" stroke="none" /><path d="M 120.94382443527127 98.46500227214037 l 6.65630686640716 -0.487848623227782 a27.674160425024585,27.674160425024585 0 0,0 0.03073071740764603,0.475390596558809 l -6.663718174819222 0.37319896241593775" fill="#ff4906" stroke="none" /><path d="M 120.96714384426684 98.82574320788733 l 14.195294680626006 -0.7950019954350523 a35.21753914158687,35.21753914158687 0 0,0 0.028687858171817012,0.6055553445760378 l -14.206876147031318 0.5505355442360148" fill="#ffaf10" stroke="none" /><path d="M 120.98425023603335 99.18683210126433 l 6.128580528826288 -0.23749073208726873 a27.133180345150144,27.133180345150144 0 0,0 0.014068302761337177,0.4668584787620959 l -6.13176052604327 0.13196210590017374" fill="#ff4106" stroke="none" /><line stroke="#e1ed5e" stroke-width="0.3" x1="184.98032266829074" x2="189.97916517819016" y1="98.17113171792111" y2="98.06355123074" /><path d="M 185.9800911702706 98.14961562048488 a86.0,86.0 0 0,1 -9.607161424134198,41.387399972396054" fill="none" id="id76" stroke="none" /><text fill="#e1ed5e" style="font-size:6.75px; font-family:Arial;" text-anchor="middle"><textPath startOffset="21.466115282336823" xlink:href="#id76">April</textPath></text><path d="M 120.99513854157772 99.54816195383933 l 2.9391943071249007 -0.06325463441871979 a23.93987488233953,23.93987488233953 0 0,0 0.005320344079936135,0.4120665122159422 l -2.9398476583225523 0.012651864142314843" fill="#ff1302" stroke="none" /><path d="M 120.99980553446 99.90962569577887 l 24.508003469621332 -0.10547210819554978 a45.50823042230056,45.50823042230056 0 0,0 -0.0033712989246616385,0.7833711410183037 l -24.506187873407168 -0.31640851102643863" fill="#cfff1d" stroke="none" /><path d="M 120.99824983174949 100.27111621757518 l 10.87950535443573 0.14046934217935436 a31.880412142620703,31.880412142620703 0 0,0 -0.01180780224863957,0.548662172626267 l -10.875475489502083 -0.3277213305957362" fill="#ff830c" stroke="none" /><path d="M 120.9764740272857 100.99374915477107 l 16.355353547047226 0.774826061911951 a37.37369674432528,37.37369674432528 0 0,0 -0.035974228191699036,0.6423440104823667 l -16.339592967968 -1.056241788729741" fill="#ffcb12" stroke="none" /><line stroke="#e1ed5e" stroke-width="0.3" x1="174.80103733775053" x2="179.2010983576182" y1="140.37084112569926" y2="142.7455964860345" /><path d="M 175.68104954172406 140.8457921977663 a86.0,86.0 0 0,1 -30.038265399797805,32.042727171017184" fill="none" id="id77" stroke="none" /><text fill="#e1ed5e" style="font-size:6.75px; font-family:Arial;" text-anchor="middle"><textPath startOffset="22.206326154141568" xlink:href="#id77">May</textPath></text><line stroke="#e1ed5e" stroke-width="0.3" x1="143.8653032363475" x2="146.44561519142675" y1="172.8068346515853" y2="177.08958963109032" /><path d="M 144.38136562736335 173.6633856474863 a86.0,86.0 0 0,1 -40.68145358897372,12.25698825130547" fill="none" id="id78" stroke="none" /><text fill="#e1ed5e" style="font-size:6.75px; font-family:Arial;" text-anchor="middle"><textPath startOffset="21.466115282336833" xlink:href="#id78">June</textPath></text><line stroke="#e1ed5e" stroke-width="0.3" x1="102.19456741930631" x2="102.32365962044197" y1="184.97166512339345" y2="189.96999836594603" /><path d="M 102.22038585953345 185.97133177190398 a86.0,86.0 0 0,1 -42.740103519485714,-10.115201625700543" fill="none" id="id79" stroke="none" /><text fill="#e1ed5e" style="font-size:6.75px; font-family:Arial;" text-anchor="middle"><textPath startOffset="22.20632615414155" xlink:href="#id79">July</textPath></text><line stroke="#e1ed5e" stroke-width="0.3" x1="58.666819895761336" x2="56.23545636021788" y1="174.27360380694188" y2="178.64263932499728" /><path d="M 58.180547188652646 175.14741091055294 a86.0,86.0 0 0,1 -31.652253787137756,-30.449443065178592" fill="none" id="id80" stroke="none" /><text fill="#e1ed5e" style="font-size:6.75px; font-family:Arial;" text-anchor="middle"><textPath startOffset="22.20632615414155" xlink:href="#id80">August</textPath></text><line stroke="#e1ed5e" stroke-width="0.3" x1="26.63291911575756" x2="22.317208475507996" y1="142.92168965132927" y2="145.44649492493687" /><path d="M 25.769776987707644 143.4266507060508 a86.0,86.0 0 0,1 -11.730757126820373,-40.83630448921669" fill="none" id="id81" stroke="none" /><text fill="#e1ed5e" style="font-size:6.75px; font-family:Arial;" text-anchor="middle"><textPath startOffset="21.46611528233685" xlink:href="#id81">September</textPath></text><line stroke="#e1ed5e" stroke-width="0.3" x1="15.007084014347285" x2="10.007500721073583" y1="101.09737516637583" y2="101.16192664675087" /><path d="M 14.007167355692545 101.11028546245083 a86.0,86.0 0 0,1 10.666146001902534,-42.60595125391555" fill="none" id="id82" stroke="none" /><text fill="#e1ed5e" style="font-size:6.75px; font-family:Arial;" text-anchor="middle"><textPath startOffset="22.20632615414155" xlink:href="#id82">October</textPath></text><line stroke="#e1ed5e" stroke-width="0.3" x1="26.266209847984243" x2="21.928928074336255" y1="57.711370442889674" y2="55.22380399835377" /><path d="M 25.398753493254645 57.213857153982495 a86.0,86.0 0 0,1 29.58750427330803,-30.492523968695096" fill="none" id="id83" stroke="none" /><text fill="#e1ed5e" style="font-size:6.75px; font-family:Arial;" text-anchor="middle"><textPath startOffset="21.46611528233685" xlink:href="#id83">November</textPath></text><line stroke="#e1ed5e" stroke-width="0.3" x1="56.762969772571076" x2="54.21961505331055" y1="26.818313649435495" y2="22.513508569990535" /><path d="M 56.25429882871897 25.957352633546506 a86.0,86.0 0 0,1 42.265352541879196,-11.944610805530505" fill="none" id="id84" stroke="none" /><text fill="#e1ed5e" style="font-size:6.75px; font-family:Arial;" text-anchor="middle"><textPath startOffset="22.20632615414155" xlink:href="#id84">December</textPath></text></svg>