<?xml version="1.0" encoding="utf-8" ?>
<svg baseProfile="full" height="200mm" version="1.1" viewBox="0,0,200,200" width="200mm" xmlns="http://www.w3.org/2000/svg" xmlns:ev="http://www.w3.org/2001/xml-events" xmlns:xlink="http://www.w3.org/1999/xlink"><defs /><rect fill="#1a1a1a" height="200" width="200" x="0" y="0" /><text alignment-baseline="middle" fill="#e1ed5e" style="dominant-baseline: central; font-size:9.0px; font-family:Arial;" text-anchor="middle" x="100.0" y="100.0">2023</text><line stroke="#e1ed5e" stroke-width="0.3" x1="100.0" x2="100.0" y1="15.0" y2="10.0" /><path d="M 100.0 14.0 a86.0,86.0 0 0,1 42.46469731375804,11.215312516191453" fill="none" id="id73" stroke="none" /><text fill="#e1ed5e" style="font-size:6.75px; font-family:Arial;" text-anchor="middle"><textPath startOffset="22.20632615414155" xlink:href="#id73">January</textPath></text><path d="M 100.36148047927253 79.00311137660856 l 0.19853559269228496 -11.532101915788624 a32.53381077431485,32.53381077431485 0 0,0 0.5598501271165534,0.014459277064658091 l -0.39701235500370613 11.526975846581607" fill="#ff5808" stroke="none" /><path d="M 100.72285384407766 79.0124445844662 l 1.089471163991499 -31.632032692685154 a52.65078892679093,52.65078892679093 0 0,0 0.9054911953735625,0.03899235562411193 l -1.633803191754393 31.60859261053685" fill="#98ff23" stroke="none" /><path d="M 102.16513564639614 79.11191278185805 l 1.0599721525785963 -10.226052491776544 a31.280840944631493,31.280840944631493 0 0,0 0.5351009337870443,0.06012482473180193 l -1.235839789875366 10.20629171357414" fill="#ff4506" stroke="none" /><path d="M 102.52436894288641 79.15227682838746 l 3.153061057612253 -26.039832353954797 a47.23003360758621,47.23003360758621 0 0,0 0.8062510200190045,0.1046745219576781 l -3.6008268061391036 25.981699508832982" fill="#daff1b" stroke="none" /><path d="M 103.59715602781102 79.31037775812273 l 1.8107359297194232 -10.41473933186236 a31.57097724705799,31.57097724705799 0 0,0 0.5346092162191965,0.0976964171279452 l -1.9897402670415207 10.382027433383676" fill="#ff4a06" stroke="none" /><path d="M 103.95276090670814 79.375362276772 l 4.318238616325511 -22.531620091926644 a43.941688881040065,43.941688881040065 0 0,0 0.7416385982945488,0.14876572584419387 l -4.705443624087184 22.453950410005245" fill="#fff917" stroke="none" /><path d="M 108.43124777332544 80.76684994638697 l 6.183666458817735 -14.106024171203638 a36.40187160031172,36.40187160031172 0 0,0 0.5717137226218614,0.25651128228541886 l -6.425562299906376 13.997492558401689" fill="#ff910d" stroke="none" /><path d="M 109.73455568895987 81.39251694778311 l 13.528301957982222 -25.859182221733622 a50.18410970105427,50.18410970105427 0 0,0 0.761973903035609,0.40702007017424946 l -13.971420907546143 25.622483425057617" fill="#b5ff1f" stroke="none" /><path d="M 110.05341064243156 81.56283822128135 l 12.942691819000096 -23.7358754562211 a48.03525578193872,48.03525578193872 0 0,0 0.722532389370366,0.4020884924153889 l -13.349348297442498 23.50957156624553" fill="#d0ff1d" stroke="none" /><line stroke="#e1ed5e" stroke-width="0.3" x1="143.23703022742887" x2="145.7803849466894" y1="26.81831364943548" y2="22.513508569990506" /><path d="M 143.74570117128098 25.957352633546492 a86.0,86.0 0 0,1 28.547481713284135,27.462654790039103" fill="none" id="id74" stroke="none" /><text fill="#e1ed5e" style="font-size:6.75px; font-family:Arial;" text-anchor="middle"><textPath startOffset="19.985693538727396" xlink:href="#id74">February</textPath></text><path d="M 110.68208982089419 81.91981866633111 l 13.383069679784894 -22.651777945018416 a47.30987643688964,47.30987643688964 0 0,0 0.6975682089246373,0.42027704073313144 l -13.77099995492717 22.41805429482667" fill="#d9ff1c" stroke="none" /><path d="M 110.99172775467656 82.1063720568725 l 3.0421452468678116 -4.952362031824012 a26.812102665756385,26.812102665756385 0 0,0 0.3911768924483972,0.24495493416454925 l -3.1269412916884725 4.899262756336518" fill="#ff0000" stroke="none" /><path d="M 111.2981086023043 82.29822771554956 l 27.354794472319117 -42.85923951360995 a71.8448541379342,71.8448541379342 0 0,0 1.0367314205482272,0.6743189544851722 l -28.088492918651625 42.38202163496525" fill="#3dffaa" stroke="none" /><path d="M 111.90073688211348 82.69761687909136 l 27.082812240740456 -39.37547716773876 a68.79023876331146,68.79023876331146 0 0,0 0.9698403618296279,0.6794351518761267 l -27.756583742153737 38.9034571730987" fill="#39ff85" stroke="none" /><path d="M 112.48926042617603 83.11751280151076 l 20.931720994477025 -28.29467075496039 a56.195530070198416,56.195530070198416 0 0,0 0.7726988309217258,0.5819807397234982 l -21.415665979157136 27.93017342573104" fill="#6eff28" stroke="none" /><path d="M 113.34407831869373 83.78471172551755 l 23.399478517760222 -28.434282276843252 a57.82450275974306,57.82450275974306 0 0,0 0.7631250056642622,0.6390952459435363 l -23.8854610603836 28.027285873505896" fill="#5cff2a" stroke="none" /><path d="M 113.89432698308785 84.25364557470407 l 32.688033795341276 -37.04514556437376 a70.40496294190508,70.40496294190508 0 0,0 0.9018172119087604,0.8096603970490933 l -33.32086199484603 36.47698615855537" fill="#3bff99" stroke="none" /><path d="M 114.68862486808459 84.99185889309783 l 20.150685151618937 -20.58901557308897 a49.8089860000066,49.8089860000066 0 0,0 0.6075847163413678,0.6049755544796109 l -20.50210566812763 20.239104167959244" fill="#baff1f" stroke="none" /><path d="M 115.19652480421416 85.50635884689758 l 34.14563512796537 -32.56629978666298 a68.18567876047719,68.18567876047719 0 0,0 0.802748950629262,0.8563166104793468 l -34.701151400565095 31.97371375930558" fill="#38ff7e" stroke="none" /><path d="M 115.68641384162765 86.03803664274999 l 27.814116122660224 -24.756434073435354 a58.23581721564841,58.23581721564841 0 0,0 0.6600284918341687,0.7545266636279283 l -28.23613647807224 24.27399185360448" fill="#58ff2a" stroke="none" /><path d="M 115.9244219780498 86.31012108654704 l 24.477224386773475 -21.042536957023277 a53.27883014094762,53.27883014094762 0 0,0 0.5918755046526551,0.7005939103644615 l -24.835810504913248 20.61808409702971" fill="#90ff24" stroke="none" /><path d="M 116.15771136456269 86.58626213691792 l 41.61417944482516 -34.54707674036053 a75.08549197493232,75.08549197493232 0 0,0 0.8170070542598447,1.0015540445210689 l -42.20268499116141 33.825638526231366" fill="#41ffcf" stroke="none" /><path d="M 116.82858285166822 87.43820079747576 l 31.036751726472378 -23.167574270693585 a59.73004589874365,59.73004589874365 0 0,0 0.6079306649923167,0.8292167438432972 l -31.43094500397832 22.629895083178795" fill="#47ff2c" stroke="none" /><path d="M 117.2510076193507 88.02491185347247 l 51.75302285805209 -35.92526443958259 a84.0,84.0 0 0,0 0.8143021373250665,1.1948879069183742 l -52.36374946104589 35.02909850939381" fill="#4dd2ff" stroke="none" /><line stroke="#e1ed5e" stroke-width="0.3" x1="172.23445277983987" x2="176.4835382374775" y1="55.19839476539836" y2="52.563006222186495" /><path d="M 173.08426987136738 54.67131705675599 a86.0,86.0 0 0,1 12.851231095245387,41.99856678651699" fill="none" id="id75" stroke="none" /><text fill="#e1ed5e" style="font-size:6.75px; font-family:Arial;" text-anchor="middle"><textPath startOffset="22.20632615414155" xlink:href="#id75">March</textPath></text><path d="M 117.84615892207809 88.93136811851018 l 34.566632932606055 -21.439085967135778 a61.6753797696317,61.6753797696317 0 0,0 0.5518014044481536,0.9070164225025846 l -34.93055013534043 20.84090177142611" fill="#32ff2f" stroke="none" /><line stroke="#e1ed5e" stroke-width="0.3" x1="184.98032266829074" x2="189.97916517819016" y1="98.17113171792111" y2="98.06355123074" /><path d="M 185.9800911702706 98.14961562048488 a86.0,86.0 0 0,1 -9.607161424134198,41.387399972396054" fill="none" id="id76" stroke="none" /><text fill="#e1ed5e" style="font-size:6.75px; font-family:Arial;" text-anchor="middle"><textPath startOffset="21.466115282336823" xlink:href="#id76">April</textPath></text><line stroke="#e1ed5e" stroke-width="0.3" x1="174.80103733775053" x2="179.2010983576182" y1="140.37084112569926" y2="142.7455964860345" /><path d="M 175.68104954172406 140.8457921977663 a86.0,86.0 0 0,1 -30.038265399797805,32.042727171017184" fill="none" id="id77" stroke="none" /><text fill="#e1ed5e" style="font-size:6.75px; font-family:Arial;" text-anchor="middle"><textPath startOffset="22.206326154141568" xlink:href="#id77">May</textPath></text><line stroke="#e1ed5e" stroke-width="0.3" x1="143.8653032363475" x2="146.44561519142675" y1="172.8068346515853" y2="177.08958963109032" /><path d="M 144.38136562736335 173.6633856474863 a86.0,86.0 0 0,1 -40.68145358897372,12.25698825130547" fill="none" id="id78" stroke="none" /><text fill="#e1ed5e" style="font-size:6.75px; font-family:Arial;" text-anchor="middle"><textPath startOffset="21.466115282336833" xlink:href="#id78">June</textPath></text><line stroke="#e1ed5e" stroke-width="0.3" x1="102.19456741930631" x2="102.32365962044197" y1="184.97166512339345" y2="189.96999836594603" /><path d="M 102.22038585953345 185.97133177190398 a86.0,86.0 0 0,1 -42.740103519485714,-10.115201625700543" fill="none" id="id79" stroke="none" /><text fill="#e1ed5e" style="font-size:6.75px; font-family:Arial;" text-anchor="middle"><textPath startOffset="22.20632615414155" xlink:href="#id79">July</textPath></text><line stroke="#e1ed5e" stroke-width="0.3" x1="58.666819895761336" x2="56.23545636021788" y1="174.27360380694188" y2="178.64263932499728" /><path d="M 58.180547188652646 175.14741091055294 a86.0,86.0 0 0,1 -31.652253787137756,-30.449443065178592" fill="none" id="id80" stroke="none" /><text fill="#e1ed5e" style="font-size:6.75px; font-family:Arial;" text-anchor="middle"><textPath startOffset="22.20632615414155" xlink:href="#id80">August</textPath></text><line stroke="#e1ed5e" stroke-width="0.3" x1="26.63291911575756" x2="22.317208475507996" y1="142.92168965132927" y2="145.44649492493687" /><path d="M 25.769776987707644 143.4266507060508 a86.0,86.0 0 0,1 -11.730757126820373,-40.83630448921669" fill="none" id="id81" stroke="none" /><text fill="#e1ed5e" style="font-size:6.75px; font-family:Arial;" text-anchor="middle"><textPath startOffset="21.46611528233685" xlink:href="#id81">September</textPath></text><line stroke="#e1ed5e" stroke-width="0.3" x1="15.007084014347285" x2="10.007500721073583" y1="101.09737516637583" y2="101.16192664675087" /><path d="M 14.007167355692545 101.11028546245083 a86.0,86.0 0 0,1 10.666146001902534,-42.60595125391555" fill="none" id="id82" stroke="none" /><text fill="#e1ed5e" style="font-size:6.75px; font-family:Arial;" text-anchor="middle"><textPath startOffset="22.20632615414155" xlink:href="#id82">October</textPath></text><line stroke="#e1ed5e" stroke-width="0.3" x1="26.266209847984243" x2="21.928928074336255" y1="57.711370442889674" y2="55.22380399835377" /><path d="M 25.398753493254645 57.213857153982495 a86.0,86.0 0 0,1 29.58750427330803,-30.492523968695096" fill="none" id="id83" stroke="none" /><text fill="#e1ed5e" style="font-size:6.75px; font-family:Arial;" text-anchor="middle"><textPath startOffset="21.46611528233685" xlink:href="#id83">November</textPath></text><line stroke="#e1ed5e" stroke-width="0.3" x1="56.762969772571076" x2="54.21961505331055" y1="26.818313649435495" y2="22.513508569990535" /><path d="M 56.25429882871897 25.957352633546506 a86.0,86.0 0 0,1 42.265352541879196,-11.944610805530505" fill="none" id="id84" stroke="none" /><text fill="#e1ed5e" style="font-size:6.75px; font-family:Arial;" text-anchor="middle"><textPath startOffset="22.20632615414155" xlink:href="#id84">December</textPath></text></svg>