<?xml version="1.0" encoding="utf-8" ?>
<svg baseProfile="full" height="200mm" version="1.1" viewBox="0,0,200,200" width="200mm" xmlns="http://www.w3.org/2000/svg" xmlns:ev="http://www.w3.org/2001/xml-events" xmlns:xlink="http://www.w3.org/1999/xlink"><defs /><rect fill="#1a1a1a" height="200" width="200" x="0" y="0" /><text alignment-baseline="middle" fill="#e1ed5e" style="dominant-baseline: central; font-size:9.0px; font-family:Arial;" text-anchor="middle" x="100.0" y="100.0">2024</text><line stroke="#e1ed5e" stroke-width="0.3" x1="100.0" x2="100.0" y1="15.0" y2="10.0" /><path d="M 100.0 14.0 a86.0,86.0 0 0,1 42.35913384403234,11.155469271406648" fill="none" id="id85" stroke="none" /><text fill="#e1ed5e" style="font-size:6.75px; font-family:Arial;" text-anchor="middle"><textPath startOffset="22.145653131862478" xlink:href="#id85">January</textPath></text><path d="M 100.0 79.0 l 0.0 -43.212148170303124 a64.21214817030312,64.21214817030312 0 0,0 1.102286909749553,0.009461807398046331 l -0.7417939849006981 43.20578076109951" fill="#34ff5c" stroke="none" /><path d="M 100.72087961077811 79.0123766808444 l 0.9308742055855868 -27.101386822774142 a48.11736887133891,48.11736887133891 0 0,0 0.8252684159582614,0.03544057669268989 l -1.3959683821446844 27.081413677655622" fill="#b4ff20" stroke="none" /><path d="M 101.80034050326958 79.07731436759882 l 3.19671458673842 -37.15066912807444 a58.2879498070453,58.2879498070453 0 0,0 0.99617003024481,0.09433833757825887 l -3.833984180368243 37.090319034991" fill="#46ff2c" stroke="none" /><path d="M 102.15924093988457 79.11130261209362 l 3.923068563099343 -37.95212962707706 a59.15435244085842,59.15435244085842 0 0,0 1.0091847973148977,0.11308126149718445 l -4.573989262015037 37.8791926050729" fill="#3dff2e" stroke="none" /><path d="M 102.87502721639298 79.19773525538626 l 3.7970696603883254 -27.47370455443435 a48.734854965371426,48.734854965371426 0 0,0 0.8277380594285138,0.12164899001044767 l -4.268132825424521 27.40447449112502" fill="#adff20" stroke="none" /><path d="M 103.58742460773223 79.30868818359171 l 4.239894342805142 -24.45458386122409 a45.81941530060273,45.81941530060273 0 0,0 0.7738359588630093,0.14101868953690785 l -4.659065035219205 24.37819699775582" fill="#cfff1d" stroke="none" /><path d="M 104.29559338865022 79.4440306129975 l 10.4519965564056 -50.01658718774608 a72.09699820854959,72.09699820854959 0 0,0 1.2092986865711488,0.2635610202574401 l -11.309057659595883 49.82979470935492" fill="#3effb5" stroke="none" /><path d="M 104.9986988182912 79.60360301121754 l 2.7103174831071293 -11.05902022918604 a32.38629655721219,32.38629655721219 0 0,0 0.538838123291551,0.13697054383062235 l -2.8997608996240745 11.01086445352015" fill="#ff840c" stroke="none" /><path d="M 105.3480935250658 79.69241777938227 l 6.221357643994322 -23.62350831883195 a45.428987621766254,45.428987621766254 0 0,0 0.7524308015027581,0.20507836086072992 l -6.625969846431773 23.513229463827077" fill="#d4ff1c" stroke="none" /><path d="M 105.69591212413111 79.78721728523813 l 1.3991999457545112 -4.965266995293892 a26.158646801512415,26.158646801512415 0 0,0 0.43116922285664233,0.12550707684598564 l -1.4842291809927581 4.940516224145391" fill="#ff2c04" stroke="none" /><path d="M 106.72888874123014 80.10723608172694 l 14.559766762758956 -43.04336333308634 a66.43916741325728,66.43916741325728 0 0,0 1.077245381635658,0.37472186320304857 l -15.296517916439633 42.7870830373147" fill="#37ff76" stroke="none" /><path d="M 107.06938296918511 80.22567764915836 l 5.539121709664896 -15.493909256989156 a37.45427280004483,37.45427280004483 0 0,0 0.6035682015448103,0.2216386038979663 l -5.804279062863832 15.396539804082469" fill="#ffc712" stroke="none" /><path d="M 108.4095320186766 80.7573450057729 l 13.693357587809258 -31.333081934833007 a55.194591174081495,55.194591174081495 0 0,0 0.864942866202527,0.3868779424232833 l -14.229213856867418 31.09340024149987" fill="#66ff29" stroke="none" /><path d="M 109.06512990194946 81.05736502329252 l 17.83177843154907 -37.2615586834249 a62.30854726990742,62.30854726990742 0 0,0 0.9608564007966442,0.4700030147579078 l -18.46879508160778 36.94996191856977" fill="#32ff45" stroke="none" /><line stroke="#e1ed5e" stroke-width="0.3" x1="143.13028292997686" x2="145.6673583964461" y1="26.7553504044142" y2="22.446841604673864" /><path d="M 143.63769802327073 25.89364864446614 a86.0,86.0 0 0,1 29.32050498858742,28.57503671076993" fill="none" id="id86" stroke="none" /><text fill="#e1ed5e" style="font-size:6.75px; font-family:Arial;" text-anchor="middle"><textPath startOffset="20.669276256404974" xlink:href="#id86">February</textPath></text><path d="M 112.7482090630111 83.31218511350987 l 11.162923631518671 -14.612625368320527 a39.38857482672332,39.38857482672332 0 0,0 0.533790318603654,0.41507858034807915 l -11.412123894757551 14.418845736351656" fill="#ffe015" stroke="none" /><path d="M 113.59037401385872 83.9905735841838 l 30.994622354695593 -36.511587198962054 a68.89324184785997,68.89324184785997 0 0,0 0.8950233372264879,0.7730998416654904 l -31.61682517168494 35.97414322483184" fill="#3aff92" stroke="none" /><path d="M 113.86319453409587 84.22622945171908 l 20.443786490142088 -23.261276211657652 a51.96829632139208,51.96829632139208 0 0,0 0.6650332722840081,0.5946768528750122 l -20.84008478924947 22.906903828899253" fill="#89ff24" stroke="none" /><path d="M 114.91283532996326 85.21462403516908 l 32.5235692404678 -32.24559168653489 a66.79913470093328,66.79913470093328 0 0,0 0.8003592363076015,0.8212390842519635 l -33.07231527792621 31.68252991021518" fill="#37ff7a" stroke="none" /><path d="M 115.16444852881244 85.47280134310134 l 17.99138021652603 -17.2353352659464 a45.91478564678371,45.91478564678371 0 0,0 0.5403605437072714,0.573844171800777 l -18.284596593969557 16.92394963420113" fill="#ceff1d" stroke="none" /><path d="M 115.41159269507618 85.73525988315684 l 24.30373583774087 -22.495175057704653 a54.11652875147798,54.11652875147798 0 0,0 0.625180680836438,0.6871830837748609 l -24.686314219419188 22.07465439837212" fill="#72ff27" stroke="none" /><path d="M 116.35404254752997 86.82634096563983 l 3.828420137711416 -3.083904263298235 a25.916021384821605,25.916021384821605 0 0,0 0.27610876038075316,0.3488543989795128 l -3.8807953287337287 3.017729920404044" fill="#ff2903" stroke="none" /><path d="M 116.57777611688842 87.10902102172516 l 1.69847016122297 -1.320740670471909 a23.151547537751227,23.151547537751227 0 0,0 0.24127001903926784,0.3158301997940609 l -1.7208921576165446 1.291389557436966" fill="#ff0000" stroke="none" /><path d="M 117.21940702142032 87.97951657250589 l 1.8381817635089868 -1.2831936313193166 a23.24176227355968,23.24176227355968 0 0,0 0.22556712789761182,0.3291091807579058 l -1.8599386282219237 1.251449715491362" fill="#ff0100" stroke="none" /><line stroke="#e1ed5e" stroke-width="0.3" x1="172.87174338648825" x2="177.1583165268699" y1="56.24261187166439" y2="53.66864786411523" /><path d="M 173.72905801456457 55.72781907015455 a86.0,86.0 0 0,1 12.242430191666344,42.057860355516425" fill="none" id="id87" stroke="none" /><text fill="#e1ed5e" style="font-size:6.75px; font-family:Arial;" text-anchor="middle"><textPath startOffset="22.145653131862474" xlink:href="#id87">March</textPath></text><path d="M 118.00360718960297 89.18935116829356 l 14.19236310224535 -8.52210626318524 a37.55443945251534,37.55443945251534 0 0,0 0.32712829891451944,0.5555353686340124 l -14.336565111289637 8.277219726257671" fill="#ffc912" stroke="none" /><path d="M 118.18653347947321 89.5 l 20.396258595508954 -11.775785390578315 a44.55157078115663,44.55157078115663 0 0,0 0.3767082146010462,0.6656073197160876 l -20.595400175131378 11.42392130076311" fill="#deff1b" stroke="none" /><path d="M 118.36410011445183 89.81374322990088 l 38.15934135171034 -21.166343396292543 a64.63656064776562,64.63656064776562 0 0,0 0.5298802143039466,0.9749199126669249 l -38.51706691562962 20.508168650151013" fill="#34ff61" stroke="none" /><path d="M 118.70294669586156 90.45014215332178 l 13.37795011808983 -6.830876651965182 a36.02099947395188,36.02099947395188 0 0,0 0.2764698962576924,0.5531249923567517 l -13.493239927559259 6.60021980344468" fill="#ffb510" stroke="none" /><path d="M 118.8641267826498 90.77261029715802 l 20.824116604097984 -10.186118940854731 a44.181907846816856,44.181907846816856 0 0,0 0.32741053732706793,0.6841620984141211 l -20.995906399384964 9.827144340375508" fill="#e3ff1b" stroke="none" /><path d="M 119.4528033332814 92.08871423366111 l 40.8266004410414 -16.603822977257853 a65.07378178727754,65.07378178727754 0 0,0 0.41195213217933124,1.0383884801420535 l -41.105611248186854 15.900533479902233" fill="#35ff66" stroke="none" /><path d="M 119.71291397450082 92.76114493625339 l 10.277335547473422 -3.7739799689627005 a31.94835835920128,31.94835835920128 0 0,0 0.18463082561180152,0.5164452792363983 l -10.340606543129168 3.5969997333453856" fill="#ff7e0b" stroke="none" /><path d="M 119.83427380445688 93.10060997987247 l 23.47649493119101 -8.166343594562926 a45.85628656816412,45.85628656816412 0 0,0 0.25224141005610956,0.7457069084695733 l -23.613221762819485 7.762135011619191" fill="#cfff1d" stroke="none" /><path d="M 120.05942366710727 93.78553927170692 l 19.46738495694039 -6.03104562250445 a41.38020089112075,41.38020089112075 0 0,0 0.20438603406743922,0.6803346344555062 l -19.568047311011455 5.69597338445822" fill="#fff917" stroke="none" /><path d="M 120.16314734710363 94.1308016681162 l 32.71430277774621 -9.522656755244645 a55.07207944802107,55.07207944802107 0 0,0 0.2564300463340914,0.9099797706022397 l -32.87295131615488 8.959669060739392" fill="#67ff28" stroke="none" /><path d="M 120.26092885502905 94.47779374421319 l 34.14712617307971 -9.306951083998166 a56.392733214039296,56.392733214039296 0 0,0 0.2465450531057752,0.9361717242913195 l -34.30186070699022 8.719398855334049" fill="#5aff2a" stroke="none" /><path d="M 120.43855184770803 95.1765574152323 l 21.790810823247803 -5.142572020984797 a43.38940560456193,43.38940560456193 0 0,0 0.16485729955775985,0.7263916800646457 l -21.875878984363226 4.767746006981126" fill="#ecff1a" stroke="none" /><path d="M 120.51834098615036 95.52812308129327 l 10.102927460154312 -2.201886017535619 a31.340089230725184,31.340089230725184 0 0,0 0.11005190108772782,0.5266381859414467 l -10.139237072066408 2.0281313803087677" fill="#ff750a" stroke="none" /><path d="M 120.592083275326 95.88100663000786 l 23.160775084583356 -4.63280367225339 a44.61957604158681,44.61957604158681 0 0,0 0.1437891498824962,0.7523655916965173 l -23.23689052674801 4.234535515523558" fill="#ddff1b" stroke="none" /><path d="M 120.65975698304385 96.23510406497455 l 30.188720826448655 -5.501390573780571 a51.68589518626655,51.68589518626655 0 0,0 0.15157548991064157,0.8742471461856133 l -30.278711133851534 4.982350394674365" fill="#8cff24" stroke="none" /><path d="M 120.77682067341334 96.94652285012252 l 62.330462020240034 -9.160431449632455 a84.0,84.0 0 0,0 0.19742193377914985,1.4284467671996575 l -62.478528470574396 8.089096374232712" fill="#4dd2ff" stroke="none" /><path d="M 120.86939407059847 97.66154086499901 l 26.852004230478798 -3.008823081946218 a48.02005084251515,48.02005084251515 0 0,0 0.08476135226860915,0.8199891938985544 l -26.89969797522907 2.547429365764732" fill="#b5ff1f" stroke="none" /><path d="M 120.93736805541906 98.37931529534042 l 15.468970291050184 -1.1973961331328689 a36.51524409621179,36.51524409621179 0 0,0 0.04301154743004696,0.6253784598958189 l -15.487245799645297 0.9316742490827159" fill="#ffbb11" stroke="none" /><path d="M 120.96210409425399 98.7389718711861 l 31.71339008515795 -1.9077987962284089 a52.77072248061547,52.77072248061547 0 0,0 0.046635272974691985,0.9047118369957253 l -31.741466947589213 1.363115165855953" fill="#80ff25" stroke="none" /><path d="M 120.99303781780057 99.45929381324524 l 44.72372886352628 -1.1519246095363223 a65.73856114991037,65.73856114991037 0 0,0 0.01937274201340459,1.1283651002972053 l -44.73691303713835 0.3840125932700505" fill="#36ff6e" stroke="none" /><line stroke="#e1ed5e" stroke-width="0.3" x1="184.99686870605535" x2="189.99668451229388" y1="99.2704041080226" y2="99.22748670261217" /><path d="M 185.99683186730306 99.26182062694052 a86.0,86.0 0 0,1 -10.086455211305974,41.156179273409016" fill="none" id="id88" stroke="none" /><text fill="#e1ed5e" style="font-size:6.75px; font-family:Arial;" text-anchor="middle"><textPath startOffset="21.40746469413373" xlink:href="#id88">April</textPath></text><path d="M 120.99303781780057 100.54070618675476 l 31.657909160221482 0.8153954416324285 a52.66840826633177,52.66840826633177 0 0,0 -0.031037525603512837,0.9036236930351973 l -31.639246947621125 -1.3587253992317365" fill="#81ff25" stroke="none" /><line stroke="#e1ed5e" stroke-width="0.3" x1="174.33088141563837" x2="178.70328620479359" y1="141.23008692659167" y2="143.65538615756765" /><path d="M 175.20536237346943 141.71514677278685 a86.0,86.0 0 0,1 -30.301960400862466,31.631185727798858" fill="none" id="id89" stroke="none" /><text fill="#e1ed5e" style="font-size:6.75px; font-family:Arial;" text-anchor="middle"><textPath startOffset="22.145653131862474" xlink:href="#id89">May</textPath></text><line stroke="#e1ed5e" stroke-width="0.3" x1="143.1302829299769" x2="145.66735839644613" y1="173.24464959558577" y2="177.55315839532614" /><path d="M 143.63769802327073 174.10635135553383 a86.0,86.0 0 0,1 -40.68552437913181,11.842963189579606" fill="none" id="id90" stroke="none" /><text fill="#e1ed5e" style="font-size:6.75px; font-family:Arial;" text-anchor="middle"><textPath startOffset="21.407464694133747" xlink:href="#id90">June</textPath></text><line stroke="#e1ed5e" stroke-width="0.3" x1="101.45913802915013" x2="101.54496967792366" y1="184.9874750549273" y2="189.98673829345242" /><path d="M 101.47630435890484 185.9873277026323 a86.0,86.0 0 0,1 -42.54439059252881,-10.42667462771756" fill="none" id="id91" stroke="none" /><text fill="#e1ed5e" style="font-size:6.75px; font-family:Arial;" text-anchor="middle"><textPath startOffset="22.145653131862474" xlink:href="#id91">July</textPath></text><line stroke="#e1ed5e" stroke-width="0.3" x1="58.13341422392154" x2="55.67067388415222" y1="173.97424548756322" y2="178.32567169271397" /><path d="M 57.64086615596768 174.84453072859336 a86.0,86.0 0 0,1 -31.369924170532247,-30.572349798747897" fill="none" id="id92" stroke="none" /><text fill="#e1ed5e" style="font-size:6.75px; font-family:Arial;" text-anchor="middle"><textPath startOffset="22.145653131862474" xlink:href="#id92">August</textPath></text><line stroke="#e1ed5e" stroke-width="0.3" x1="26.387840678322732" x2="22.057713659400548" y1="142.50000000000003" y2="145.00000000000006" /><path d="M 25.521815274538298 143.00000000000003 a86.0,86.0 0 0,1 -11.493303480769221,-40.785679425670985" fill="none" id="id93" stroke="none" /><text fill="#e1ed5e" style="font-size:6.75px; font-family:Arial;" text-anchor="middle"><textPath startOffset="21.40746469413373" xlink:href="#id93">September</textPath></text><line stroke="#e1ed5e" stroke-width="0.3" x1="15.003131293944662" x2="10.003315487706104" y1="100.72959589197737" y2="100.7725132973878" /><path d="M 14.003168132696942 100.73817937305945 a86.0,86.0 0 0,1 10.791469493833604,-42.45332614584628" fill="none" id="id94" stroke="none" /><text fill="#e1ed5e" style="font-size:6.75px; font-family:Arial;" text-anchor="middle"><textPath startOffset="22.145653131862435" xlink:href="#id94">October</textPath></text><line stroke="#e1ed5e" stroke-width="0.3" x1="26.387840678322718" x2="22.05771365940052" y1="57.49999999999999" y2="54.99999999999999" /><path d="M 25.521815274538284 56.99999999999999 a86.0,86.0 0 0,1 29.574782752854787,-30.34633250058573" fill="none" id="id95" stroke="none" /><text fill="#e1ed5e" style="font-size:6.75px; font-family:Arial;" text-anchor="middle"><textPath startOffset="21.40746469413373" xlink:href="#id95">November</textPath></text><line stroke="#e1ed5e" stroke-width="0.3" x1="56.869717070023135" x2="54.33264160355391" y1="26.7553504044142" y2="22.446841604673864" /><path d="M 56.362301976729285 25.89364864446614 a86.0,86.0 0 0,1 42.16139366436587,-11.88097634709845" fill="none" id="id96" stroke="none" /><text fill="#e1ed5e" style="font-size:6.75px; font-family:Arial;" text-anchor="middle"><textPath startOffset="22.145653131862474" xlink:href="#id96">December</textPath></text></svg>