<?xml version="1.0" encoding="utf-8" ?>
<svg baseProfile="full" height="200mm" version="1.1" viewBox="0,0,200,200" width="200mm" xmlns="http://www.w3.org/2000/svg" xmlns:ev="http://www.w3.org/2001/xml-events" xmlns:xlink="http://www.w3.org/1999/xlink"><defs /><rect fill="#1a1a1a" height="200" width="200" x="0" y="0" /><text alignment-baseline="middle" fill="#e1ed5e" style="dominant-baseline: central; font-size:9.0px; font-family:Arial;" text-anchor="middle" x="100.0" y="100.0">2024</text><line stroke="#e1ed5e" stroke-width="0.3" x1="100.0" x2="100.0" y1="15.0" y2="10.0" /><path d="M 100.0 14.0 a86.0,86.0 0 0,1 42.35913384403234,11.155469271406648" fill="none" id="id85" stroke="none" /><text fill="#e1ed5e" style="font-size:6.75px; font-family:Arial;" text-anchor="middle"><textPath startOffset="22.145653131862478" xlink:href="#id85">January</textPath></text><path d="M 100.0 79.0 l 0.0 -31.020604568966277 a52.02060456896628,52.02060456896628 0 0,0 0.893002852070112,0.007665355469124844 l -0.5325099272212572 31.016033611691586" fill="#85ff25" stroke="none" /><path d="M 100.72087961077811 79.0123766808444 l 0.6682445066400537 -19.455209692112206 a40.46668268824227,40.46668268824227 0 0,0 0.6940503170592841,0.02980550692923808 l -1.0021205843001741 19.44087161675714" fill="#fff316" stroke="none" /><path d="M 101.80034050326958 79.07731436759882 l 2.294818085049701 -26.66926466957026 a47.7678140321368,47.7678140321368 0 0,0 0.8163756815370191,0.07731162582415153 l -2.7522933299717334 26.625941288240924" fill="#b4ff20" stroke="none" /><path d="M 102.15924093988457 79.11130261209362 l 2.816244129156279 -27.244607258863066 a48.38977648110151,48.38977648110151 0 0,0 0.8255390306067051,0.09250337028911847 l -3.283519061363781 27.192248128066975" fill="#adff20" stroke="none" /><path d="M 102.87502721639298 79.19773525538626 l 2.7257935891433616 -19.72248455848376 a40.90995599819963,40.90995599819963 0 0,0 0.6948359159643919,0.10211695165788438 l -3.0639546107154354 19.672786533526992" fill="#fff917" stroke="none" /><path d="M 103.58742460773223 79.30868818359171 l 3.043683116701504 -17.555155389821376 a38.81705608891851,38.81705608891851 0 0,0 0.6555743590733323,0.11946748655406636 l -3.3445922093258904 17.500319729335942" fill="#ffde14" stroke="none" /><path d="M 104.29559338865022 79.4440306129975 l 7.503150522733686 -35.90529142234524 a57.68088357564929,57.68088357564929 0 0,0 0.9674940494266564,0.21086082503149173 l -8.118406988779476 35.771199139180034" fill="#4aff2c" stroke="none" /><path d="M 104.9986988182912 79.60360301121754 l 1.9456493245480888 -7.9389131986162145 a29.17385429704232,29.17385429704232 0 0,0 0.48539001274286514,0.12338424313635683 l -2.0816446305163483 7.90434372364459" fill="#ff5f08" stroke="none" /><path d="M 105.3480935250658 79.69241777938227 l 4.466111580379452 -16.95855311802775 a38.53678067677669,38.53678067677669 0 0,0 0.6382766222611176,0.17396513168733357 l -4.7565696035752625 16.879387492196276" fill="#ffdb14" stroke="none" /><path d="M 105.69591212413111 79.78721728523813 l 1.0044404193725895 -3.564404700116316 a24.70322581302851,24.70322581302851 0 0,0 0.4071797274788627,0.11852408436816571 l -1.0654801592330567 3.5466369214456344" fill="#ff2003" stroke="none" /><path d="M 106.72888874123014 80.10723608172694 l 10.451985992085323 -30.899439389399067 a53.61930970694957,53.61930970694957 0 0,0 0.8693840696260404,0.3024169088705381 l -10.980875833756382 30.71546404795994" fill="#74ff27" stroke="none" /><path d="M 107.06938296918511 80.22567764915836 l 3.9763564527665975 -11.122576697513326 a32.811990646437415,32.811990646437415 0 0,0 0.5287587424084672,0.19416753428412079 l -4.1667043468291896 11.052678314220483" fill="#ff900d" stroke="none" /><path d="M 108.4095320186766 80.7573450057729 l 9.830018847450075 -22.49300684605742 a45.54719184587128,45.54719184587128 0 0,0 0.7137604940018811,0.3192559903000762 l -10.214692744307587 22.320947104847487" fill="#ceff1d" stroke="none" /><path d="M 109.06512990194946 81.05736502329252 l 12.800857418762874 -26.748868697442198 a50.65407100633064,50.65407100633064 0 0,0 0.7811334156453176,0.3820914966867579 l -13.258151083670258 26.52518345065822" fill="#94ff23" stroke="none" /><line stroke="#e1ed5e" stroke-width="0.3" x1="143.13028292997686" x2="145.6673583964461" y1="26.7553504044142" y2="22.446841604673864" /><path d="M 143.63769802327073 25.89364864446614 a86.0,86.0 0 0,1 29.32050498858742,28.57503671076993" fill="none" id="id86" stroke="none" /><text fill="#e1ed5e" style="font-size:6.75px; font-family:Arial;" text-anchor="middle"><textPath startOffset="20.669276256404974" xlink:href="#id86">February</textPath></text><path d="M 112.7482090630111 83.31218511350987 l 8.013502093026831 -10.489931476645134 a34.2005635553811,34.2005635553811 0 0,0 0.46348287027297047,0.3604070832753402 l -8.192394907935029 10.350823341749003" fill="#ffa30f" stroke="none" /><path d="M 113.59037401385872 83.9905735841838 l 22.250037652379678 -26.21048840757938 a55.381010428667835,55.381010428667835 0 0,0 0.7194798131622677,0.62146952654991 l -22.696696945304804 25.824674748564753" fill="#61ff29" stroke="none" /><path d="M 113.86319453409587 84.22622945171908 l 14.67593358478073 -16.698518395510543 a43.23113904391988,43.23113904391988 0 0,0 0.5532247138744157,0.4946969504993709 l -14.960423325478521 16.444125915127785" fill="#e9ff1a" stroke="none" /><path d="M 114.91283532996326 85.21462403516908 l 23.347619206612308 -23.148068104787487 a53.87771858874718,53.87771858874718 0 0,0 0.6455402438481451,0.6623811591797392 l -23.741546251611265 22.743864253540007" fill="#71ff27" stroke="none" /><path d="M 115.16444852881244 85.47280134310134 l 12.915430381920347 -12.372690147024736 a38.88551937810345,38.88551937810345 0 0,0 0.45763472697304214,0.48599222120367086 l -13.12592094262965 12.14915646587657" fill="#ffdf14" stroke="none" /><path d="M 115.41159269507618 85.73525988315684 l 17.446866469121556 -16.148559137226393 a44.77328567530908,44.77328567530908 0 0,0 0.5172429545568292,0.5685406146869946 l -17.72150712452026 15.846680946981724" fill="#d7ff1c" stroke="none" /><path d="M 116.35404254752997 86.82634096563983 l 2.7482990835764367 -2.213835199844747 a24.529052867960285,24.529052867960285 0 0,0 0.26133202624431673,0.3301844781159446 l -2.785897540462313 2.166330777814124" fill="#ff1d02" stroke="none" /><path d="M 116.57777611688842 87.10902102172516 l 1.2192768347419207 -0.9481170414253217 a22.544526440038947,22.544526440038947 0 0,0 0.23494404918505113,0.3075493021885309 l -1.2353728612812787 0.9270468259959089" fill="#ff0000" stroke="none" /><path d="M 117.21940702142032 87.97951657250589 l 1.3195712785897662 -0.9211632355257001 a22.609288683165083,22.609288683165083 0 0,0 0.2194288131873414,0.32015319614986354 l -1.3351898285924326 0.8983753043057878" fill="#ff0100" stroke="none" /><line stroke="#e1ed5e" stroke-width="0.3" x1="172.87174338648825" x2="177.1583165268699" y1="56.24261187166439" y2="53.66864786411523" /><path d="M 173.72905801456457 55.72781907015455 a86.0,86.0 0 0,1 12.242430191666344,42.057860355516425" fill="none" id="id87" stroke="none" /><text fill="#e1ed5e" style="font-size:6.75px; font-family:Arial;" text-anchor="middle"><textPath startOffset="22.145653131862474" xlink:href="#id87">March</textPath></text><path d="M 118.00360718960297 89.18935116829356 l 10.188238778568738 -6.117744654653806 a32.88389704889255,32.88389704889255 0 0,0 0.28644425160136167,0.4864449619139732 l -10.291756740299869 5.941948524446276" fill="#ff910d" stroke="none" /><path d="M 118.18653347947321 89.5 l 14.641814845309604 -8.453455742364161 a37.90691148472832,37.90691148472832 0 0,0 0.3205239387988459,0.5663350878469285 l -14.784772149129827 8.200863884418114" fill="#ffd313" stroke="none" /><path d="M 118.36410011445183 89.81374322990088 l 27.393357858962137 -15.194633834903279 a52.325276569664155,52.325276569664155 0 0,0 0.42895427114910034,0.7892275447878909 l -27.650157479726577 14.722151456640784" fill="#82ff25" stroke="none" /><path d="M 118.70294669586156 90.45014215332178 l 9.603598018804746 -4.903665576746765 a31.783090048560368,31.783090048560368 0 0,0 0.24394291487743516,0.48804924063522076 l -9.686360846893919 4.738084479947794" fill="#ff830c" stroke="none" /><path d="M 118.8641267826498 90.77261029715802 l 14.948960281444785 -7.312285575607283 a37.64154241155092,37.64154241155092 0 0,0 0.278943083886619,0.5828837616772635 l -15.072282623291317 7.054589311864916" fill="#ffd013" stroke="none" /><path d="M 119.4528033332814 92.08871423366111 l 29.308096954251585 -11.91934788524583 a52.63914349487554,52.63914349487554 0 0,0 0.3332341659455746,0.8399677828515221 l -29.508389795163282 11.414479085180744" fill="#7eff26" stroke="none" /><path d="M 119.71291397450082 92.76114493625339 l 7.377767029407954 -2.7092182459201806 a28.859472618709596,28.859472618709596 0 0,0 0.16678003283943205,0.4665134348254281 l -7.423187232291329 2.5821698547138356" fill="#ff5b08" stroke="none" /><path d="M 119.83427380445688 93.10060997987247 l 16.853016958464924 -5.8623541329829285 a38.84352478023354,38.84352478023354 0 0,0 0.21366635188724148,0.6316666033319601 l -16.95116873192453 5.572185855176806" fill="#ffdf14" stroke="none" /><path d="M 120.05942366710727 93.78553927170692 l 13.975006481073407 -4.329492730974159 a35.63028753830908,35.63028753830908 0 0,0 0.17598593060963408,0.5857999266775321 l -14.04726873168667 4.088955200705903" fill="#ffb610" stroke="none" /><path d="M 120.16314734710363 94.1308016681162 l 23.48454064857895 -6.8360075154386255 a45.45924463727141,45.45924463727141 0 0,0 0.21167016618013657,0.7511427464041726 l -23.598429306833665 6.431856845131439" fill="#cfff1d" stroke="none" /><path d="M 120.26092885502905 94.47779374421319 l 24.513118255705404 -6.681159385587516 a46.40729929279816,46.40729929279816 0 0,0 0.20288944012009869,0.7704042510893274 l -24.624197176630233 6.25937463012539" fill="#c4ff1e" stroke="none" /><path d="M 120.43855184770803 95.1765574152323 l 15.64291881813147 -3.6916862476193817 a37.07263066524935,37.07263066524935 0 0,0 0.14085682193195628,0.6206411472600413 l -15.703986501621094 3.422610766420314" fill="#ffc812" stroke="none" /><path d="M 120.51834098615036 95.52812308129327 l 7.252565100333897 -1.5806628077529628 a28.422815870435876,28.422815870435876 0 0,0 0.09980778605254566,0.47761638708671134 l -7.27863059721081 1.455929969380847" fill="#ff5407" stroke="none" /><path d="M 120.592083275326 95.88100663000786 l 16.626371884547456 -3.325740025611393 a37.95573026328338,37.95573026328338 0 0,0 0.12231452362165385,0.6400012727864782 l -16.681012700451266 3.0398361877916007" fill="#ffd413" stroke="none" /><path d="M 120.65975698304385 96.23510406497455 l 21.671506991724996 -3.949270489773211 a43.028412396125574,43.028412396125574 0 0,0 0.1261863157349905,0.7278091364509399 l -21.73610812495222 3.5766683204016783" fill="#ecff1a" stroke="none" /><path d="M 120.77682067341334 96.94652285012252 l 44.74502418418588 -6.5759776755430295 a66.22566386060706,66.22566386060706 0 0,0 0.1556476026805834,1.1261885172301827 l -44.851316303421676 5.806900850112761" fill="#37ff75" stroke="none" /><path d="M 120.86939407059847 97.66154086499901 l 19.27618598906719 -2.159936846351356 a40.396821220636554,40.396821220636554 0 0,0 0.07130540542832664,0.6898151144697704 l -19.310423786977186 1.8287172095986544" fill="#fff216" stroke="none" /><path d="M 120.93736805541906 98.37931529534042 l 11.104673819884956 -0.859571984524727 a32.137892289056225,32.137892289056225 0 0,0 0.03785543579690562,0.5504097283608947 l -11.117793216846929 0.6688188320094982" fill="#ff870c" stroke="none" /><path d="M 120.96210409425399 98.7389718711861 l 22.766017775740668 -1.3695470963793144 a43.80717484947535,43.80717484947535 0 0,0 0.03871388264782228,0.7510389808708857 l -22.786173247845063 0.9785363221316979" fill="#e2ff1b" stroke="none" /><path d="M 120.99303781780057 99.45929381324524 l 32.105719494837615 -0.8269294473595358 a53.116367113858104,53.116367113858104 0 0,0 0.01565306052926082,0.9117123018433054 l -32.11518398696554 0.27567022954716386" fill="#79ff26" stroke="none" /><line stroke="#e1ed5e" stroke-width="0.3" x1="184.99686870605535" x2="189.99668451229388" y1="99.2704041080226" y2="99.22748670261217" /><path d="M 185.99683186730306 99.26182062694052 a86.0,86.0 0 0,1 -10.086455211305974,41.156179273409016" fill="none" id="id88" stroke="none" /><text fill="#e1ed5e" style="font-size:6.75px; font-family:Arial;" text-anchor="middle"><textPath startOffset="21.40746469413373" xlink:href="#id88">April</textPath></text><path d="M 120.99303781780057 100.54070618675476 l 22.726189812854116 0.5853460342339594 a43.733726781803014,43.733726781803014 0 0,0 -0.025772312272344753,0.7503327517499239 l -22.712792813584926 -0.975385050547994" fill="#e3ff1b" stroke="none" /><path d="M 120.96210409425399 101.26102812881392 l 31.298971901813353 1.8828684274095324 a52.35555509994102,52.35555509994102 0 0,0 -0.06166995448460302,0.8966676035115899 l -31.262037986163683 -2.4198794550754656" fill="#81ff25" stroke="none" /><path d="M 120.93736805541906 101.62068470465957 l 22.368025260168224 1.7314266204156845 a43.434936866000044,43.434936866000044 0 0,0 -0.06392459747049549,0.7429007205159212 l -22.33500703999999 -2.115148388307263" fill="#e7ff1a" stroke="none" /><path d="M 120.82617615685814 102.69636545807757 l 11.79191443862329 1.5266994064313495 a32.8903346128446,32.8903346128446 0 0,0 -0.0773008745465642,0.5593106208313445 l -11.763969047521517 -1.728898335462779" fill="#ff920d" stroke="none" /><path d="M 120.7213421655516 103.40968896794604 l 18.09500001363521 2.9775253662885954 a39.338339150543334,39.338339150543334 0 0,0 -0.11536470457802833,0.6653929590288471 l -18.04122049156495 -3.2877113582380306" fill="#ffe515" stroke="none" /><path d="M 120.51834098615036 104.47187691870673 l 61.555022958451104 13.415630756120176 a84.0,84.0 0 0,0 -0.3191565537693437,1.4062626642439322 l -61.315655543124095 -14.470327754303124" fill="#4dd2ff" stroke="none" /><path d="M 120.16314734710363 105.8691983318838 l 11.207341506134778 3.2622937748906087 a32.67249177805756,32.67249177805756 0 0,0 -0.16137671818434682,0.537170609902597 l -11.149688467946802 -3.4542019883839292" fill="#ff8f0d" stroke="none" /><path d="M 120.05942366710727 106.21446072829308 l 10.114573227646739 3.1335206409606493 a31.58884050237582,31.58884050237582 0 0,0 -0.16491673841642557,0.5165993342047471 l -10.05929177345306 -3.3066890088567797" fill="#ff800b" stroke="none" /><path d="M 119.83427380445688 106.89939002012753 l 30.244567281465162 10.520630486502968 a53.022141025806015,53.022141025806015 0 0,0 -0.3064170485141847,0.8571030198143892 l -30.059510062907034 -11.03826846269828" fill="#7aff26" stroke="none" /><path d="M 119.58574465831526 107.57618678355244 l 18.391176554864156 7.114102178891922 a40.71917404162507,40.71917404162507 0 0,0 -0.2577743310180298,0.649759704821543 l -18.266343548880002 -7.428762900927029" fill="#fff617" stroke="none" /><path d="M 119.31412917781788 108.2440532568976 l 13.643602563982354 5.823642635806537 a35.83451059096624,35.83451059096624 0 0,0 -0.2463471039923679,0.56369038377216 l -13.54162157797302 -6.056995089354541" fill="#ffb811" stroke="none" /><path d="M 119.16976305983485 108.57439118712176 l 16.198090161264833 7.245199697744698 a38.74460604050325,38.74460604050325 0 0,0 -0.2767758480545772,0.6048051780870611 l -16.071329848355198 -7.522193858046448" fill="#ffde14" stroke="none" /><path d="M 119.0197475246899 108.90220220490707 l 1.3967641741635717 0.653756160266217 a22.542189117881744,22.542189117881744 0 0,0 -0.1670491522729883,0.3490684798675817 l -1.3853357639306714 -0.6776371421989021" fill="#ff0000" stroke="none" /><path d="M 118.8641267826498 109.22738970284198 l 23.99152807364769 11.73545861162432 a47.707946535324886,47.707946535324886 0 0,0 -0.3661700458597,0.7325853793088319 l -23.78653811457626 -12.145575847096898" fill="#b5ff20" stroke="none" /><line stroke="#e1ed5e" stroke-width="0.3" x1="174.33088141563837" x2="178.70328620479359" y1="141.23008692659167" y2="143.65538615756765" /><path d="M 175.20536237346943 141.71514677278685 a86.0,86.0 0 0,1 -30.301960400862466,31.631185727798858" fill="none" id="id89" stroke="none" /><text fill="#e1ed5e" style="font-size:6.75px; font-family:Arial;" text-anchor="middle"><textPath startOffset="22.145653131862474" xlink:href="#id89">May</textPath></text><path d="M 118.36410011445183 110.18625677009912 l 23.99687281355586 13.310660834718897 a48.441275420193136,48.441275420193136 0 0,0 -0.4095978224017292,0.7237201052785415 l -23.764841626132753 -13.720637710096563" fill="#acff20" stroke="none" /><path d="M 118.18653347947321 110.5 l 16.845394195473283 9.725692873361854 a40.451385746723716,40.451385746723716 0 0,0 -0.35236294832180287,0.5983893201488899 l -16.675957537021713 -10.013433361804292" fill="#fff316" stroke="none" /><path d="M 118.00360718960297 110.81064883170644 l 12.724127655310237 7.640473063131563 a35.84184130143797,35.84184130143797 0 0,0 -0.3212658450398103,0.524763613806956 l -12.591093845815022 -7.857773793063076" fill="#ffb811" stroke="none" /><path d="M 117.81537515405839 111.11811171558189 l 21.401783234979202 13.356295607671296 a46.22750399854366,46.22750399854366 0 0,0 -0.4259144849529348,0.6696083128616188 l -21.169351058400377 -13.721717595211587" fill="#c6ff1e" stroke="none" /><path d="M 117.21940702142032 112.02048342749411 l 11.381301702415907 7.945032504720737 a34.88011419054196,34.88011419054196 0 0,0 -0.34694901028357517,0.4880272325787725 l -11.243237593602371 -8.139236964009013" fill="#ffac0f" stroke="none" /><path d="M 116.57777611688842 112.89097897827486 l 15.924769300274297 12.383196927999297 a41.172799593129604,41.172799593129604 0 0,0 -0.438654162545264,0.5542252046750189 l -15.709848707087472 -12.654742076588999" fill="#fffc17" stroke="none" /><path d="M 116.1254893667686 113.45245675266167 l 35.34865092245727 29.48910181784962 a67.03405530757898,67.03405530757898 0 0,0 -0.7447337873058544,0.877294528839824 l -34.8372225716443 -30.091563129139" fill="#38ff7e" stroke="none" /><path d="M 115.6541949942343 113.99807769240083 l 11.249043418904547 10.05896399022837 a36.09051802944852,36.09051802944852 0 0,0 -0.41693536436913325,0.4582850017672524 l -11.074710353693533 -10.250586567553295" fill="#ffbc11" stroke="none" /><path d="M 115.16444852881244 114.52719865689866 l 14.077315699215037 13.485749998083852 a40.494518981144026,40.494518981144026 0 0,0 -0.4851883550811908,0.4978459950744608 l -13.843740542983038 -13.725418685226051" fill="#fff316" stroke="none" /><path d="M 114.91283532996324 114.78537596483092 l 16.879702661325215 16.73543256531522 a44.769708981873606,44.769708981873606 0 0,0 -0.5457812967995109,0.541116527421188 l -16.58992944439574 -17.022729102965073" fill="#d7ff1c" stroke="none" /><path d="M 114.39649973595853 115.28858382429668 l 18.321353437891247 19.45664244414455 a47.7251366132227,47.7251366132227 0 0,0 -0.6012690622777374,0.5565256676183842 l -17.984654604299543 -19.768285857895314" fill="#b5ff20" stroke="none" /><path d="M 114.13192950727249 115.5334660781643 l 15.137557206305326 16.638827079445136 a43.4943593986102,43.4943593986102 0 0,0 -0.5565931193485654,0.4977089994449787 l -14.849699060133382 -16.8962316087735" fill="#e6ff1a" stroke="none" /><path d="M 113.86319453409587 115.77377054828091 l 9.798040892066355 11.148371933612767 a35.84209560987832,35.84209560987832 0 0,0 -0.4656409128893559,0.40220953024897194 l -9.605220499414145 -11.314925596326455" fill="#ffb811" stroke="none" /><path d="M 113.59037401385872 116.0094264158162 l 5.227547161259298 6.158037411483083 a29.077665138170524,29.077665138170524 0 0,0 -0.38330685775673845,0.31976821352147844 l -5.121065969340664 -6.2468678089164325" fill="#ff5e08" stroke="none" /><path d="M 113.03279911837588 116.46651593811092 l 9.450635038983144 11.940568643866158 a36.22799008992768,36.22799008992768 0 0,0 -0.49095836692603967,0.38177219565682485 l -9.244266727421873 -12.101041891143776" fill="#ffbd11" stroke="none" /><path d="M 112.7482090630111 116.68781488649013 l 1.9524146000434615 2.555773384807532 a24.216193458881698,24.216193458881698 0 0,0 -0.3325079525631994,0.24952016650455341 l -1.9082536585694958 -2.5889125785761" fill="#ff1902" stroke="none" /><path d="M 112.45986205192187 116.90419585922612 l 19.370492251291846 26.279792949630032 a53.64725849949398,53.64725849949398 0 0,0 -0.7460008677727998,0.5400470983210554 l -18.91651037314508 -26.608440819324162" fill="#73ff27" stroke="none" /><path d="M 111.8722381534696 117.32195027204791 l 12.777059861811201 18.642112185442674 a43.600477991558876,43.600477991558876 0 0,0 -0.6210030860961987,0.4178385908126923 l -12.455160487617999 -18.858700450312487" fill="#e5ff1a" stroke="none" /><path d="M 111.5731344415666 117.5232005979908 l 8.247228806721514 12.48735556364509 a35.964986868130396,35.964986868130396 0 0,0 -0.5180916792046389,0.33582076705436026 l -8.031651495259865 -12.627090172403346" fill="#ffba11" stroke="none" /><path d="M 110.96478420261333 117.91015095944535 l 6.209691151273292 10.143063819197602 a32.892939411033645,32.892939411033645 0 0,0 -0.48410143392816307,0.29068900170990447 l -6.034656960787693 -10.24816682144343" fill="#ff920d" stroke="none" /><line stroke="#e1ed5e" stroke-width="0.3" x1="143.1302829299769" x2="145.66735839644613" y1="173.24464959558577" y2="177.55315839532614" /><path d="M 143.63769802327073 174.10635135553383 a86.0,86.0 0 0,1 -40.68552437913181,11.842963189579606" fill="none" id="id90" stroke="none" /><text fill="#e1ed5e" style="font-size:6.75px; font-family:Arial;" text-anchor="middle"><textPath startOffset="21.407464694133747" xlink:href="#id90">June</textPath></text><path d="M 110.65571695917076 118.09573695890943 l 16.23967100761241 27.578511702121165 a53.00470624985521,53.00470624985521 0 0,0 -0.7880223109548479,0.45496489335721413 l -15.763856228797167 -27.85322349275455" fill="#7aff26" stroke="none" /><path d="M 110.34350942703117 118.27599006163325 l 11.635738348640702 20.559234747133544 a44.62355901014433,44.62355901014433 0 0,0 -0.6698969677670227,0.3715805555762386 l -11.281097192717585 -20.75594821814293" fill="#d9ff1c" stroke="none" /><path d="M 109.71004243097381 118.62028667847754 l 10.532392732393177 20.197251812400793 a43.77850472359623,43.77850472359623 0 0,0 -0.6693374352776238,0.341768463670799 l -10.18412807540197 -20.375078227744428" fill="#e3ff1b" stroke="none" /><path d="M 109.3889696526874 118.78422872680471 l 1.9760947177203068 3.9535131688133838 a25.419866141568424,25.419866141568424 0 0,0 -0.39199824357509905,0.1917459842150674 l -1.9079362248831382 -3.986852903125675" fill="#ff2a04" stroke="none" /><path d="M 109.06512990194946 118.94263497670748 l 11.130005462444004 23.257430731190922 a46.78342696016527,46.78342696016527 0 0,0 -0.727396043155334,0.340458076576055 l -10.729120705417165 -23.44506503933751" fill="#bfff1e" stroke="none" /><path d="M 108.4095320186766 119.2426549942271 l 13.039087805564739 29.835984633233032 a53.560770719314135,53.560770719314135 0 0,0 -0.8456606151125315,0.36096223050301307 l -12.524992115281776 -30.055421513395448" fill="#74ff27" stroke="none" /><path d="M 107.74402155503746 119.51999308798841 l 12.773876519804807 32.1985133436526 a55.63980633439793,55.63980633439793 0 0,0 -0.8908402951958481,0.34459616361093115 l -12.219263962115429 -32.41304939540157" fill="#5eff29" stroke="none" /><path d="M 107.407793817531 119.65005319985036 l 6.877437925624798 18.243221186498737 a40.496519476058765,40.496519476058765 0 0,0 -0.6525934052832483,0.2396413377805515 l -6.563255368687423 -18.35859337328801" fill="#fff316" stroke="none" /><path d="M 107.06938296918513 119.77432235084164 l 6.01544256844666 16.826263473055327 a38.86921072008935,38.86921072008935 0 0,0 -0.6302258045407707,0.21922524964329188 l -5.7257109918608675 -16.92704715526721" fill="#ffdf14" stroke="none" /><path d="M 106.38641147887787 120.00534299687104 l 5.256289873284955 16.465253163506045 a38.283898430919564,38.283898430919564 0 0,0 -0.6277818588037369,0.19448842460354063 l -4.972867381609594 -16.553058175916227" fill="#ffd814" stroke="none" /><path d="M 106.0420521117495 120.11202640906438 l 5.977551018152897 19.897323246325058 a41.775817397719116,41.775817397719116 0 0,0 -0.6885848055616548,0.20043700135651252 l -5.635106200209636 -19.99700394198409" fill="#fbff18" stroke="none" /><path d="M 105.69591212413111 120.21278271476187 l 6.317211573422149 22.417555277196147 a44.29064075266122,44.29064075266122 0 0,0 -0.733576600871206,0.1999395646376956 l -5.931453571616249 -22.522695335977982" fill="#ddff1b" stroke="none" /><path d="M 105.3480935250658 120.30758222061773 l 0.8565529663101812 3.25247112978339 a24.363369060060048,24.363369060060048 0 0,0 -0.4053539137514813,0.10303937975147566 l -0.8005937593333026 -3.266695741370136" fill="#ff1b02" stroke="none" /><path d="M 104.9986988182912 120.39639698878246 l 4.294377514277873 17.522525718173746 a39.041080504759016,39.041080504759016 0 0,0 -0.652298087255847,0.15394057247677265 l -3.9929472732821467 -17.593662434296746" fill="#ffe115" stroke="none" /><path d="M 104.64783097203109 120.47920084513623 l 3.3415099053311086 14.723309192843496 a36.09773234745853,36.09773234745853 0 0,0 -0.6054751432189543,0.13196048938065166 l -3.0882723454930185 -14.778501140357866" fill="#ffbc11" stroke="none" /><path d="M 104.29559338865022 120.5559693870025 l 1.8100765471942446 8.661871533410602 a29.848977091619776,29.848977091619776 0 0,0 -0.5024627764377855,0.1005066275783267 l -1.6611172852255005 -8.69166755765179" fill="#ff6809" stroke="none" /><path d="M 103.58742460773223 120.69131181640829 l 1.3633101752970664 7.863210805532657 a28.980519958393316,28.980519958393316 0 0,0 -0.4909058534485688,0.08077837137337332 l -1.2281268187954255 -7.8854551754017015" fill="#ff5c08" stroke="none" /><path d="M 103.2317021107853 120.74984581791261 l 2.246807164797605 14.42611374870897 a35.60003083306593,35.60003083306593 0 0,0 -0.6046493922736633,0.08886263841885757 l -1.998832666916256 -14.462557460426709" fill="#ffb510" stroke="none" /><path d="M 102.51750503828377 120.84855314841334 l 2.337580039815593 19.358516053651798 a40.499139064123796,40.499139064123796 0 0,0 -0.6909232163215315,0.07741938751674657 l -2.004920921893262 -19.395791201675515" fill="#fff316" stroke="none" /><path d="M 101.80034050326958 120.92268563240118 l 1.5280616550607036 17.758392691659864 a38.82401423397281,38.82401423397281 0 0,0 -0.6645025934751143,0.05143670334309263 l -1.2229900668103535 -17.782007161998013" fill="#ffdf14" stroke="none" /><path d="M 101.08105385017728 120.97215588758144 l 1.6073414307929343 31.181994352667658 a52.223393766292304,52.223393766292304 0 0,0 -0.8956914823151291,0.038464846173857814 l -1.0718241878769759 -31.204991767267348" fill="#83ff25" stroke="none" /><path d="M 100.72087961077811 120.9876233191556 l 0.6577171067912418 19.148715931914904 a40.160008184594744,40.160008184594744 0 0,0 -0.6891967741208526,0.017751264152090978 l -0.3289070185996455 -19.15718491341704" fill="#ffef16" stroke="none" /><line stroke="#e1ed5e" stroke-width="0.3" x1="101.45913802915013" x2="101.54496967792366" y1="184.9874750549273" y2="189.98673829345242" /><path d="M 101.47630435890484 185.9873277026323 a86.0,86.0 0 0,1 -42.54439059252881,-10.42667462771756" fill="none" id="id91" stroke="none" /><text fill="#e1ed5e" style="font-size:6.75px; font-family:Arial;" text-anchor="middle"><textPath startOffset="22.145653131862474" xlink:href="#id91">July</textPath></text><path d="M 99.63950707515114 120.99690560180557 l -0.4229285509663004 24.633467812637882 a45.63709814559111,45.63709814559111 0 0,0 -0.7831905979103704,-0.020172211633857278 l 0.8457324629474148 -24.622577883653975" fill="#cdff1d" stroke="none" /><path d="M 99.27912038922189 120.98762331915562 l -0.5088181528613115 14.813685351254605 a35.822421178696025,35.822421178696025 0 0,0 -0.614395871498726,-0.026384802304887118 l 0.7630397849608763 -14.80276798052389" fill="#ffb811" stroke="none" /><path d="M 98.55909050195518 120.95050786540614 l -0.7696437913110497 11.190451812069032 a32.21688741691485,32.21688741691485 0 0,0 -0.5514165823559406,-0.04268313087654901 l 0.9616293684422264 -11.175590914197429" fill="#ff880c" stroke="none" /><path d="M 98.19965949673042 120.92268563240118 l -1.1487422134572665 13.350125801861214 a34.3994577352406,34.3994577352406 0 0,0 -0.5879038285950746,-0.05567510380925988 l 1.3777456054373562 -13.32843894254677" fill="#ffa60f" stroke="none" /><path d="M 97.84075906011543 120.88869738790638 l -1.541643576347788 14.914003134851736 a35.9934703929031,35.9934703929031 0 0,0 -0.6140556294557978,-0.06880621407799789 l 1.797435107404385 -14.885341160266767" fill="#ffba11" stroke="none" /><path d="M 97.12497278360702 120.80226474461374 l -3.2459181792878584 23.48584699299461 a44.70909095273341,44.70909095273341 0 0,0 -0.7593623949496476,-0.11160012197737772 l 3.648605679845191 -23.42666579771835" fill="#d8ff1c" stroke="none" /><path d="M 96.76829788921471 120.74984581791261 l -0.39671455945670986 2.5471920555349614 a23.577900271435137,23.577900271435137 0 0,0 -0.3993899789200361,-0.0657194690455793 l 0.4403820414298095 -2.5400065879937137" fill="#ff0f01" stroke="none" /><path d="M 96.41257539226777 120.69131181640829 l -5.114260123957107 29.49769333324428 a50.93776158295108,50.93776158295108 0 0,0 -0.8602787992442891,-0.15677145461689732 l 5.6198736567524525 -29.405553704696015" fill="#91ff24" stroke="none" /><path d="M 95.70440661134978 120.55596938700252 l -6.737079644673737 32.23936495004883 a53.9357692261941,53.9357692261941 0 0,0 -0.9046764290486933,-0.19717001704434117 l 7.289518490341567 -32.11896347487077" fill="#70ff27" stroke="none" /><path d="M 95.00130118170881 120.39639698878247 l -3.138831212357062 12.807502475194454 a34.1865227043288,34.1865227043288 0 0,0 -0.568790003615376,-0.14458419468302286 l 3.3582265091978165 -12.751733048676169" fill="#ffa30f" stroke="none" /><path d="M 94.6519064749342 120.30758222061772 l -5.7017856309907575 21.65060875674509 a43.388819060402,43.388819060402 0 0,0 -0.7186399171755724,-0.19586850507596376 l 6.072606949101025 -21.549539757524983" fill="#e7ff1a" stroke="none" /><path d="M 94.30408787586889 120.21278271476187 l -1.2077714360436296 4.285954746812356 a25.452877713731453,25.452877713731453 0 0,0 -0.41953613222302294,-0.12212085370501931 l 1.2811675806482594 -4.264590198804821" fill="#ff2a04" stroke="none" /><path d="M 93.95794788825049 120.11202640906438 l -7.785670453091026 25.915964786258492 a48.06019022857609,48.06019022857609 0 0,0 -0.7880941281514933,-0.2441535754402877 l 8.229405214114154 -25.778494623011557" fill="#b1ff20" stroke="none" /><path d="M 93.27111125876986 119.89276391827306 l -12.760045719784488 37.72280785900458 a60.822468526428246,60.822468526428246 0 0,0 -0.9861761649153402,-0.3430432622532255 l 13.40572765674485 -37.49820616418277" fill="#30ff35" stroke="none" /><path d="M 92.59220618246901 119.65005319985036 l -5.238711169353129 13.89630377303744 a35.85097145874437,35.85097145874437 0 0,0 -0.5740043343325102,-0.2220372075373432 l 5.476487766179168 -13.804326677362056" fill="#ffb911" stroke="none" /><path d="M 92.25597844496254 119.51999308798841 l -7.710578017073518 19.435693525383314 a41.909308840083746,41.909308840083746 0 0,0 -0.6664488915113327,-0.27103896230654917 l 8.04308136977529 -19.300467306497474" fill="#f9ff18" stroke="none" /><path d="M 91.92203290615298 119.3841803445677 l -5.249379249335966 12.596599228989977 a34.64662209629731,34.64662209629731 0 0,0 -0.5470287929027283,-0.2334940633474626 l 5.464843117409125 -12.50463051598311" fill="#ffa90f" stroke="none" /><path d="M 91.59046798132341 119.24265499422711 l -9.094871192138214 20.810845143175033 a43.7114058916395,43.7114058916395 0 0,0 -0.6849922772036089,-0.3063883328431525 l 9.450776872197459 -20.651653059422024" fill="#e3ff1b" stroke="none" /><path d="M 90.93487009805054 118.94263497670748 l -10.857503331080853 22.688006083048045 a46.15215693750452,46.15215693750452 0 0,0 -0.7117096666028246,-0.34813286216164807 l 11.245373246945746 -22.498279470789175" fill="#c7ff1e" stroke="none" /><path d="M 90.6110303473126 118.78422872680471 l -6.935136355171163 13.874918374012045 a36.51159167043517,36.51159167043517 0 0,0 -0.5582322941564689,-0.2850373869588644 l 7.1722958710412135 -13.753823035380345" fill="#ffc112" stroke="none" /><path d="M 90.28995756902619 118.62028667847754 l -4.992656969444624 9.574078045407104 a31.797666138295362,31.797666138295362 0 0,0 -0.48182728557573856,-0.25654589053929316 l 5.156273070806925 -9.486961687145238" fill="#ff830c" stroke="none" /><path d="M 89.97174638481275 118.45085714620012 l -11.85009543654981 21.802840899186396 a45.81508881971962,45.81508881971962 0 0,0 -0.6877844295505227,-0.38150242909884424 l 12.222624054256435 -21.596205554654404" fill="#cbff1d" stroke="none" /><line stroke="#e1ed5e" stroke-width="0.3" x1="58.13341422392154" x2="55.67067388415222" y1="173.97424548756322" y2="178.32567169271397" /><path d="M 57.64086615596768 174.84453072859336 a86.0,86.0 0 0,1 -31.369924170532247,-30.572349798747897" fill="none" id="id92" stroke="none" /><text fill="#e1ed5e" style="font-size:6.75px; font-family:Arial;" text-anchor="middle"><textPath startOffset="22.145653131862474" xlink:href="#id92">August</textPath></text><path d="M 89.34428304082925 118.09573695890944 l -14.430676260569884 24.506443137616284 a49.43958812280156,49.43958812280156 0 0,0 -0.727626534192878,-0.43691882737441184 l 14.84923555132019 -24.25511030970595" fill="#a1ff22" stroke="none" /><path d="M 88.72937992617639 117.7192867562869 l -16.109100032495544 25.326180901479162 a51.01530514439918,51.01530514439918 0 0,0 -0.7348982276654115,-0.4763521523842273 l 16.541483892417965 -25.04591490739104" fill="#90ff24" stroke="none" /><path d="M 87.83215693770417 117.11559508785305 l -10.42630266089185 14.665900414198743 a38.99434417075864,38.99434417075864 0 0,0 -0.5422423326607256,-0.3925416323100752 l 10.67652600392653 -14.484758010515604" fill="#ffe115" stroke="none" /><path d="M 87.2517909369889 116.68781488649013 l -14.178162325555984 18.559669609277766 a44.355548011882824,44.355548011882824 0 0,0 -0.6011022792588819,-0.4674207680863375 l 14.494674549450094 -18.313547789570634" fill="#dcff1b" stroke="none" /><path d="M 86.68645165197938 116.24036423190432 l -21.39798630726399 26.10206403095646 a54.751912015203054,54.751912015203054 0 0,0 -0.721749261881812,-0.6021089041638299 l 21.842909903307696 -25.73089294288076" fill="#68ff28" stroke="none" /><path d="M 86.13680546590413 115.77377054828092 l -10.844294722612872 12.338816734608072 a37.42696339684038,37.42696339684038 0 0,0 -0.4789492383110751,-0.42827936224532254 l 11.054508987747319 -12.150841842479366" fill="#ffcd13" stroke="none" /><path d="M 85.86807049272751 115.53346607816431 l -16.10498738138855 17.702202310684054 a44.9319574043385,44.9319574043385 0 0,0 -0.5660789640846152,-0.5239542380884967 l 16.406496116787135 -17.42313032646318" fill="#d5ff1c" stroke="none" /><path d="M 85.60350026404147 115.28858382429668 l -10.37676229899665 11.019761965942141 a36.13645763036726,36.13645763036726 0 0,0 -0.4479673421212809,-0.42914258032094615 l 10.564402126983245 -10.840007255315614" fill="#ffbc11" stroke="none" /><path d="M 85.34317274990678 115.03919595460226 l -17.74995411484308 18.2130166074398 a46.43176842104994,46.43176842104994 0 0,0 -0.5660432323068209,-0.5612052850331499 l 18.059989267279864 -17.90563131217799" fill="#c3ff1e" stroke="none" /><path d="M 84.83555147118756 114.52719865689866 l -28.130621390594623 26.94849895178971 a59.95578847328842,59.95578847328842 0 0,0 -0.7056058740436401,-0.7493289862179164 l 28.589083098374516 -26.461628505627303" fill="#33ff2f" stroke="none" /><path d="M 84.3458050057657 113.99807769240083 l -17.633387866216115 15.767884162835841 a44.655074267755474,44.655074267755474 0 0,0 -0.5060673149444361,-0.5758117069110823 l 17.901466245119146 -15.46286017811346" fill="#d8ff1c" stroke="none" /><path d="M 83.64595745247003 113.17365903436017 l -8.4742385949414 6.8262467522095625 a31.881652654171884,31.881652654171884 0 0,0 -0.3396664735887526,-0.42915749335114195 l 8.590171499171715 -6.67976931494374" fill="#ff840c" stroke="none" /><path d="M 83.4222238831116 112.89097897827486 l -21.37536116018897 16.621610125879084 a48.077370402334886,48.077370402334886 0 0,0 -0.5010303545979109,-0.65586481745911 l 21.657543492141173 -16.252224395179105" fill="#b1ff20" stroke="none" /><path d="M 82.576782715395 111.72311816256416 l -18.692814094011254 12.577359556238052 a43.53023018435805,43.53023018435805 0 0,0 -0.41182823360891685,-0.6235604352374888 l 18.9059667665409 -12.254619242661501" fill="#e6ff1a" stroke="none" /><path d="M 82.37810715431573 111.42229804090323 l -16.825554979709086 10.906121457259252 a41.05100460365275,41.05100460365275 0 0,0 -0.3782211015138549,-0.5946263924349549 l 17.01029377284883 -10.615681390145625" fill="#fffa17" stroke="none" /><path d="M 82.18462484594161 111.11811171558189 l -12.576688296854563 7.848783665081959 a35.824860658282624,35.824860658282624 0 0,0 -0.32111364022904904,-0.5245149986872131 l 12.709569901539018 -7.631731550270189" fill="#ffb811" stroke="none" /><line stroke="#e1ed5e" stroke-width="0.3" x1="26.387840678322732" x2="22.057713659400548" y1="142.50000000000003" y2="145.00000000000006" /><path d="M 25.521815274538298 143.00000000000003 a86.0,86.0 0 0,1 -11.493303480769221,-40.785679425670985" fill="none" id="id93" stroke="none" /><text fill="#e1ed5e" style="font-size:6.75px; font-family:Arial;" text-anchor="middle"><textPath startOffset="21.40746469413373" xlink:href="#id93">September</textPath></text><path d="M 81.81346652052679 110.50000000000001 l -33.61059277721111 19.40508478754575 a59.810169575091464,59.810169575091464 0 0,0 -0.5057281213785586,-0.8935731325432593 l 33.938754263611045 -18.82525488490337" fill="#34ff2f" stroke="none" /><path d="M 81.4637452351635 109.86951160357371 l -14.431897815230371 7.68417270673301 a37.35011268267444,37.35011268267444 0 0,0 -0.29647440033705913,-0.5685287542612877 l 14.56168028454238 -7.43529770936722" fill="#ffcc13" stroke="none" /><path d="M 81.29705330413844 109.54985784667822 l -25.736137050405162 13.14105495517353 a49.89699077087661,49.89699077087661 0 0,0 -0.3829714906153834,-0.7661995236618543 l 25.957928454232285 -12.697323575347923" fill="#9cff22" stroke="none" /><path d="M 80.9802524753101 108.90220220490708 l -24.966562116006013 11.685611705914692 a48.56597077619065,48.56597077619065 0 0,0 -0.34693571884875946,-0.7581171576130826 l 25.16348229970983 -11.25530556608692" fill="#abff21" stroke="none" /><path d="M 80.68587082218212 108.24405325689762 l -31.968672376409696 13.645525262724242 a55.75911928121692,55.75911928121692 0 0,0 -0.3682070845577201,-0.8835629618559437 l 32.1982053055039 -13.094729791427016" fill="#5dff2a" stroke="none" /><path d="M 80.28708602549918 107.23885506374661 l -16.717209810666084 6.1387909999601655 a38.80870177174693,38.80870177174693 0 0,0 -0.22427702132545366,-0.6273427447498039 l 16.82012700203548 -5.85091329882944" fill="#ffde14" stroke="none" /><line stroke="#e1ed5e" stroke-width="0.3" x1="15.003131293944662" x2="10.003315487706104" y1="100.72959589197737" y2="100.7725132973878" /><path d="M 14.003168132696942 100.73817937305945 a86.0,86.0 0 0,1 10.791469493833604,-42.45332614584628" fill="none" id="id94" stroke="none" /><text fill="#e1ed5e" style="font-size:6.75px; font-family:Arial;" text-anchor="middle"><textPath startOffset="22.145653131862435" xlink:href="#id94">October</textPath></text><line stroke="#e1ed5e" stroke-width="0.3" x1="26.387840678322718" x2="22.05771365940052" y1="57.49999999999999" y2="54.99999999999999" /><path d="M 25.521815274538284 56.99999999999999 a86.0,86.0 0 0,1 29.574782752854787,-30.34633250058573" fill="none" id="id95" stroke="none" /><text fill="#e1ed5e" style="font-size:6.75px; font-family:Arial;" text-anchor="middle"><textPath startOffset="21.40746469413373" xlink:href="#id95">November</textPath></text><line stroke="#e1ed5e" stroke-width="0.3" x1="56.869717070023135" x2="54.33264160355391" y1="26.7553504044142" y2="22.446841604673864" /><path d="M 56.362301976729285 25.89364864446614 a86.0,86.0 0 0,1 42.16139366436587,-11.88097634709845" fill="none" id="id96" stroke="none" /><text fill="#e1ed5e" style="font-size:6.75px; font-family:Arial;" text-anchor="middle"><textPath startOffset="22.145653131862474" xlink:href="#id96">December</textPath></text></svg>