<?xml version="1.0" encoding="utf-8" ?>
<svg baseProfile="full" height="200mm" version="1.1" viewBox="0,0,200,200" width="200mm" xmlns="http://www.w3.org/2000/svg" xmlns:ev="http://www.w3.org/2001/xml-events" xmlns:xlink="http://www.w3.org/1999/xlink"><defs /><rect fill="#1a1a1a" height="200" width="200" x="0" y="0" /><text alignment-baseline="middle" fill="#e1ed5e" style="dominant-baseline: central; font-size:9.0px; font-family:Arial;" text-anchor="middle" x="100.0" y="100.0">2024</text><line stroke="#e1ed5e" stroke-width="0.3" x1="100.0" x2="100.0" y1="15.0" y2="10.0" /><path d="M 100.0 14.0 a86.0,86.0 0 0,1 42.35913384403234,11.155469271406648" fill="none" id="id85" stroke="none" /><text fill="#e1ed5e" style="font-size:6.75px; font-family:Arial;" text-anchor="middle"><textPath startOffset="22.145653131862478" xlink:href="#id85">January</textPath></text><path d="M 100.0 79.0 l 0.0 -53.27838092597753 a74.27838092597753,74.27838092597753 0 0,0 1.2750871806210964,0.010945089896328256 l -0.9145942557722417 53.27053023427564" fill="#40ffc5" stroke="none" /><path d="M 100.72087961077811 79.0123766808444 l 1.147720551264779 -33.4146315771068 a54.434336630140855,54.434336630140855 0 0,0 0.93361170442662,0.04009330367199948 l -1.7211580162922353 33.39000570500897" fill="#86ff25" stroke="none" /><path d="M 101.80034050326958 79.07731436759882 l 3.9413865006814266 -45.80488555347418 a66.97414564855579,66.97414564855579 0 0,0 1.1446214340563052,0.10839683986355006 l -4.727107498122745 45.73047695810545" fill="#36ff6d" stroke="none" /><path d="M 102.15924093988457 79.11130261209362 l 4.836944011202299 -46.79304558649774 a68.0423760308465,68.0423760308465 0 0,0 1.1608162143633707,0.1300718780503356 l -5.639496127166466 46.70311794794043" fill="#37ff7a" stroke="none" /><path d="M 102.87502721639298 79.19773525538626 l 4.681593772458412 -33.873680404179936 a55.19566557876663,55.19566557876663 0 0,0 0.9374718186295375,0.1377760737234651 l -5.262390696695632 33.788323257157586" fill="#7dff26" stroke="none" /><path d="M 103.58742460773223 79.30868818359171 l 5.227574083833954 -30.1512581418009 a51.60107675124337,51.60107675124337 0 0,0 0.8714814111920124,0.1588129436924094 l -5.74439022857702 30.057077024177126" fill="#a8ff21" stroke="none" /><path d="M 104.29559338865022 79.4440306129975 l 12.88678016595065 -61.66790816100754 a84.0,84.0 0 0,0 1.4089503335234634,0.30707416746512495 l -13.943492916093248 61.4376025354087" fill="#4dd2ff" stroke="none" /><path d="M 104.9986988182912 79.60360301121754 l 3.341683610039917 -13.63520948129092 a35.03872454848713,35.03872454848713 0 0,0 0.5829688042559446,0.14818839036008571 l -3.575257707521256 13.575835859095568" fill="#ff760a" stroke="none" /><path d="M 105.3480935250658 79.69241777938227 l 7.670617557061535 -29.126584266497918 a51.11969928037305,51.11969928037305 0 0,0 0.8466848661113879,0.2307677252990201 l -8.169483824107616 28.990616047054758" fill="#aeff20" stroke="none" /><path d="M 105.69591212413111 79.78721728523813 l 1.7251423698659645 -6.1219216719305285 a27.3603491377093,27.3603491377093 0 0,0 0.45097671008388934,0.13127274770042535 l -1.8299790923314583 6.091405229927587" fill="#ff0000" stroke="none" /><path d="M 106.72888874123014 80.10723608172694 l 17.951451909367474 -53.07027780607882 a77.02418238643662,77.02418238643662 0 0,0 1.248870929311116,0.4344221377129676 l -18.859828610723607 52.75429723579726" fill="#44ffe3" stroke="none" /><path d="M 107.06938296918511 80.22567764915836 l 6.829455348523767 -19.103202094306038 a41.287281498845,41.287281498845 0 0,0 0.6653363789485285,0.24432073421901773 l -7.15638087912642 18.9831505110783" fill="#ffd013" stroke="none" /><path d="M 108.4095320186766 80.7573450057729 l 16.88321346218805 -38.63209642644312 a63.160191782199085,63.160191782199085 0 0,0 0.9897701232661713,0.44271158676924083 l -17.543896988309854 38.33658108876403" fill="#31ff3c" stroke="none" /><path d="M 109.06512990194946 81.05736502329252 l 21.98567588261227 -45.94160673538326 a71.93133783284993,71.93133783284993 0 0,0 1.1092488816207697,0.5425892131710304 l -22.771085013495107 45.55742377211501" fill="#3dffa9" stroke="none" /><line stroke="#e1ed5e" stroke-width="0.3" x1="143.13028292997686" x2="145.6673583964461" y1="26.7553504044142" y2="22.446841604673864" /><path d="M 143.63769802327073 25.89364864446614 a86.0,86.0 0 0,1 29.32050498858742,28.57503671076993" fill="none" id="id86" stroke="none" /><text fill="#e1ed5e" style="font-size:6.75px; font-family:Arial;" text-anchor="middle"><textPath startOffset="20.669276256404974" xlink:href="#id86">February</textPath></text><path d="M 112.7482090630111 83.31218511350987 l 13.763317091844453 -18.016623881638473 a43.67217751922129,43.67217751922129 0 0,0 0.5918413056235917,0.46021937897303866 l -14.070568342103272 17.777703451044644" fill="#fff016" stroke="none" /><path d="M 113.59037401385872 83.9905735841838 l 38.21479297817343 -45.01693003855815 a80.04993135018103,80.04993135018103 0 0,0 1.039964948376367,0.8982969532603103 l -38.98193740631265 44.354288952833116" fill="#48faff" stroke="none" /><path d="M 113.86319453409587 84.22622945171908 l 25.206148972239408 -28.67997050146147 a59.18233431805114,59.18233431805114 0 0,0 0.7573506202614997,0.6772275946935011 l -25.694764619324285 28.24304737688458" fill="#50ff2b" stroke="none" /><path d="M 114.91283532996326 85.21462403516908 l 40.0999067261574 -39.75717454008461 a77.46800374422028,77.46800374422028 0 0,0 0.9281891538354359,0.9524038408366132 l -40.77648268114365 39.06294800718026" fill="#44ffe8" stroke="none" /><line stroke="#e1ed5e" stroke-width="0.3" x1="172.87174338648825" x2="177.1583165268699" y1="56.24261187166439" y2="53.66864786411523" /><path d="M 173.72905801456457 55.72781907015455 a86.0,86.0 0 0,1 12.242430191666344,42.057860355516425" fill="none" id="id87" stroke="none" /><text fill="#e1ed5e" style="font-size:6.75px; font-family:Arial;" text-anchor="middle"><textPath startOffset="22.145653131862474" xlink:href="#id87">March</textPath></text><line stroke="#e1ed5e" stroke-width="0.3" x1="184.99686870605535" x2="189.99668451229388" y1="99.2704041080226" y2="99.22748670261217" /><path d="M 185.99683186730306 99.26182062694052 a86.0,86.0 0 0,1 -10.086455211305974,41.156179273409016" fill="none" id="id88" stroke="none" /><text fill="#e1ed5e" style="font-size:6.75px; font-family:Arial;" text-anchor="middle"><textPath startOffset="21.40746469413373" xlink:href="#id88">April</textPath></text><line stroke="#e1ed5e" stroke-width="0.3" x1="174.33088141563837" x2="178.70328620479359" y1="141.23008692659167" y2="143.65538615756765" /><path d="M 175.20536237346943 141.71514677278685 a86.0,86.0 0 0,1 -30.301960400862466,31.631185727798858" fill="none" id="id89" stroke="none" /><text fill="#e1ed5e" style="font-size:6.75px; font-family:Arial;" text-anchor="middle"><textPath startOffset="22.145653131862474" xlink:href="#id89">May</textPath></text><line stroke="#e1ed5e" stroke-width="0.3" x1="143.1302829299769" x2="145.66735839644613" y1="173.24464959558577" y2="177.55315839532614" /><path d="M 143.63769802327073 174.10635135553383 a86.0,86.0 0 0,1 -40.68552437913181,11.842963189579606" fill="none" id="id90" stroke="none" /><text fill="#e1ed5e" style="font-size:6.75px; font-family:Arial;" text-anchor="middle"><textPath startOffset="21.407464694133747" xlink:href="#id90">June</textPath></text><line stroke="#e1ed5e" stroke-width="0.3" x1="101.45913802915013" x2="101.54496967792366" y1="184.9874750549273" y2="189.98673829345242" /><path d="M 101.47630435890484 185.9873277026323 a86.0,86.0 0 0,1 -42.54439059252881,-10.42667462771756" fill="none" id="id91" stroke="none" /><text fill="#e1ed5e" style="font-size:6.75px; font-family:Arial;" text-anchor="middle"><textPath startOffset="22.145653131862474" xlink:href="#id91">July</textPath></text><line stroke="#e1ed5e" stroke-width="0.3" x1="58.13341422392154" x2="55.67067388415222" y1="173.97424548756322" y2="178.32567169271397" /><path d="M 57.64086615596768 174.84453072859336 a86.0,86.0 0 0,1 -31.369924170532247,-30.572349798747897" fill="none" id="id92" stroke="none" /><text fill="#e1ed5e" style="font-size:6.75px; font-family:Arial;" text-anchor="middle"><textPath startOffset="22.145653131862474" xlink:href="#id92">August</textPath></text><line stroke="#e1ed5e" stroke-width="0.3" x1="26.387840678322732" x2="22.057713659400548" y1="142.50000000000003" y2="145.00000000000006" /><path d="M 25.521815274538298 143.00000000000003 a86.0,86.0 0 0,1 -11.493303480769221,-40.785679425670985" fill="none" id="id93" stroke="none" /><text fill="#e1ed5e" style="font-size:6.75px; font-family:Arial;" text-anchor="middle"><textPath startOffset="21.40746469413373" xlink:href="#id93">September</textPath></text><line stroke="#e1ed5e" stroke-width="0.3" x1="15.003131293944662" x2="10.003315487706104" y1="100.72959589197737" y2="100.7725132973878" /><path d="M 14.003168132696942 100.73817937305945 a86.0,86.0 0 0,1 10.791469493833604,-42.45332614584628" fill="none" id="id94" stroke="none" /><text fill="#e1ed5e" style="font-size:6.75px; font-family:Arial;" text-anchor="middle"><textPath startOffset="22.145653131862435" xlink:href="#id94">October</textPath></text><line stroke="#e1ed5e" stroke-width="0.3" x1="26.387840678322718" x2="22.05771365940052" y1="57.49999999999999" y2="54.99999999999999" /><path d="M 25.521815274538284 56.99999999999999 a86.0,86.0 0 0,1 29.574782752854787,-30.34633250058573" fill="none" id="id95" stroke="none" /><text fill="#e1ed5e" style="font-size:6.75px; font-family:Arial;" text-anchor="middle"><textPath startOffset="21.40746469413373" xlink:href="#id95">November</textPath></text><line stroke="#e1ed5e" stroke-width="0.3" x1="56.869717070023135" x2="54.33264160355391" y1="26.7553504044142" y2="22.446841604673864" /><path d="M 56.362301976729285 25.89364864446614 a86.0,86.0 0 0,1 42.16139366436587,-11.88097634709845" fill="none" id="id96" stroke="none" /><text fill="#e1ed5e" style="font-size:6.75px; font-family:Arial;" text-anchor="middle"><textPath startOffset="22.145653131862474" xlink:href="#id96">December</textPath></text></svg>