<?xml version="1.0" encoding="utf-8" ?>
<svg baseProfile="full" height="200mm" version="1.1" viewBox="0,0,200,200" width="200mm" xmlns="http://www.w3.org/2000/svg" xmlns:ev="http://www.w3.org/2001/xml-events" xmlns:xlink="http://www.w3.org/1999/xlink"><defs /><rect fill="#1a1a1a" height="200" width="200" x="0" y="0" /><text alignment-baseline="middle" fill="#e1ed5e" style="dominant-baseline: central; font-size:9.0px; font-family:Arial;" text-anchor="middle" x="100.0" y="100.0">2022</text><line stroke="#e1ed5e" stroke-width="0.3" x1="100.0" x2="100.0" y1="15.0" y2="10.0" /><path d="M 100.0 14.0 a86.0,86.0 0 0,1 42.46469731375804,11.215312516191453" fill="none" id="id61" stroke="none" /><text fill="#e1ed5e" style="font-size:6.75px; font-family:Arial;" text-anchor="middle"><textPath startOffset="22.20632615414155" xlink:href="#id61">January</textPath></text><path d="M 100.36148047927253 79.00311137660856 l 0.2770782317565284 -16.09431520027368 a37.09670010009113,37.09670010009113 0 0,0 0.6383694923017531,0.016487200612699923 l -0.5540743592531493 16.08716120751862" fill="#ffc812" stroke="none" /><path d="M 102.88285421437855 79.19881850522331 l 2.1385426650299797 -15.43061521728778 a36.578101640256,36.578101640256 0 0,0 0.622926846837572,0.09180322454105715 l -2.4038384922962077 15.391517508585753" fill="#ffc112" stroke="none" /><path d="M 103.2404852339499 79.25152402106235 l 1.8119812876914565 -11.601919931023483 a32.74256455263602,32.74256455263602 0 0,0 0.5561103091446579,0.09176296594586696 l -2.0114208029749894 11.56901070213799" fill="#ff8f0d" stroke="none" /><path d="M 104.66035177308747 79.52364482259891 l 3.9418685262098583 -17.319529498052894 a38.762444356333624,38.762444356333624 0 0,0 0.6493195123805419,0.15367294990842334 l -4.239411725552924 17.249110636003604" fill="#ffdd14" stroke="none" /><path d="M 105.01212808612495 79.60689891045804 l 3.091008066094869 -12.576542114907715 a33.95082014517656,33.95082014517656 0 0,0 0.5663176437480351,0.14436697697971 l -3.307034598527929 12.521472141759137" fill="#ff9f0e" stroke="none" /><path d="M 105.71112130821622 79.79150937346287 l 3.1600320556565826 -11.181600727762941 a32.61955237639927,32.61955237639927 0 0,0 0.5390144651473131,0.15735310312633918 l -3.352036738527323 11.1255492957179" fill="#ff8d0d" stroke="none" /><path d="M 108.09893153111575 80.62456947434976 l 7.632743130135745 -18.26014748610988 a40.79120395289583,40.79120395289583 0 0,0 0.6455037910873895,0.2763710358754329 l -7.9459306790134505 18.12605692227166" fill="#fff617" stroke="none" /><path d="M 109.08828744355905 81.06846463323043 l 4.209261332149818 -8.768184355133402 a30.726198530152352,30.726198530152352 0 0,0 0.4748349656464893,0.23299945545711773 l -4.3595675648067385 8.694429739541452" fill="#ff730a" stroke="none" /><path d="M 109.73455568895987 81.39251694778311 l 9.190220663330953 -17.56699336909708 a40.82572601118597,40.82572601118597 0 0,0 0.6198802365592676,0.3311185545578884 l -9.491245946418532 17.406196088037436" fill="#fff717" stroke="none" /><line stroke="#e1ed5e" stroke-width="0.3" x1="143.23703022742887" x2="145.7803849466894" y1="26.81831364943548" y2="22.513508569990506" /><path d="M 143.74570117128098 25.957352633546492 a86.0,86.0 0 0,1 28.547481713284135,27.462654790039103" fill="none" id="id62" stroke="none" /><text fill="#e1ed5e" style="font-size:6.75px; font-family:Arial;" text-anchor="middle"><textPath startOffset="19.985693538727396" xlink:href="#id62">February</textPath></text><path d="M 111.2981086023043 82.29822771554956 l 12.828091776011485 -20.098935800340325 a44.843807559196065,44.843807559196065 0 0,0 0.6471024942771697,0.4208934626047921 l -13.172161296072934 19.875143413576005" fill="#d7ff1c" stroke="none" /><path d="M 111.60114157652 82.49532879139004 l 4.333597356940007 -6.538856230947845 a28.844533565552695,28.844533565552695 0 0,0 0.4115088975367867,0.2778526445529751 l -4.445510948883335 6.4632916740962" fill="#ff5908" stroke="none" /><path d="M 112.19680574252982 82.90503203632743 l 10.356068655184647 -14.515002175746295 a38.83068832526713,38.83068832526713 0 0,0 0.540772222377649,0.39289401752133196 l -10.604386193916083 14.334588923408289" fill="#ffde14" stroke="none" /><path d="M 112.77801427241765 83.33499621200491 l 10.239081548642076 -13.353744107332746 a37.827396490362574,37.827396490362574 0 0,0 0.5133131677537979,0.40064906947039064 l -10.467427271555305 13.175516648639132" fill="#ffd113" stroke="none" /><path d="M 113.34407831869373 83.78471172551755 l 11.423655077647787 -13.88165265583118 a38.97776893249585,38.97776893249585 0 0,0 0.5143997564662045,0.4307950026954015 l -11.660912371073108 13.68295649574196" fill="#ffe015" stroke="none" /><path d="M 113.89432698308785 84.25364557470407 l 12.19264608271269 -13.81785003579373 a39.42806550102245,39.42806550102245 0 0,0 0.5050341142914593,0.45342461432409475 l -12.428691184600138 13.605926412700338" fill="#ffe515" stroke="none" /><path d="M 114.42810811169701 84.74124197986012 l 12.526054224343346 -13.247199762902625 a39.2315752470662,39.2315752470662 0 0,0 0.4866896538733823,0.4681950614224864 l -12.752227121829147 13.029621614717836" fill="#ffe315" stroke="none" /><path d="M 114.68862486808459 84.99185889309783 l 2.190372330718733 -2.2380186921042715 a24.13152656277834,24.13152656277834 0 0,0 0.29436348536643403,0.293099395011863 l -2.2285716162524896 2.19998344644229" fill="#ff1602" stroke="none" /><path d="M 115.68641384162765 86.03803664274999 l 12.657360113107668 -11.26590181050522 a37.944890340065164,37.944890340065164 0 0,0 0.4300567922181819,0.4916292563388938 l -12.849408768903697 11.046356997963377" fill="#ffd313" stroke="none" /><path d="M 115.9244219780498 86.31012108654704 l 8.620550512236557 -7.410899613341949 a32.368171542207385,32.368171542207385 0 0,0 0.3595786134107291,0.42562766134525754 l -8.746839739134403 7.261413002367585" fill="#ff8a0c" stroke="none" /><path d="M 116.15771136456269 86.58626213691792 l 6.481141745537403 -5.380485791990741 a29.423468744143463,29.423468744143463 0 0,0 0.3201574750656873,0.3924752085845636 l -6.5727977126795 5.268126413798076" fill="#ff6109" stroke="none" /><path d="M 116.82858285166822 87.43820079747576 l 13.50066273418892 -10.077652756784065 a37.84716532086733,37.84716532086733 0 0,0 0.38520734473557444,0.5254223853146024 l -13.67213269143812 9.843767927797968" fill="#ffd113" stroke="none" /><path d="M 117.04232023915458 87.72973835380427 l 17.311310853753415 -12.463931591084792 a42.33145738533873,42.33145738533873 0 0,0 0.4206686162680911,0.5950059248802854 l -17.52329208982539 12.164099165872713" fill="#f5ff19" stroke="none" /><path d="M 117.45458315368197 88.32363383020206 l 12.26884980841871 -8.20733337393583 a35.760928044417014,35.760928044417014 0 0,0 0.33786135460645134,0.5145860224008107 l -12.408307798383085 7.994929287557346" fill="#ffb710" stroke="none" /><path d="M 117.65298651832404 88.62581576622439 l 12.546390079607724 -8.083898556549807 a35.925190782776184,35.925190782776184 0 0,0 0.33046454565864347,0.5227155499996753 l -12.683682221512322 7.866735358835926" fill="#ffb911" stroke="none" /><line stroke="#e1ed5e" stroke-width="0.3" x1="172.23445277983987" x2="176.4835382374775" y1="55.19839476539836" y2="52.563006222186495" /><path d="M 173.08426987136738 54.67131705675599 a86.0,86.0 0 0,1 12.851231095245387,41.99856678651699" fill="none" id="id63" stroke="none" /><text fill="#e1ed5e" style="font-size:6.75px; font-family:Arial;" text-anchor="middle"><textPath startOffset="22.20632615414155" xlink:href="#id63">March</textPath></text><path d="M 117.84615892207809 88.93136811851018 l 14.485525018969788 -8.984283102328066 a38.0454620922396,38.0454620922396 0 0,0 0.34038767971581746,0.5595078465386631 l -14.63802849697183 8.733607482582322" fill="#ffd413" stroke="none" /><path d="M 118.03404312379186 89.2402003453031 l 13.265439075067993 -7.914668152867765 a36.447130666384616,36.447130666384616 0 0,0 0.3168129093554459,0.5415359585018901 l -13.399711658893766 7.68515278201198" fill="#ffc011" stroke="none" /><path d="M 118.3937258080291 89.86733742301442 l 13.525636388092794 -7.450948822979515 a36.44213320968187,36.44213320968187 0 0,0 0.2979437675859137,0.5520445515205499 l -13.651888254897171 7.217023288126507" fill="#ffbf11" stroke="none" /><path d="M 118.73160827565052 90.50648371742162 l 23.238138130243613 -11.777506739933788 a47.052269167377105,47.052269167377105 0 0,0 0.35992742426477203,0.7255917242486465 l -23.43742556746179 11.37575542718619" fill="#bdff1f" stroke="none" /><path d="M 118.89224826269711 90.83032412892265 l 16.230551923716952 -7.877776021133444 a39.04134614677123,39.04134614677123 0 0,0 0.2882400391164097,0.6071070327538625 l -16.36375015667512 7.597226572739042" fill="#ffe115" stroke="none" /><path d="M 119.04729006885535 91.15688171328212 l 14.50524813851651 -6.734376628034642 a36.99231228209842,36.99231228209842 0 0,0 0.26316979738637264,0.5798597640622974 l -14.61902025286623 6.483694855130282" fill="#ffc712" stroke="none" /><path d="M 119.34039704204932 91.81776055985345 l 6.482136641737038 -2.7423632498922 a28.03836995592795,28.03836995592795 0 0,0 0.18422318995141249,0.44611106691969654 l -6.528381518574648 2.6303776125192004" fill="#ff4e07" stroke="none" /><path d="M 119.61058180528143 92.48833698450437 l 17.257915449074346 -6.6104946039107135 a39.48064621585868,39.48064621585868 0 0,0 0.23762726307977186,0.6367229242115114 l -17.369147300655744 6.312448542669869" fill="#ffe615" stroke="none" /><path d="M 119.97218684219823 93.5106431181261 l 15.850405598769804 -5.150108972320643 a37.66610272596118,37.66610272596118 0 0,0 0.19504676758436662,0.6183515545781199 l -15.936707850122376 4.876507251316104" fill="#ffcf13" stroke="none" /><path d="M 120.28053869075195 94.5502522615342 l 21.90482490061813 -5.886222835790305 a43.6819084999327,43.6819084999327 0 0,0 0.18887988203331874,0.7278312344273574 l -22.00290111452175 5.508295175814097" fill="#e4ff1a" stroke="none" /><path d="M 120.6074358757038 95.95851677861258 l 18.05263168294533 -3.5404408626368666 a39.39652772079314,39.39652772079314 0 0,0 0.1247824534197008,0.6665928557643647 l -18.110899860274888 3.2291699294099394" fill="#ffe515" stroke="none" /><path d="M 120.67395015179393 96.31383870115 l 15.708328170908596 -2.8007918635817117 a36.956064959383504,36.956064959383504 0 0,0 0.10627180802070879,0.6272222266403504 l -15.754211840449527 2.5299838486255237" fill="#ffc612" stroke="none" /><path d="M 120.73433829027371 96.67025291283417 l 4.16055477303198 -0.6681474442324364 a25.21386248311849,25.21386248311849 0 0,0 0.0651287353971961,0.42911699197573944 l -4.171439401868476 0.5964313398646148" fill="#ff2603" stroke="none" /><path d="M 120.83666639777658 97.38593545837742 l 20.710117294059593 -2.5981883204226257 a41.8724589083818,41.8724589083818 0 0,0 0.08356476055819095,0.7159318363233232 l -20.751772407621374 2.24131274577445" fill="#faff18" stroke="none" /><line stroke="#e1ed5e" stroke-width="0.3" x1="184.98032266829074" x2="189.97916517819016" y1="98.17113171792111" y2="98.06355123074" /><path d="M 185.9800911702706 98.14961562048488 a86.0,86.0 0 0,1 -9.607161424134198,41.387399972396054" fill="none" id="id64" stroke="none" /><text fill="#e1ed5e" style="font-size:6.75px; font-family:Arial;" text-anchor="middle"><textPath startOffset="21.466115282336823" xlink:href="#id64">April</textPath></text><line stroke="#e1ed5e" stroke-width="0.3" x1="174.80103733775053" x2="179.2010983576182" y1="140.37084112569926" y2="142.7455964860345" /><path d="M 175.68104954172406 140.8457921977663 a86.0,86.0 0 0,1 -30.038265399797805,32.042727171017184" fill="none" id="id65" stroke="none" /><text fill="#e1ed5e" style="font-size:6.75px; font-family:Arial;" text-anchor="middle"><textPath startOffset="22.206326154141568" xlink:href="#id65">May</textPath></text><path d="M 115.32070863581623 114.36230785411682 l 1.779468476015014 1.6681522165023617 a23.43910636802763,23.43910636802763 0 0,0 -0.27847159430259466,0.29197635331150795 l -1.750490330333455 -1.6985356863963768" fill="#ff0c01" stroke="none" /><path d="M 115.07121518719521 114.62390073753431 l 2.1955804170562536 2.1304154762241327 a24.059288065726438,24.059288065726438 0 0,0 -0.2909562742276523,0.29473716966503205 l -2.158583517773066 -2.1678931398698293" fill="#ff1502" stroke="none" /><path d="M 114.81725581225074 114.88116024355365 l 2.993524070007104 3.0064346558611477 a25.242621323860384,25.242621323860384 0 0,0 -0.31054440100852965,0.3039330573191708 l -2.9413297166227803 -3.0575178161028904" fill="#ff2603" stroke="none" /><path d="M 114.55890576462653 115.13401014063108 l 4.791837817817135 4.98112449517351 a27.91182399288929,27.91182399288929 0 0,0 -0.3491159980820429,0.3301109669084692 l -4.705385985344285 -5.0628700988279" fill="#ff4c07" stroke="none" /><path d="M 112.63410532772338 116.77436683061366 l 1.5157708921628148 2.0124968343039216 a23.51946520230214,23.51946520230214 0 0,0 -0.32548143216698017,0.24078338235505503 l -1.4809044895772703 -2.0382901653987457" fill="#ff0d01" stroke="none" /><path d="M 111.7513745106137 117.40417183066458 l 3.785097817209456 5.6058542553543775 a27.76406441558022,27.76406441558022 0 0,0 -0.3983816702013215,0.2640256479209275 l -3.6880414482681703 -5.670177924366623" fill="#ff4a06" stroke="none" /><path d="M 111.45004920935366 117.60387380957326 l 4.022911988444266 6.185024509216923 a28.378234819140864,28.378234819140864 0 0,0 -0.4117792654846503,0.26281700989393747 l -3.9158509209126846 -6.253355947934669" fill="#ff5307" stroke="none" /><path d="M 111.1453310114006 117.79835938074945 l 4.454636998453657 7.113761819021803 a29.393413966066763,29.393413966066763 0 0,0 -0.4311325184070826,0.26483680579369784 l -4.331525280114266 -7.189387091643878" fill="#ff6108" stroke="none" /><line stroke="#e1ed5e" stroke-width="0.3" x1="143.8653032363475" x2="146.44561519142675" y1="172.8068346515853" y2="177.08958963109032" /><path d="M 144.38136562736335 173.6633856474863 a86.0,86.0 0 0,1 -40.68145358897372,12.25698825130547" fill="none" id="id66" stroke="none" /><text fill="#e1ed5e" style="font-size:6.75px; font-family:Arial;" text-anchor="middle"><textPath startOffset="21.466115282336833" xlink:href="#id66">June</textPath></text><path d="M 110.5260780823613 118.17145234162733 l 2.783386657914959 4.8050354184031425 a26.552981780950454,26.552981780950454 0 0,0 -0.3974744078457481,0.22569634221964593 l -2.700263483148012 -4.852234926417417" fill="#ff3905" stroke="none" /><path d="M 109.57404056367764 118.69057910512821 l 2.6743615987671308 5.220927014567979 a26.86602837125819,26.86602837125819 0 0,0 -0.4134120040121988,0.2072933611041386 l -2.5840956870721716 -5.26618821658142" fill="#ff3e05" stroke="none" /><path d="M 109.2508944713604 118.85261126421891 l 3.832794313190865 7.8109399546172 a29.70063763306251,29.70063763306251 0 0,0 -0.46090769318717256,0.22126370204423135 l -3.69777395200346 -7.875757933160991" fill="#ff6509" stroke="none" /><path d="M 108.59647513512805 119.15986991738527 l 4.619645889649361 10.296291551914889 a32.28515608522045,32.28515608522045 0 0,0 -0.508997509298281,0.22312955001841567 l -4.441727705693326 -10.374285655227759" fill="#ff890c" stroke="none" /><path d="M 107.59598834532513 119.57807347666477 l 5.040740340769568 12.992119034662728 a34.93571742659513,34.93571742659513 0 0,0 -0.5625145914779063,0.21269488603668846 l -4.816355528531386 -13.076962170806048" fill="#ffac0f" stroke="none" /><path d="M 107.2578585660854 119.70592522655815 l 2.8906944025233345 7.848569551235963 a29.363979802066,29.363979802066 0 0,0 -0.4758089499384101,0.1706081609763342 l -2.7551658919551896 -7.897165253252258" fill="#ff6108" stroke="none" /><path d="M 106.57524785965236 119.94407469862006 l 3.5381696511710374 10.731993884573725 a32.300191910715306,32.300191910715306 0 0,0 -0.5295365059202645,0.16954086698396767 l -3.3529118001598324 -10.791307598217399" fill="#ff890c" stroke="none" /><path d="M 106.2309692047433 120.05430185196036 l 2.870322069033923 9.238098166322272 a30.673737980253037,30.673737980253037 0 0,0 -0.5055689686870611,0.1523237830199226 l -2.710878125906616 -9.28613731844792" fill="#ff730a" stroke="none" /><path d="M 105.53697534728816 120.25689768951611 l 3.9801868013816857 14.561422394672478 a36.09559237426482,36.09559237426482 0 0,0 -0.6007502146279041,0.1586635918169633 l -3.728946143942284 -14.627777335793025" fill="#ffbb11" stroke="none" /><path d="M 105.18746579009965 120.34920634021253 l 2.822097747159535 11.070424691532295 a32.42447104007056,32.42447104007056 0 0,0 -0.5420240025026498,0.13321631243668877 l -2.631120459913674 -11.117362262283013" fill="#ff8a0c" stroke="none" /><path d="M 104.48393922423573 120.51570834832081 l 2.7090805352494947 12.395062326645313 a33.6876588631587,33.6876588631587 0 0,0 -0.5675705404876115,0.11893992514417831 l -2.4953185333325054 -12.439858232516032" fill="#ff9b0e" stroke="none" /><path d="M 104.13013068566511 120.58985236759428 l 2.2354725429248434 11.144453561817702 a32.366449871515826,32.366449871515826 0 0,0 -0.5471970431299817,0.10487161565580003 l -2.0433078852231574 -11.18128237582197" fill="#ff8a0c" stroke="none" /><path d="M 103.7750983002368 120.6578951692458 l 1.580627785922163 8.649428572794744 a29.79266733326738,29.79266733326738 0 0,0 -0.5052709101587732,0.08784782432984288 l -1.4315079042913397 -8.675354975645593" fill="#ff6709" stroke="none" /><path d="M 103.06178313531738 120.77559828337769 l 2.0413938556491433 13.851790544507608 a35.001406720854604,35.001406720854604 0 0,0 -0.5968096673799594,0.0827123817567881 l -1.8026555970823532 -13.884877491756999" fill="#ffad10" stroke="none" /><path d="M 102.34483914955558 120.86867818915974 l 1.555431751310799 13.843083722590624 a34.930195077013074,34.930195077013074 0 0,0 -0.5980837878048263,0.061993830023039806 l -1.31691536690037 -13.867806921069423" fill="#ffac0f" stroke="none" /><path d="M 101.98527174616119 120.90594882070398 l 1.1064849781870907 11.651864974951849 a32.70428410461158,32.70428410461158 0 0,0 -0.5608873216414685,0.048395718201991796 l -0.9057533388040805 -11.669184945432503" fill="#ff8e0d" stroke="none" /><path d="M 101.62511606390274 120.93702456842531 l 1.0892478682096696 14.033218847792849 a35.075428666596544,35.075428666596544 0 0,0 -0.602357417086521,0.04154209417805736 l -0.8475276903442182 -14.049889286487192" fill="#ffae10" stroke="none" /><path d="M 101.26447882468166 120.96189622390904 l 0.43408542905699826 7.19605068791452 a28.2091314083428,28.2091314083428 0 0,0 -0.48494442943351496,0.025066087769053166 l -0.31015293121000365 -7.202456582445775" fill="#ff5007" stroke="none" /><path d="M 100.90346689309514 120.98055641714683 l 0.6332022582508569 14.704396812134062 a35.71802400828835,35.71802400828835 0 0,0 -0.6144854834567021,0.021164122502702554 l -0.3799964231195025 -14.713117733062859" fill="#ffb610" stroke="none" /><line stroke="#e1ed5e" stroke-width="0.3" x1="102.19456741930631" x2="102.32365962044197" y1="184.97166512339345" y2="189.96999836594603" /><path d="M 102.22038585953345 185.97133177190398 a86.0,86.0 0 0,1 -42.740103519485714,-10.115201625700543" fill="none" id="id67" stroke="none" /><text fill="#e1ed5e" style="font-size:6.75px; font-family:Arial;" text-anchor="middle"><textPath startOffset="22.20632615414155" xlink:href="#id67">July</textPath></text><path d="M 100.18074693466247 120.99922214144158 l 0.1832994407040345 21.295772904443094 a42.296561747910744,42.296561747910744 0 0,0 -0.7280927507329653,0.0 l 0.18329944070401985 -21.295772904443094" fill="#f5ff19" stroke="none" /><path d="M 99.81925306533755 120.99922214144158 l -0.12055919919289403 14.006596625131364 a35.00711546106661,35.00711546106661 0 0,0 -0.6025229842005283,-0.010372979587979435 l 0.36164187328609027 -14.002446168264223" fill="#ffad10" stroke="none" /><path d="M 99.09653310690486 120.98055641714683 l -0.37885462842908624 8.797866270918949 a29.806019631505226,29.806019631505226 0 0,0 -0.5123966057178653,-0.0264850517130234 l 0.5302393025604405 -8.790041412443724" fill="#ff6709" stroke="none" /><path d="M 98.73552117531835 120.96189622390904 l -0.6532823311657773 10.82978707394177 a31.84947306882365,31.84947306882365 0 0,0 -0.5469574303898276,-0.03772138673836361 l 0.8396025223345349 -10.81693734268712" fill="#ff830c" stroke="none" /><path d="M 98.37488393609728 120.93702456842531 l -0.8387567272393502 10.806040623935104 a31.838543574374974,31.838543574374974 0 0,0 -0.5460396372926035,-0.04711459752057423 l 1.0246406822734955 -10.790001774135867" fill="#ff830c" stroke="none" /><path d="M 97.65516085044442 120.86867818915974 l -1.741054427356093 15.495094646979254 a36.59260172767397,36.59260172767397 0 0,0 -0.625337203774502,-0.07571962669714134 l 2.0075190541819845 -15.462829491556764" fill="#ffc112" stroke="none" /><path d="M 96.93821686468263 120.77559828337769 l -2.04024831518735 13.844017528784567 a34.993549747112745,34.993549747112745 0 0,0 -0.5951638559380913,-0.09295235413462895 l 2.2782480347339584 -13.806846867302832" fill="#ffad10" stroke="none" /><path d="M 96.58105272829116 120.7198165907248 l -1.3415865261563218 8.130405225188806 a29.240348507978386,29.240348507978386 0 0,0 -0.49590381883962914,-0.0862192354359618 l 1.4813393164680009 -8.106107411231838" fill="#ff5f08" stroke="none" /><path d="M 95.86986931433489 120.58985236759428 l -2.7483352387268205 13.701217014378688 a34.9741437755423,34.9741437755423 0 0,0 -0.589245271284911,-0.12348207572221563 l 2.983771971441118 -13.651878957929933" fill="#ffac0f" stroke="none" /><path d="M 95.51606077576429 120.51570834832081 l -3.5840285295415 16.398278466110902 a37.785374501412946,37.785374501412946 0 0,0 -0.6342182456853701,-0.14434600788065394 l 3.8657669246197326 -16.33415572465256" fill="#ffd113" stroke="none" /><path d="M 94.81253420990036 120.34920634021253 l -3.684733478313226 14.454341463222379 a35.91660980054221,35.91660980054221 0 0,0 -0.5977713517666683,-0.15787684706084795 l 3.9329952728913837 -14.38877326685795" fill="#ffb911" stroke="none" /><path d="M 94.46302465271185 120.25689768951611 l -2.5708534172245248 9.40540843711109 a30.750435639587366,30.750435639587366 0 0,0 -0.5093865774389289,-0.14395773490923675 l 2.7323711627680676 -9.359761908863332" fill="#ff740a" stroke="none" /><path d="M 94.11515582081647 120.15858648285463 l -0.6641487384687192 2.2750474565255137 a23.370007273459894,23.370007273459894 0 0,0 -0.38518782689799747,-0.1160539325004416 l 0.7032115398069625 -2.263278154919347" fill="#ff0b01" stroke="none" /><path d="M 93.76903079525671 120.05430185196036 l -4.720016859116061 15.191319316262788 a36.90769441870816,36.90769441870816 0 0,0 -0.6050729233460692,-0.19372524248226838 l 4.980811127553071 -15.107821227120814" fill="#ffc512" stroke="none" /><path d="M 93.42475214034765 119.94407469862007 l -5.310347209281712 16.107371718626403 a37.960165422693606,37.960165422693606 0 0,0 -0.6188054079475137,-0.20993239185927542 l 5.586822350166451 -16.013576339869005" fill="#ffd313" stroke="none" /><path d="M 92.7421414339146 119.70592522655815 l -3.6398873409979866 9.882715007698032 a31.531706214025213,31.531706214025213 0 0,0 -0.5077051838666647,-0.1919706579326986 l 3.809462745624934 -9.8185960996587" fill="#ff7e0b" stroke="none" /><path d="M 92.40401165467489 119.57807347666478 l -1.4694671038660632 3.7874380032109207 a25.06251402428482,25.06251402428482 0 0,0 -0.4008557258172679,-0.15950876602204178 l 1.534443905725189 -3.7615823927828123" fill="#ff2403" stroke="none" /><path d="M 92.06813273071674 119.44442032107085 l -6.108292022288942 14.974052577150927 a37.17199684679783,37.17199684679783 0 0,0 -0.5903772312322578,-0.2467777305360958 l 6.365140713018662 -14.866689803594857" fill="#ffc912" stroke="none" /><path d="M 91.7346041902142 119.30500536409082 l -5.599406650579889 13.078209188383923 a35.226486228640155,35.226486228640155 0 0,0 -0.5553695854645943,-0.2434577054600246 l 5.8236969107022265 -12.979886929629448" fill="#ffb010" stroke="none" /><path d="M 91.07499286063937 119.00905698771935 l -6.275062916464672 13.365034528044813 a35.76484211027738,35.76484211027738 0 0,0 -0.5550147130814709,-0.26644079046767916 l 6.504190297546385 -13.25503946107757" fill="#ffb710" stroke="none" /><path d="M 90.42595943632237 118.69057910512821 l -5.8153625451324595 11.352834046594685 a33.755598081660025,33.755598081660025 0 0,0 -0.5148678645816609,-0.26935453259106545 l 6.009921312240616 -11.251050095058902" fill="#ff9c0e" stroke="none" /><path d="M 90.10565033884886 118.52300852407294 l -8.665388493807216 16.22229559618378 a39.39162396740892,39.39162396740892 0 0,0 -0.595333469081148,-0.32462327475829406 l 8.943344774757003 -16.07073166966572" fill="#ffe515" stroke="none" /><line stroke="#e1ed5e" stroke-width="0.3" x1="58.666819895761336" x2="56.23545636021788" y1="174.27360380694188" y2="178.64263932499728" /><path d="M 58.180547188652646 175.14741091055294 a86.0,86.0 0 0,1 -31.652253787137756,-30.449443065178592" fill="none" id="id68" stroke="none" /><text fill="#e1ed5e" style="font-size:6.75px; font-family:Arial;" text-anchor="middle"><textPath startOffset="22.20632615414155" xlink:href="#id68">August</textPath></text><path d="M 89.7882731507175 118.34994917583269 l -4.173300306340741 7.4992065149314415 a29.582221961735428,29.582221961735428 0 0,0 -0.4428194262324798,-0.2514444270919167 l 4.301768499494427 -7.426258922044892" fill="#ff6409" stroke="none" /><path d="M 88.54995079064634 117.60387380957326 l -6.164201322542697 9.477148982923156 a32.30547348806579,32.30547348806579 0 0,0 -0.46354554910188583,-0.3072127135785089 l 6.326421570384545 -9.369638248253327" fill="#ff890c" stroke="none" /><path d="M 88.24862548938628 117.40417183066458 l -7.151172317817793 10.591121208636629 a33.779323690053246,33.779323690053246 0 0,0 -0.47909233348463165,-0.3295240755678594 l 7.332421535925316 -10.466456343703669" fill="#ff9d0e" stroke="none" /><path d="M 87.95078237400918 117.19931262002967 l -6.278098016746719 8.961492256252273 a31.94179410182574,31.94179410182574 0 0,0 -0.4475998620783297,-0.319350617079466 l 6.431425206673935 -8.852097377328588" fill="#ff840c" stroke="none" /><path d="M 87.65650970185807 116.9893568818739 l -1.1629123196380569 1.6006114918430163 a22.978464609485318,22.978464609485318 0 0,0 -0.3179946272486452,-0.23524482306070024 l 1.1902919173052662 -1.5803567200425495" fill="#ff0500" stroke="none" /><path d="M 87.36589467227662 116.77436683061367 l -4.205804343255645 5.584068126830413 a27.990751534622824,27.990751534622824 0 0,0 -0.3823686896742922,-0.29318400620487045 l 4.3013017614234235 -5.510844778798176" fill="#ff4d07" stroke="none" /><path d="M 87.07902340077011 116.55440617244103 l -6.884942653138139 8.821015677778238 a32.189850442459466,32.189850442459466 0 0,0 -0.4338617132517613,-0.3446859846550511 l 7.035761859107258 -8.701195779118057" fill="#ff870c" stroke="none" /><path d="M 86.51685102203217 116.09983520530335 l -9.063777163467835 10.822792131709992 a35.11682988475829,35.11682988475829 0 0,0 -0.4600882025936928,-0.3920971476507419 l 9.248730842638583 -10.665170593836299" fill="#ffae10" stroke="none" /><path d="M 85.97065885151581 115.62618273729859 l -12.28494974176904 13.68324196779214 a39.388885254602556,39.388885254602556 0 0,0 -0.5006148200215137,-0.45729976862683147 l 12.518664111257408 -13.469749432578732" fill="#ffe515" stroke="none" /><path d="M 85.44109423537348 115.13401014063109 l -9.72526615846525 10.109432607233112 a35.027880434804736,35.027880434804736 0 0,0 -0.43092640850032327,-0.421752188703853 l 9.897842519341367 -9.94053031560669" fill="#ffad10" stroke="none" /><path d="M 85.18274418774928 114.88116024355367 l -9.851656180541124 9.894144782586382 a34.96242208495272,34.96242208495272 0 0,0 -0.42281118377329585,-0.42830549689592556 l 10.020507989369953 -9.723098791709793" fill="#ffac0f" stroke="none" /><path d="M 84.43433777217949 114.09645910891817 l -6.271940705354474 5.6799482342980365 a29.46162231228668,29.46162231228668 0 0,0 -0.3371828665600554,-0.378828525031252 l 6.368782421562868 -5.57114553952592" fill="#ff6209" stroke="none" /><path d="M 83.06392112726016 112.41649034213515 l -13.07861003055982 9.588431676140813 a37.21690668220917,37.21690668220917 0 0,0 -0.3743315598358982,-0.519913796648626 l 13.241721382771326 -9.36188427404105" fill="#ffc912" stroke="none" /><path d="M 82.6465618267979 111.8261652097733 l -18.780930794526466 12.798984740232907 a43.72745854444591,43.72745854444591 0 0,0 -0.41852777979593575,-0.6256422442000601 l 18.998461679733133 -12.473805581827026" fill="#e4ff1a" stroke="none" /><path d="M 82.05923443525364 110.91462005526583 l -12.013568397707079 7.3086922682151 a35.06210540132072,35.06210540132072 0 0,0 -0.30924630755280563,-0.5183145992728799 l 12.137595580958116 -7.100815575056108" fill="#ffad10" stroke="none" /><line stroke="#e1ed5e" stroke-width="0.3" x1="26.63291911575756" x2="22.317208475507996" y1="142.92168965132927" y2="145.44649492493687" /><path d="M 25.769776987707644 143.4266507060508 a86.0,86.0 0 0,1 -11.730757126820373,-40.83630448921669" fill="none" id="id69" stroke="none" /><text fill="#e1ed5e" style="font-size:6.75px; font-family:Arial;" text-anchor="middle"><textPath startOffset="21.46611528233685" xlink:href="#id69">September</textPath></text><path d="M 81.87401531095188 110.60418214915194 l -8.44937347570936 4.94310774943837 a30.789087105270774,30.789087105270774 0 0,0 -0.2636836121987396,-0.4597546038263249 l 8.533209084060477 -4.796933299753738" fill="#ff740a" stroke="none" /><path d="M 81.35079622478065 109.6543875284942 l -13.852766690438106 7.171350561840939 a36.59895553748801,36.59895553748801 0 0,0 -0.28481190468426526,-0.5619609080544621 l 13.974157264908637 -6.931835442083792" fill="#ffc112" stroke="none" /><path d="M 80.73074385275274 108.34839909993369 l -16.28368320025759 7.054900569789567 a38.746266103492545,38.746266103492545 0 0,0 -0.25987493157803404,-0.6142675724366898 l 16.40270911302793 -6.773558471686718" fill="#ffdd14" stroke="none" /><path d="M 80.58989483394504 108.01547362559985 l -8.404054543874595 3.4704849339165427 a30.09243633208179,30.09243633208179 0 0,0 -0.19359092757572627,-0.4804768059665312 l 8.46254808570771 -3.325308760107206" fill="#ff6b09" stroke="none" /><path d="M 80.32549172779594 107.34259656027581 l -19.74736298720948 7.369786199396524 a42.07776301160601,42.07776301160601 0 0,0 -0.24740870871928983,-0.680762508583222 l 19.871295956933995 -7.028775893807185" fill="#f8ff18" stroke="none" /><path d="M 80.20201598880116 107.00284435728193 l -8.08927874007337 2.861299410453117 a29.58041169471852,29.58041169471852 0 0,0 -0.16566322094157393,-0.4814948652910182 l 8.13733279195817 -2.721631842072802" fill="#ff6409" stroke="none" /><path d="M 79.76711848015287 105.62410040840567 l -12.029263045068303 3.343754231853926 a33.48534588109144,33.48534588109144 0 0,0 -0.1495868910222006,-0.5566684691829592 l 12.085038012432278 -3.1361948294954276" fill="#ff990e" stroke="none" /><path d="M 79.58551787078972 104.9243191809786 l -18.089796599633623 4.363565620315998 a39.60863901361193,39.60863901361193 0 0,0 -0.15417084463017014,-0.6641639636408958 l 18.162228010194347 -4.051532999326528" fill="#ffe815" stroke="none" /><path d="M 79.29508885075956 103.50808413554451 l -8.35442656385289 1.4155110871508918 a29.473494842664266,29.473494842664266 0 0,0 -0.08044614367728858,-0.500938213470325 l 8.377554461891469 -1.2714936439873532" fill="#ff6209" stroke="none" /><path d="M 79.1416061653843 102.43462659150553 l -15.26018526203458 1.7811943299580875 a36.363785584050966,36.363785584050966 0 0,0 -0.06721706976581364,-0.6223465851952883 l 15.288584633301447 -1.518251422878017" fill="#ffbe11" stroke="none" /><path d="M 79.10278846688536 102.07522291339032 l -8.312678179469629 0.825500579459556 a29.353566287647364,29.353566287647364 0 0,0 -0.045603426230577435,-0.5032300083822107 l 8.325656201977282 -0.6822891825287792" fill="#ff6008" stroke="none" /><path d="M 79.07016306316243 101.71520430193888 l -15.490727701896756 1.2694682177715861 a36.54265724675944,36.54265724675944 0 0,0 -0.04598013142900233,-0.6273623619641953 l 15.510284391990092 -1.0026327193106301" fill="#ffc111" stroke="none" /><path d="M 79.0235259727143 100.99374915477108 l -15.270823809724625 0.7234470499585464 a36.2879506625887,36.2879506625887 0 0,0 -0.024188281546528297,-0.6241920685028833 l 15.281014224122353 -0.4604777344416663" fill="#ffbd11" stroke="none" /><line stroke="#e1ed5e" stroke-width="0.3" x1="15.007084014347285" x2="10.007500721073583" y1="101.09737516637583" y2="101.16192664675087" /><path d="M 14.007167355692545 101.11028546245083 a86.0,86.0 0 0,1 10.666146001902534,-42.60595125391555" fill="none" id="id70" stroke="none" /><text fill="#e1ed5e" style="font-size:6.75px; font-family:Arial;" text-anchor="middle"><textPath startOffset="22.20632615414155" xlink:href="#id70">October</textPath></text><path d="M 79.00175016825051 100.2711162175752 l -25.016768316004857 0.32300080512116486 a46.01885342090587,46.01885342090587 0 0,0 -0.0034091264286127045,-0.7921609207424686 l 25.01862173972297 0.10766959382497915" fill="#c9ff1d" stroke="none" /><path d="M 79.03285615573316 98.82574320788736 l -23.811376090174225 -1.333546920415731 a44.84868924483421,44.84868924483421 0 0,0 0.04980213940077451,-0.7704170535813037 l 23.784893359769036 1.7432230382500467" fill="#d7ff1c" stroke="none" /><path d="M 79.08570108090925 98.10471618934814 l -18.24882750412262 -1.6537349621779973 a39.32360621167002,39.32360621167002 0 0,0 0.06689296392481046,-0.6736030178705221 l 18.217657414515582 1.9676135107529498" fill="#ffe415" stroke="none" /><path d="M 79.16333360222342 97.38593545837743 l -8.37761123973422 -1.0510134427081246 a29.443281313617018,29.443281313617018 0 0,0 0.06741670316306778,-0.5023327449571113 l 8.358278537513318 1.1950645297298954" fill="#ff6209" stroke="none" /><path d="M 79.21141760316559 97.0276538004421 l -15.241819404065804 -2.179271444065449 a36.39682703588879,36.39682703588879 0 0,0 0.0940149221050494,-0.619440870892293 l 15.202048588521453 2.441311427349834" fill="#ffbf11" stroke="none" /><path d="M 79.26566170972629 96.67025291283419 l -18.05595283652292 -2.899622622228461 a39.287297345044706,39.287297345044706 0 0,0 0.1129755596461302,-0.6667881482112273 l 18.003365415356566 3.2099965587555164" fill="#ffe415" stroke="none" /><path d="M 79.32604984820605 96.31383870115002 l -15.35382299688171 -2.7375836598690437 a36.595968867446345,36.595968867446345 0 0,0 0.11591211319216357,-0.619207143576232 l 15.304425159779685 3.0014688809078485" fill="#ffc112" stroke="none" /><path d="M 79.46518482838121 95.60439243477599 l -14.964891403969045 -3.2033300187165272 a36.30389812895385,36.30389812895385 0 0,0 0.1360628836407092,-0.6099432281109194 l 14.907534133326298 3.460451416377406" fill="#ffbe11" stroke="none" /><path d="M 79.62865764111835 94.90015583598534 l -39.25330745299001 -9.826831605189998 a61.46466069789443,61.46466069789443 0 0,0 0.2657722215102747,-1.024128784791406 l 39.07833889960943 10.501056815530267" fill="#31ff3d" stroke="none" /><path d="M 79.81627453868168 94.20196356495316 l -1.5556237338929446 -0.4468730564939914 a22.618536601399953,22.618536601399953 0 0,0 0.11071677040890138,-0.3732819095639538 l 1.5477010663723363 0.4735843528044844" fill="#ff0000" stroke="none" /><path d="M 79.91906864156998 93.8553929516997 l -11.975876942086389 -3.6645241475330836 a33.52399160650667,33.52399160650667 0 0,0 0.17359763092420774,-0.5503519298602596 l 11.911023827393977 3.8701262438197577" fill="#ff990e" stroke="none" /><path d="M 80.02781315780177 93.51064311812611 l -16.16555737977617 -5.252507993272487 a37.99747291859079,37.99747291859079 0 0,0 0.2074710987942576,-0.6203121779749321 l 16.072748987210144 5.529993274169741" fill="#ffd313" stroke="none" /><path d="M 80.2630227832202 92.82701384747504 l -7.926895860832892 -2.8808623335655184 a29.434159458621007,29.434159458621007 0 0,0 0.17715917604195774,-0.4746985137916143 l 7.876132096289307 3.016883984386474" fill="#ff6209" stroke="none" /><path d="M 80.38941819471856 92.48833698450439 l -42.6591970950003 -16.340234893130603 a66.68161964239846,66.68161964239846 0 0,0 0.41979715338384754,-1.0683379658974843 l 42.37160639173476 17.07212186392385" fill="#37ff7a" stroke="none" /><path d="M 80.65960295795068 91.81776055985345 l -14.510190367384597 -6.138749460516163 a36.755312419521495,36.755312419521495 0 0,0 0.2515276122533302,-0.580560408121051 l 14.402372045288587 6.3876090132238135" fill="#ffc312" stroke="none" /><path d="M 80.803312248108 91.48605970444005 l -4.945096311550895 -2.1932041244036204 a26.409632322239222,26.409632322239222 0 0,0 0.18788275613296757,-0.41397474833591524 l 4.906611238454576 2.2780008815816064" fill="#ff3705" stroke="none" /><path d="M 81.10775173730289 90.83032412892265 l -21.35522688667496 -10.365124678716748 a44.737765796020234,44.737765796020234 0 0,0 0.3422225770459973,-0.6898998326200132 l 21.17364429667555 10.731184099835724" fill="#d8ff1c" stroke="none" /><path d="M 81.43458229118936 90.18545643968196 l -30.412434436434722 -16.077427787151414 a55.40057924805205,55.40057924805205 0 0,0 0.4529443216902734,-0.8392370377715113 l 30.13118201552598 16.5985458082554" fill="#61ff29" stroke="none" /><line stroke="#e1ed5e" stroke-width="0.3" x1="26.266209847984243" x2="21.928928074336255" y1="57.711370442889674" y2="55.22380399835377" /><path d="M 25.398753493254645 57.213857153982495 a86.0,86.0 0 0,1 29.58750427330803,-30.492523968695096" fill="none" id="id71" stroke="none" /><text fill="#e1ed5e" style="font-size:6.75px; font-family:Arial;" text-anchor="middle"><textPath startOffset="21.46611528233685" xlink:href="#id71">November</textPath></text><path d="M 81.96595687620814 89.24020034530311 l -6.025352088128333 -3.594955433578827 a28.016307601247995,28.016307601247995 0 0,0 0.25065817088706055,-0.41201612680995164 l 5.962578118955055 3.698139333595853" fill="#ff4e07" stroke="none" /><path d="M 82.15384107792192 88.93136811851018 l -11.784708706433566 -7.309169613004442 a34.86734724910134,34.86734724910134 0 0,0 0.3207337752683632,-0.5073238080918187 l 11.65714733491924 7.510941068810475" fill="#ffab0f" stroke="none" /><path d="M 82.34701348167596 88.62581576622439 l -13.261212225686837 -8.544473246019317 a36.7755435008321,36.7755435008321 0 0,0 0.34744721748125035,-0.5291859492073795 l 13.112168372847666 8.771477259204364" fill="#ffc412" stroke="none" /><path d="M 82.7489923806493 88.02491185347247 l -36.786264093932104 -25.535827519555497 a65.78066226728906,65.78066226728906 0 0,0 0.6536949560060206,-0.9246051567585015 l 36.34125651812221 26.165259176645787" fill="#36ff70" stroke="none" /><path d="M 82.95767976084542 87.72973835380427 l -12.46705411299078 -8.976126124670577 a36.36223546435329,36.36223546435329 0 0,0 0.3700937719673801,-0.5048074890437644 l 12.310697728509767 9.189396057385842" fill="#ffbe11" stroke="none" /><path d="M 83.6137871275137 86.86637796730984 l -14.333785077404565 -11.488592084662818 a39.369679984501715,39.369679984501715 0 0,0 0.4283824401394528,-0.5251462191010839 l 14.13390414518872 11.733622473371984" fill="#ffe515" stroke="none" /><path d="M 84.07557802195018 86.31012108654704 l -11.715367047223209 -10.07144601695514 a36.44939642586742,36.44939642586742 0 0,0 0.41310728176348166,-0.47225303587002715 l 11.540267901881883 10.271614609028111" fill="#ffc011" stroke="none" /><path d="M 84.80347519578584 85.50635884689758 l -8.268795191099079 -7.8863392658731195 a32.42660583589,32.42660583589 0 0,0 0.38871121408126325,-0.4006010747911037 l 8.131819713314696 8.027504536214346" fill="#ff8a0c" stroke="none" /><path d="M 85.57189188830299 84.74124197986013 l -7.742170550991326 -8.187900040231579 a32.26866948266128,32.26866948266128 0 0,0 0.40688044187801076,-0.378151027293139 l 7.6000822253184595 8.319955653599367" fill="#ff880c" stroke="none" /><path d="M 86.10567301691215 84.25364557470407 l -9.204970871481931 -10.431936285457097 a34.91246863100389,34.91246863100389 0 0,0 0.4540386517941501,-0.39373784466471434 l 9.024038421041007 10.588839123541492" fill="#ffac0f" stroke="none" /><path d="M 86.37877921826538 84.01681056812374 l -4.589698473691872 -5.3855686884232865 a28.07599337034277,28.07599337034277 0 0,0 0.37052618833221346,-0.31030502696550255 l 4.496314748400548 5.463774872782601" fill="#ff4f07" stroke="none" /><path d="M 86.93701828274178 83.55741782278169 l -6.408648664785891 -8.066667671780175 a31.302519353808822,31.302519353808822 0 0,0 0.42477137892035843,-0.3315407988593064 l 6.268844730706107 8.175786859862702" fill="#ff7b0b" stroke="none" /><path d="M 87.22198572758235 83.33499621200491 l -7.317549250481815 -9.543500529761673 a33.0260105352851,33.0260105352851 0 0,0 0.4541136937180718,-0.3420290193442566 l 7.152189403005353 9.668046138611782" fill="#ff920d" stroke="none" /><path d="M 87.80319425747018 82.90503203632743 l -2.4663426014368186 -3.4568106313266695 a25.246455647774415,25.246455647774415 0 0,0 0.3559375882470588,-0.24935702703982285 l 2.4064738736060995 3.498752501130435" fill="#ff2603" stroke="none" /><path d="M 88.09926311788651 82.69761687909137 l -35.70221064634046 -51.907149362725875 a84.0,84.0 0 0,0 1.198381222373842,-0.8091523508053382 l 34.80342472956008 52.51401362582988" fill="#4dd2ff" stroke="none" /><line stroke="#e1ed5e" stroke-width="0.3" x1="56.762969772571076" x2="54.21961505331055" y1="26.818313649435495" y2="22.513508569990535" /><path d="M 56.25429882871897 25.957352633546506 a86.0,86.0 0 0,1 42.265352541879196,-11.944610805530505" fill="none" id="id72" stroke="none" /><text fill="#e1ed5e" style="font-size:6.75px; font-family:Arial;" text-anchor="middle"><textPath startOffset="22.20632615414155" xlink:href="#id72">December</textPath></text></svg>