<?xml version="1.0" encoding="utf-8" ?>
<svg baseProfile="full" height="200mm" version="1.1" viewBox="0,0,200,200" width="200mm" xmlns="http://www.w3.org/2000/svg" xmlns:ev="http://www.w3.org/2001/xml-events" xmlns:xlink="http://www.w3.org/1999/xlink"><defs /><rect fill="#1a1a1a" height="200" width="200" x="0" y="0" /><text alignment-baseline="middle" fill="#e1ed5e" style="dominant-baseline: central; font-size:9.0px; font-family:Arial;" text-anchor="middle" x="100.0" y="100.0">2024</text><line stroke="#e1ed5e" stroke-width="0.3" x1="100.0" x2="100.0" y1="15.0" y2="10.0" /><path d="M 100.0 14.0 a86.0,86.0 0 0,1 42.35913384403234,11.155469271406648" fill="none" id="id85" stroke="none" /><text fill="#e1ed5e" style="font-size:6.75px; font-family:Arial;" text-anchor="middle"><textPath startOffset="22.145653131862478" xlink:href="#id85">January</textPath></text><path d="M 100.0 79.0 l 0.0 -30.664122555671327 a51.66412255567133,51.66412255567133 0 0,0 0.8868833642782689,0.007612827026349205 l -0.5263904394294141 30.65960412683941" fill="#88ff25" stroke="none" /><path d="M 100.72087961077811 79.0123766808444 l 0.6605651867038245 -19.231634671041913 a40.242975822005974,40.242975822005974 0 0,0 0.6902134860880923,0.029640736898467523 l -0.990604433392753 19.217461365717615" fill="#fff116" stroke="none" /><path d="M 101.80034050326958 79.07731436759882 l 2.268446536768447 -26.362787304135047 a47.4602041589486,47.4602041589486 0 0,0 0.8111184759277655,0.07681376298705916 l -2.7206645760812256 26.319961785642803" fill="#b7ff1f" stroke="none" /><path d="M 102.15924093988457 79.11130261209362 l 2.78388046664739 -26.931518182037458 a48.07501915127661,48.07501915127661 0 0,0 0.8201692091312641,0.09190167059241956 l -3.2457855773794506 26.87976075093807" fill="#b0ff20" stroke="none" /><path d="M 102.87502721639298 79.19773525538626 l 2.6944693644873263 -19.495838073017747 a40.68115513188921,40.68115513188921 0 0,0 0.6909498433535282,0.10154583280834734 l -3.0287443134485366 19.446711166910518" fill="#fff617" stroke="none" /><path d="M 103.58742460773223 79.30868818359171 l 3.008705775016839 -17.35341537785107 a38.612306371309174,38.612306371309174 0 0,0 0.6521163774947007,0.11883732711901261 l -3.3061568860625936 17.299209876800692" fill="#ffdc14" stroke="none" /><path d="M 104.29559338865022 79.4440306129975 l 7.416925955496365 -35.492675654469956 a57.25935487212534,57.25935487212534 0 0,0 0.9604236564811829,0.20931986579700043 l -8.02511202859668 35.360124330539236" fill="#4eff2c" stroke="none" /><path d="M 104.9986988182912 79.60360301121754 l 1.92329034740956 -7.847680941871359 a29.079922148501787,29.079922148501787 0 0,0 0.48382718438591144,0.12298697827941195 l -2.057722825020866 7.81350873175668" fill="#ff5e08" stroke="none" /><path d="M 105.3480935250658 79.69241777938227 l 4.41478800142618 -16.763669129076355 a38.33525182299594,38.33525182299594 0 0,0 0.6349387420900101,0.17305537760380443 l -4.701908144450882 16.68541325732841" fill="#ffd914" stroke="none" /><path d="M 105.69591212413111 79.78721728523813 l 0.9928976094271321 -3.5234433397124434 a24.660669150711396,24.660669150711396 0 0,0 0.40647827211850435,0.11831990093588533 l -1.053235893927241 3.505879744474042" fill="#ff2003" stroke="none" /><path d="M 106.72888874123014 80.10723608172694 l 10.331874051613449 -30.54434977988713 a53.24445572334094,53.24445572334094 0 0,0 0.8633061830667704,0.30030270442403745 l -10.854686006725236 30.362488642894505" fill="#77ff26" stroke="none" /><path d="M 107.06938296918511 80.22567764915836 l 3.9306610327850433 -10.994758475101122 a32.67624982948133,32.67624982948133 0 0,0 0.5265713059788829,0.19336427732802575 l -4.118821490418051 10.925663348764376" fill="#ff8f0d" stroke="none" /><path d="M 108.4095320186766 80.7573450057729 l 9.717054417576515 -22.234522123501055 a45.26510087789872,45.26510087789872 0 0,0 0.7093399055859168,0.31727871732922996 l -10.097307726018064 22.06443965526197" fill="#d1ff1d" stroke="none" /><path d="M 109.06512990194946 81.05736502329252 l 12.653752760812155 -26.44147653990294 a50.31329289830808,50.31329289830808 0 0,0 0.775878296713938,0.37952095468005226 l -13.10579130678816 26.220361835125665" fill="#97ff23" stroke="none" /><line stroke="#e1ed5e" stroke-width="0.3" x1="143.13028292997686" x2="145.6673583964461" y1="26.7553504044142" y2="22.446841604673864" /><path d="M 143.63769802327073 25.89364864446614 a86.0,86.0 0 0,1 29.32050498858742,28.57503671076993" fill="none" id="id86" stroke="none" /><text fill="#e1ed5e" style="font-size:6.75px; font-family:Arial;" text-anchor="middle"><textPath startOffset="20.669276256404974" xlink:href="#id86">February</textPath></text><path d="M 112.7482090630111 83.31218511350987 l 7.921412676996449 -10.369383474951395 a34.048865561797896,34.048865561797896 0 0,0 0.4614270731114195,0.3588084829681402 l -8.098249694743094 10.231873940362464" fill="#ffa20e" stroke="none" /><path d="M 113.59037401385872 83.9905735841838 l 21.994345078736416 -25.90928319875745 a54.98591136509292,54.98591136509292 0 0,0 0.7143469021113288,0.6170358402361421 l -22.435871460610606 25.52790322605659" fill="#65ff29" stroke="none" /><path d="M 113.86319453409587 84.22622945171908 l 14.50728096101724 -16.506622668802823 a42.97566364895788,42.97566364895788 0 0,0 0.5499554199023966,0.4917735276701244 l -14.788501407743013 16.255153611249312" fill="#ecff1a" stroke="none" /><path d="M 114.91283532996326 85.21462403516908 l 23.079313465442333 -22.882055561300866 a53.49989502670136,53.49989502670136 0 0,0 0.6410133202744811,0.6577361367929598 l -23.468713586867626 22.482496732440165" fill="#75ff27" stroke="none" /><path d="M 115.16444852881244 85.47280134310134 l 12.767009076497954 -12.230505893855844 a38.679982895326106,38.679982895326106 0 0,0 0.455215815417195,0.4834234209561525 l -12.975080725651411 12.009541012955195" fill="#ffdd14" stroke="none" /><path d="M 115.41159269507618 85.73525988315684 l 17.246370889779335 -15.962983422212432 a44.5000882680397,44.5000882680397 0 0,0 0.5140868441221821,0.5650714964501463 l -17.517855434743396 15.664574350204614" fill="#daff1c" stroke="none" /><path d="M 116.35404254752997 86.82634096563983 l 2.7167162306932218 -2.1883942891948798 a24.488497763091264,24.488497763091264 0 0,0 0.26089995298869517,0.3296385676721864 l -2.7538826143234765 2.1414357776080153" fill="#ff1d03" stroke="none" /><path d="M 116.57777611688842 87.10902102172516 l 1.205265171627931 -0.9372214874390965 a22.526777079490277,22.526777079490277 0 0,0 0.23475907716317962,0.30730716787421936 l -1.2211762261454173 0.9163934063239952" fill="#ff0100" stroke="none" /><path d="M 117.21940702142032 87.97951657250589 l 1.304407053629805 -0.9105774287905869 a22.590795089061462,22.590795089061462 0 0,0 0.21924932822155618,0.31989132222080974 l -1.319846118666686 0.8880513714997285" fill="#ff0100" stroke="none" /><line stroke="#e1ed5e" stroke-width="0.3" x1="172.87174338648825" x2="177.1583165268699" y1="56.24261187166439" y2="53.66864786411523" /><path d="M 173.72905801456457 55.72781907015455 a86.0,86.0 0 0,1 12.242430191666344,42.057860355516425" fill="none" id="id87" stroke="none" /><text fill="#e1ed5e" style="font-size:6.75px; font-family:Arial;" text-anchor="middle"><textPath startOffset="22.145653131862474" xlink:href="#id87">March</textPath></text><path d="M 118.00360718960297 89.18935116829356 l 10.071157763476357 -6.04744086910163 a32.747329899262674,32.747329899262674 0 0,0 0.2852546457918404,0.48442475117673506 l -10.173486119397966 5.873664949631338" fill="#ff900d" stroke="none" /><path d="M 118.18653347947321 89.5 l 14.473554306649131 -8.356310475074546 a37.71262095014909,37.71262095014909 0 0,0 0.3188811046829682,0.5634323573774972 l -14.614868776353475 8.10662134759793" fill="#ffd113" stroke="none" /><path d="M 118.36410011445183 89.81374322990088 l 27.07855937272497 -15.020020421141348 a51.965293332272736,51.965293332272736 0 0,0 0.42600318598826903,0.7837978804796102 l -27.33240790832858 14.552967707187134" fill="#85ff25" stroke="none" /><path d="M 118.70294669586156 90.45014215332178 l 9.49323556764724 -4.847313722822145 a31.659173132579397,31.659173132579397 0 0,0 0.24299182253113294,0.4861464188311114 l -9.57504730339011 4.683635447827283" fill="#ff820b" stroke="none" /><path d="M 118.8641267826498 90.77261029715802 l 14.777170094507968 -7.228254386660438 a37.45030144040821,37.45030144040821 0 0,0 0.27752589046577636,0.5799223724911426 l -14.899075242933655 6.9735195121041915" fill="#ffce13" stroke="none" /><path d="M 119.4528033332814 92.08871423366111 l 28.971294704480233 -11.782373342346489 a52.2755533673232,52.2755533673232 0 0,0 0.33093244435862007,0.8341659408565707 l -29.169285823804977 11.283306384276353" fill="#82ff25" stroke="none" /><path d="M 119.71291397450082 92.76114493625339 l 7.292983341894152 -2.6780845014886734 a28.769153275760456,28.769153275760456 0 0,0 0.16625807378695345,0.465053422459053 l -7.337881585725048 2.5524961226487033" fill="#ff5a08" stroke="none" /><path d="M 119.83427380445688 93.10060997987247 l 16.659345768011786 -5.794985239532525 a38.63847089020395,38.63847089020395 0 0,0 0.21253841314144556,0.6283320528515951 l -16.756369602725595 5.5081515122067675" fill="#ffdd14" stroke="none" /><path d="M 120.05942366710727 93.78553927170692 l 13.814408758514281 -4.2797391460028456 a35.46215946894326,35.46215946894326 0 0,0 0.17515550860652418,0.5830357219092984 l -13.885840587124433 4.041965820502823" fill="#ffb410" stroke="none" /><path d="M 120.16314734710363 94.1308016681162 l 23.214661436099384 -6.757449609947611 a45.1781643394138,45.1781643394138 0 0,0 0.2103613825909631,0.7464983351611453 l -23.32724131076493 6.357943350883452" fill="#d2ff1c" stroke="none" /><path d="M 120.26092885502905 94.47779374421319 l 24.231418853989894 -6.6043809609883555 a46.115324157879435,46.115324157879435 0 0,0 0.20161294541871788,0.765557192790706 l -24.34122128021334 6.187443263824851" fill="#c7ff1e" stroke="none" /><path d="M 120.43855184770803 95.1765574152323 l 15.46315381124067 -3.6492621954678888 a36.88792750365377,36.88792750365377 0 0,0 0.1401550454495141,0.61754899059195 l -15.523519718247849 3.3832788709369126" fill="#ffc612" stroke="none" /><path d="M 120.51834098615036 95.52812308129327 l 7.169220206046884 -1.5624981759581347 a28.337514491478938,28.337514491478938 0 0,0 0.09950824705473028,0.4761829845478269 l -7.194986163925981 1.4391987401249033" fill="#ff5407" stroke="none" /><path d="M 120.592083275326 95.88100663000786 l 16.43530524978807 -3.287521347526324 a37.76087871396224,37.76087871396224 0 0,0 0.12168660329798112,0.6367157283191497 l -16.489318145368205 3.0049030541738597" fill="#ffd213" stroke="none" /><path d="M 120.65975698304385 96.23510406497455 l 21.42246276609199 -3.903886335763229 a42.77526669152772,42.77526669152772 0 0,0 0.12544393361981357,0.7235272736909693 l -21.48632151720404 3.535566029151667" fill="#eeff19" stroke="none" /><path d="M 120.77682067341334 96.94652285012252 l 44.230824137869966 -6.500407976185672 a65.70594040809385,65.70594040809385 0 0,0 0.15442611685885085,1.1173504543066073 l -44.33589477128403 5.740169213678979" fill="#36ff6f" stroke="none" /><path d="M 120.86939407059847 97.66154086499901 l 19.054668269296332 -2.1351153238092837 a40.173917187129334,40.173917187129334 0 0,0 0.07091195213174095,0.6860088107373618 l -19.08851261390974 1.8077019907889904" fill="#fff016" stroke="none" /><path d="M 120.93736805541906 98.37931529534042 l 10.977061333432756 -0.8496939709955562 a32.0098980632107,32.0098980632107 0 0,0 0.03770467055208837,0.5482176347896748 l -10.99002996514991 0.6611329120515472" fill="#ff860c" stroke="none" /><path d="M 120.96210409425399 98.7389718711861 l 22.50439567120168 -1.3538085602352452 a43.54507977683306,43.54507977683306 0 0,0 0.038482260364036326,0.7465455704438286 l -22.52431952102229 0.9672911964146859" fill="#e5ff1a" stroke="none" /><path d="M 120.99303781780057 99.45929381324524 l 31.73676757778656 -0.817426554738851 a52.74729283669454,52.74729283669454 0 0,0 0.015544296652622741,0.9053773512985391 l -31.74612330603785 0.27250228747124544" fill="#7dff26" stroke="none" /><line stroke="#e1ed5e" stroke-width="0.3" x1="184.99686870605535" x2="189.99668451229388" y1="99.2704041080226" y2="99.22748670261217" /><path d="M 185.99683186730306 99.26182062694052 a86.0,86.0 0 0,1 -10.086455211305974,41.156179273409016" fill="none" id="id88" stroke="none" /><text fill="#e1ed5e" style="font-size:6.75px; font-family:Arial;" text-anchor="middle"><textPath startOffset="21.40746469413373" xlink:href="#id88">April</textPath></text><path d="M 120.99303781780057 100.54070618675476 l 22.465025402566823 0.5786193654389002 a43.472475758314516,43.472475758314516 0 0,0 -0.025618356882436917,0.7458505085528229 l -22.45178235868754 -0.9641761385558338" fill="#e6ff1a" stroke="none" /><path d="M 120.96210409425399 101.26102812881392 l 30.93929095192036 1.8612309146305601 a51.995223908292026,51.995223908292026 0 0,0 -0.061245517991742666,0.8904963900564059 l -30.902781472763554 -2.3920707288413094" fill="#85ff25" stroke="none" /><path d="M 120.93736805541906 101.62068470465957 l 22.1109767987029 1.7115294438101798 a43.17711947097294,43.17711947097294 0 0,0 -0.06354515929498152,0.7384910737581034 l -22.078338016710177 -2.0908415649439407" fill="#e9ff1a" stroke="none" /><path d="M 120.82617615685814 102.69636545807757 l 11.656404333063081 1.5091549102597528 a32.75369348413565,32.75369348413565 0 0,0 -0.07697973221485603,0.5569869948959778 l -11.628780084293014 -1.7090302133558155" fill="#ff900d" stroke="none" /><path d="M 120.7213421655516 103.40968896794604 l 17.88705622514161 2.943308295023865 a39.12759896182982,39.12759896182982 0 0,0 -0.11474668205499773,0.6618283693491009 l -17.833894725594376 -3.249929697293554" fill="#ffe315" stroke="none" /><path d="M 120.51834098615036 104.47187691870673 l 60.847646077260386 13.261461257233366 a83.27601775820804,83.27601775820804 0 0,0 -0.3164057957064803,1.3941423166700315 l -60.61102941999624 -14.304037907842414" fill="#4cd9ff" stroke="none" /><path d="M 120.16314734710363 105.8691983318838 l 11.078549185053204 3.224804207263161 a32.538354051632545,32.538354051632545 0 0,0 -0.1607141820600064,0.534965242622864 l -11.021558682989566 -3.4145070534767488" fill="#ff8d0d" stroke="none" /><path d="M 120.05942366710727 106.21446072829308 l 9.998338760978157 3.097510906066298 a31.467155859758556,31.467155859758556 0 0,0 -0.16428145601743094,0.5146093211381297 l -9.94369258918347 -3.268689260895812" fill="#ff7f0b" stroke="none" /><path d="M 119.83427380445688 106.89939002012753 l 29.897003319203844 10.399729698492123 a52.65414957426885,52.65414957426885 0 0,0 -0.30429041137209745,0.8511544372359362 l -29.714072737787806 -10.91141909210898" fill="#7eff26" stroke="none" /><path d="M 119.58574465831526 107.57618678355244 l 18.179829170239046 7.032348470259999 a40.49256559989584,40.49256559989584 0 0,0 -0.25633977737482294,0.6461436925208629 l -18.0564307178981 -7.343393179994426" fill="#fff417" stroke="none" /><path d="M 119.31412917781788 108.2440532568976 l 13.48681326286504 5.756718606427702 a35.66403563487839,35.66403563487839 0 0,0 -0.2451751607721902,0.5610087483364878 l -13.386004220075883 -5.9873894245400345" fill="#ffb710" stroke="none" /><path d="M 119.16976305983485 108.57439118712176 l 16.011945246539426 7.1619394450557525 a38.540688903028354,38.540688903028354 0 0,0 -0.2753191462210762,0.6016220216880367 l -15.886641635463294 -7.435750448958478" fill="#ffdb14" stroke="none" /><path d="M 119.0197475246899 108.90220220490707 l 1.380712865305388 0.6462433372424898 a22.52446661732887,22.52446661732887 0 0,0 -0.16691781947837667,0.34879404483844173 l -1.3694157878670994 -0.6698498841460352" fill="#ff0100" stroke="none" /><path d="M 118.8641267826498 109.22738970284198 l 23.715822672397305 11.600597284098914 a47.40102464633593,47.40102464633593 0 0,0 -0.3638143460166305,0.7278724016019279 l -23.51318841316894 -12.006001541864588" fill="#b8ff1f" stroke="none" /><line stroke="#e1ed5e" stroke-width="0.3" x1="174.33088141563837" x2="178.70328620479359" y1="141.23008692659167" y2="143.65538615756765" /><path d="M 175.20536237346943 141.71514677278685 a86.0,86.0 0 0,1 -30.301960400862466,31.631185727798858" fill="none" id="id89" stroke="none" /><text fill="#e1ed5e" style="font-size:6.75px; font-family:Arial;" text-anchor="middle"><textPath startOffset="22.145653131862474" xlink:href="#id89">May</textPath></text><path d="M 118.36410011445183 110.18625677009912 l 23.721105991721654 13.15769762724505 a48.12592627580675,48.12592627580675 0 0,0 -0.4069313706678207,0.7190087405591956 l -23.491741256032455 -13.562963137903369" fill="#b0ff20" stroke="none" /><path d="M 118.18653347947321 110.5 l 16.651810604147755 9.613927334799367 a40.22785466959874,40.22785466959874 0 0,0 -0.3504158192451758,0.5950826692937013 l -16.484321074772815 -9.898361172386617" fill="#fff116" stroke="none" /><path d="M 118.00360718960297 110.81064883170644 l 12.577904759044545 7.552670415249069 a35.67128210242629,35.67128210242629 0 0,0 -0.3197370495535806,0.522266441273641 l -12.44639974503556 -7.7674739726472675" fill="#ffb711" stroke="none" /><path d="M 117.81537515405839 111.11811171558189 l 21.155838615855302 13.202807975352599 a45.937595031882054,45.937595031882054 0 0,0 -0.4232434251392186,0.6654089631832142 l -20.92607749909019 -13.564030613214484" fill="#c9ff1d" stroke="none" /><path d="M 117.21940702142032 112.02048342749411 l 11.250510268748831 7.853729926246487 a34.72060694946264,34.72060694946264 0 0,0 -0.3453624076961175,0.4857954773438277 l -11.114032762522752 -8.045702630299818" fill="#ffaa0f" stroke="none" /><path d="M 116.57777611688842 112.89097897827486 l 15.741765329194417 12.24089193319796 a40.94097818562716,40.94097818562716 0 0,0 -0.43618434202363454,0.551104667128611 l -15.52931455652922 -12.509316544241253" fill="#fff917" stroke="none" /><path d="M 116.1254893667686 113.45245675266167 l 34.94243194564516 29.1502194997144 a66.50504199709712,66.50504199709712 0 0,0 -0.7388565643862107,0.8703711750185507 l -34.436880817751835 -29.74575745718251" fill="#37ff79" stroke="none" /><path d="M 115.6541949942343 113.99807769240083 l 11.119771868548456 9.943368572772018 a35.917101091785625,35.917101091785625 0 0,0 -0.41493196685532474,0.45608291695598807 l -10.94744220085125 -10.132789065285678" fill="#ffba11" stroke="none" /><path d="M 115.16444852881244 114.52719865689866 l 13.915542261463754 13.330774704181335 a40.27049222630872,40.27049222630872 0 0,0 -0.4825041603949091,0.4950917748616903 l -13.684651299918038 -13.567689171110764" fill="#fff116" stroke="none" /><path d="M 114.91283532996324 114.78537596483092 l 16.68572480460255 16.54311262902959 a44.4965526771841,44.4965526771841 0 0,0 -0.5424512862724654,0.5378149783515562 l -16.399281598200123 -16.82710761760981" fill="#daff1c" stroke="none" /><path d="M 114.39649973595853 115.28858382429668 l 18.110808445278117 19.233050958200803 a47.41801717961259,47.41801717961259 0 0,0 -0.5973997928118253,0.552944329565575 l -17.777978881152325 -19.541113033898757" fill="#b8ff1f" stroke="none" /><path d="M 114.13192950727249 115.5334660781643 l 14.963599704694614 16.447617312306004 a43.235859132815285,43.235859132815285 0 0,0 -0.5532851163964442,0.4947509628070334 l -14.679049561474791 -16.702063804996424" fill="#e9ff1a" stroke="none" /><path d="M 113.86319453409587 115.77377054828091 l 9.685443945872581 11.020257277980578 a35.67153348840958,35.67153348840958 0 0,0 -0.46342506304593434,0.4002955319297636 l -9.494839403063791 -11.18489694237506" fill="#ffb711" stroke="none" /><path d="M 113.59037401385872 116.0094264158162 l 5.167473330896093 6.0872705903687265 a28.984838374437544,28.984838374437544 0 0,0 -0.3820831991530252,0.3187473939933345 l -5.062215797581173 -6.175080168273931" fill="#ff5d08" stroke="none" /><path d="M 113.03279911837588 116.46651593811092 l 9.342030404985035 11.803350236643027 a36.05299335336749,36.05299335336749 0 0,0 -0.4885868273571674,0.3799280721439409 l -9.138033632992636 -11.96197936040776" fill="#ffbc11" stroke="none" /><path d="M 112.7482090630111 116.68781488649013 l 1.9299778778363699 2.52640299520999 a24.17923366601824,24.17923366601824 0 0,0 -0.33200046466783495,0.24913933812684316 l -1.8863244242577686 -2.5591613606008483" fill="#ff1902" stroke="none" /><path d="M 112.45986205192187 116.90419585922612 l 19.147890784550512 25.977791308145875 a53.272083334465,53.272083334465 0 0,0 -0.7407838071716312,0.5362703487740504 l -18.69912596700491 -26.302662428293" fill="#77ff27" stroke="none" /><path d="M 111.8722381534696 117.32195027204791 l 12.630228680187958 18.42788110335134 a43.34075823406842,43.34075823406842 0 0,0 -0.6173038887857253,0.4153496057722752 l -12.31202850330523 -18.641980383180734" fill="#e7ff1a" stroke="none" /><path d="M 111.5731344415666 117.5232005979908 l 8.152453454339588 12.34385360054952 a35.79301250715935,35.79301250715935 0 0,0 -0.5156143118200122,0.3342149674463488 l -7.939353510262565 -12.481982409699764" fill="#ffb811" stroke="none" /><path d="M 110.96478420261333 117.91015095944535 l 6.138330736661631 10.026501944872813 a32.75626834855275,32.75626834855275 0 0,0 -0.4820899792358137,0.2894811809609362 l -5.965308000868381 -10.130397126369672" fill="#ff900d" stroke="none" /><line stroke="#e1ed5e" stroke-width="0.3" x1="143.1302829299769" x2="145.66735839644613" y1="173.24464959558577" y2="177.55315839532614" /><path d="M 143.63769802327073 174.10635135553383 a86.0,86.0 0 0,1 -40.68552437913181,11.842963189579606" fill="none" id="id90" stroke="none" /><text fill="#e1ed5e" style="font-size:6.75px; font-family:Arial;" text-anchor="middle"><textPath startOffset="21.407464694133747" xlink:href="#id90">June</textPath></text><path d="M 110.65571695917076 118.09573695890943 l 16.053048254881375 27.261585468353104 a52.63691515495579,52.63691515495579 0 0,0 -0.7825543514271588,0.4518079654519848 l -15.582701435593819 -27.533140331081263" fill="#7eff26" stroke="none" /><path d="M 110.34350942703117 118.27599006163325 l 11.502022984600169 20.322972511232642 a44.35208222901307,44.35208222901307 0 0,0 -0.6658215090511986,0.36931996732652345 l -11.151457287392876 -20.51742539399231" fill="#dbff1b" stroke="none" /><path d="M 109.71004243097381 118.62028667847754 l 10.411356775221252 19.96514940533447 a43.51673912177944,43.51673912177944 0 0,0 -0.6653352538949985,0.33972492134015914 l -10.06709429961267 -20.140932278347464" fill="#e5ff1a" stroke="none" /><path d="M 109.3889696526874 118.78422872680471 l 1.9533858687722372 3.9080802588624075 a25.369074005098692,25.369074005098692 0 0,0 -0.39121498106015595,0.1913628512692236 l -1.8860106384500117 -3.9410368602288544" fill="#ff2a04" stroke="none" /><path d="M 109.06512990194946 118.94263497670748 l 11.002101870287545 22.990161416284753 a46.48712944823353,46.48712944823353 0 0,0 -0.7227891630745004,0.3383018240832129 l -10.605823993341538 -23.1756394719385" fill="#c2ff1e" stroke="none" /><path d="M 108.4095320186766 119.2426549942271 l 12.88924545603466 29.49311601353718 a53.18658945296742,53.18658945296742 0 0,0 -0.8397527397102038,0.35844050979774605 l -12.381057641154024 -29.71003117299433" fill="#78ff26" stroke="none" /><path d="M 107.74402155503746 119.51999308798841 l 12.62708192045271 31.828495059955674 a55.24173324479131,55.24173324479131 0 0,0 -0.8844668088015316,0.3421307621555277 l -12.078842849157649 -32.04056571024925" fill="#62ff29" stroke="none" /><path d="M 107.407793817531 119.65005319985036 l 6.79840391090767 18.033574072655746 a40.27246973197276,40.27246973197276 0 0,0 -0.6489828879514473,0.23831550580543812 l -6.487831871302095 -18.147620427469906" fill="#fff116" stroke="none" /><path d="M 107.06938296918513 119.77432235084164 l 5.94631441612801 16.632899727813978 a38.66386165284834,38.66386165284834 0 0,0 -0.6268962725354611,0.2180670655768822 l -5.659912371547527 -16.73252522595945" fill="#ffdd14" stroke="none" /><path d="M 106.38641147887787 120.00534299687104 l 5.19588573795211 16.27603806990307 a38.08527564468271,38.08527564468271 0 0,0 -0.6245248294244132,0.19347938857615496 l -4.9157202756560725 -16.36283404628587" fill="#ffd614" stroke="none" /><path d="M 106.0420521117495 120.11202640906438 l 5.908858307255306 19.66866755284039 a41.53706624129592,41.53706624129592 0 0,0 -0.684649504498407,0.19929149257069334 l -5.5703487903752915 -19.767202739713603" fill="#fdff18" stroke="none" /><path d="M 105.69591212413111 120.21278271476187 l 6.244615557599923 22.15993762759171 a44.02298979544086,44.02298979544086 0 0,0 -0.7291435541579263,0.1987313180431081 l -5.863290602507302 -22.263869439778958" fill="#dfff1b" stroke="none" /><path d="M 105.3480935250658 120.30758222061773 l 0.8467096466790257 3.215094441848403 a24.324717957328684,24.324717957328684 0 0,0 -0.4047108427655127,0.10287591362155198 l -0.7913935106881157 -3.229155587305225" fill="#ff1b02" stroke="none" /><path d="M 104.9986988182912 120.39639698878246 l 4.245027465708224 17.321160679264214 a38.83375634748624,38.83375634748624 0 0,0 -0.6488341167539426,0.15312308487022586 l -3.947061195214402 -17.391479907780663" fill="#ffdf14" stroke="none" /><path d="M 104.64783097203109 120.47920084513623 l 3.3031100032321943 14.554112138938244 a35.924232504428566,35.924232504428566 0 0,0 -0.6025649924843908,0.13132623557286885 l -3.0527825941286677 -14.608669832644832" fill="#ffba11" stroke="none" /><path d="M 104.29559338865022 120.5559693870025 l 1.7892755428061062 8.562331197365008 a29.74728657936015,29.74728657936015 0 0,0 -0.500750969129598,0.10016421817472951 l -1.6420280881455496 -8.591784812202599" fill="#ff6709" stroke="none" /><path d="M 103.58742460773223 120.69131181640829 l 1.3476433124880294 7.772848504156908 a28.888809565851364,28.888809565851364 0 0,0 -0.4893523558375685,0.0805227439326584 l -1.2140134535973885 -7.794837246585238" fill="#ff5c08" stroke="none" /><path d="M 103.2317021107853 120.74984581791261 l 2.2209873475270587 14.260331999944906 a35.43225046714919,35.43225046714919 0 0,0 -0.6017997234977368,0.08844383524253012 l -1.9758625184216365 -14.296356908486318" fill="#ffb410" stroke="none" /><path d="M 102.51750503828377 120.84855314841334 l 2.310717080488707 19.136052214758333 a40.27505921630384,40.27505921630384 0 0,0 -0.6871003703858816,0.07699102965596342 l -1.981880808502026 -19.172899004921266" fill="#fff116" stroke="none" /><path d="M 101.80034050326958 120.92268563240118 l 1.5105015042253513 17.55431712100066 a38.61918455488006,38.61918455488006 0 0,0 -0.6609967774057727,0.051165331006995156 l -1.208935732044343 -17.57766021900271" fill="#ffdc14" stroke="none" /><path d="M 101.08105385017728 120.97215588758144 l 1.5888702140883222 30.82365768322339 a51.864581343827645,51.864581343827645 0 0,0 -0.8895374351080727,0.038200564907551436 l -1.05950701837942 -30.846390816556774" fill="#86ff25" stroke="none" /><path d="M 100.72087961077811 120.9876233191556 l 0.6501587654350572 18.9286630702034 a39.93982555478149,39.93982555478149 0 0,0 -0.6854181603943008,0.017653940466160645 l -0.3251272909700126 -18.937034728019604" fill="#ffed16" stroke="none" /><line stroke="#e1ed5e" stroke-width="0.3" x1="101.45913802915013" x2="101.54496967792366" y1="184.9874750549273" y2="189.98673829345242" /><path d="M 101.47630435890484 185.9873277026323 a86.0,86.0 0 0,1 -42.54439059252881,-10.42667462771756" fill="none" id="id91" stroke="none" /><text fill="#e1ed5e" style="font-size:6.75px; font-family:Arial;" text-anchor="middle"><textPath startOffset="22.145653131862474" xlink:href="#id91">July</textPath></text><path d="M 99.63950707515114 120.99690560180557 l -0.418068348419532 24.35038538009655 a45.35397399405629,45.35397399405629 0 0,0 -0.7783318276876006,-0.02004706694816327 l 0.8360134901778765 -24.33962059579834" fill="#d0ff1d" stroke="none" /><path d="M 99.27912038922189 120.98762331915562 l -0.5029709257665023 14.64344971427362 a35.65208515149385,35.65208515149385 0 0,0 -0.6114744120206395,-0.0262593422646316 l 0.7542710983879805 -14.63265780358316" fill="#ffb710" stroke="none" /><path d="M 98.55909050195518 120.95050786540614 l -0.7607992129393886 11.06185358366321 a32.08798539631126,32.08798539631126 0 0,0 -0.5492103260301762,-0.04251235268359465 l 0.950578533744801 -11.047163463984562" fill="#ff870c" stroke="none" /><path d="M 98.19965949673042 120.92268563240118 l -1.1355411188074274 13.196709071603495 a34.245474093177805,34.245474093177805 0 0,0 -0.5852721716251744,-0.05542588315808689 l 1.3619128538176168 -13.175271432940225" fill="#ffa40f" stroke="none" /><path d="M 97.84075906011543 120.88869738790638 l -1.5239273450390824 14.742614667809477 a35.82116870548571,35.82116870548571 0 0,0 -0.6111161290417382,-0.06847683692539139 l 1.77677937568162 -14.714282070377115" fill="#ffb911" stroke="none" /><path d="M 97.12497278360702 120.80226474461374 l -3.2086167964289043 23.2159527682903 a44.43663125719675,44.43663125719675 0 0,0 -0.7547347981338524,-0.11092002460550415 l 3.6066767001704414 -23.157451670385914" fill="#daff1b" stroke="none" /><path d="M 96.76829788921471 120.74984581791261 l -0.39215560237564673 2.517920280699392 a23.548275604488634,23.548275604488634 0 0,0 -0.39888816175349173,-0.06563689522178827 l 0.435321267182202 -2.5108173869819352" fill="#ff1001" stroke="none" /><path d="M 96.41257539226777 120.69131181640829 l -5.055488163486476 29.158712283290406 a50.593723364775556,50.593723364775556 0 0,0 -0.8544683989434394,-0.15571260612746476 l 5.555291295980973 -29.067631503231574" fill="#94ff23" stroke="none" /><path d="M 95.70440661134978 120.55596938700252 l -6.659658596669262 31.868877208612545 a53.55727855890008,53.55727855890008 0 0,0 -0.8983279224782239,-0.1957863895853813 l 7.205748935766622 -31.749859360893446" fill="#74ff27" stroke="none" /><path d="M 95.00130118170881 120.39639698878247 l -3.10276044953597 12.660321453706405 a34.03498606513959,34.03498606513959 0 0,0 -0.5662687607765605,-0.14394330461263938 l 3.3196345035379093 -12.605192917258503" fill="#ffa10e" stroke="none" /><path d="M 94.6519064749342 120.30758222061772 l -5.6362619556996165 21.40180468906463 a43.13153164112542,43.13153164112542 0 0,0 -0.7143785195693864,-0.19470704220880433 l 6.002821876203698 -21.301897152711682" fill="#eaff1a" stroke="none" /><path d="M 94.30408787586889 120.21278271476187 l -1.19389199045888 4.236701490847017 a25.401706215483628,25.401706215483628 0 0,0 -0.4186926797577888,-0.12187533698499758 l 1.2664446825982756 -4.215582459559504" fill="#ff2a04" stroke="none" /><path d="M 93.95794788825049 120.11202640906438 l -7.696199228511943 25.618144178573466 a47.74922043198877,47.74922043198877 0 0,0 -0.7829948251825005,-0.24257379834557305 l 8.134834686566077 -25.482253792421243" fill="#b4ff20" stroke="none" /><path d="M 93.27111125876986 119.89276391827306 l -12.613410060965796 37.28930558915618 a60.364837414722636,60.364837414722636 0 0,0 -0.9787561291025603,-0.3404621886258069 l 13.25167196211338 -37.067284967961776" fill="#2fff30" stroke="none" /><path d="M 92.59220618246901 119.65005319985036 l -5.178509044646956 13.736610484811633 a35.68030733795881,35.68030733795881 0 0,0 -0.5712718576084501,-0.22098022684019117 l 5.413553164748935 -13.645690369833401" fill="#ffb711" stroke="none" /><path d="M 92.25597844496254 119.51999308798841 l -7.621969738370139 19.212342779839048 a41.66902362915732,41.66902362915732 0 0,0 -0.6626278355955806,-0.2694849721303901 l 7.9506520351561605 -19.078670551129367" fill="#fcff18" stroke="none" /><path d="M 91.92203290615298 119.3841803445677 l -5.189054529384373 12.45184186154936 a34.489798095374056,34.489798095374056 0 0,0 -0.5445527291847478,-0.23243717898210653 l 5.402042333739552 -12.360930032907849" fill="#ffa70f" stroke="none" /><path d="M 91.59046798132341 119.24265499422711 l -8.990354918574829 20.57169145555057 a43.45041137494623,43.45041137494623 0 0,0 -0.6809022868525647,-0.3045589321817075 l 9.342170608283029 -20.414328772459008" fill="#e6ff1a" stroke="none" /><path d="M 90.93487009805054 118.94263497670748 l -10.732731273907842 22.42728047184495 a45.86311384281376,45.86311384281376 0 0,0 -0.7072523502343877,-0.3459525653668739 l 11.1161438734043 -22.239734156380855" fill="#caff1d" stroke="none" /><path d="M 90.6110303473126 118.78422872680471 l -6.85543928270212 13.715470842121608 a36.33333584644592,36.33333584644592 0 0,0 -0.5555069087919944,-0.28364578577262417 l 7.089873413207697 -13.595767104676147" fill="#ffbf11" stroke="none" /><path d="M 90.28995756902619 118.62028667847754 l -4.935282445869437 9.464054831337181 a31.67358171707434,31.67358171707434 0 0,0 -0.4799470450700633,-0.2555447683749888 l 5.097018306726063 -9.377939595239619" fill="#ff820b" stroke="none" /><path d="M 89.97174638481275 118.45085714620012 l -11.713916727667234 21.552287412970095 a45.52991923822807,45.52991923822807 0 0,0 -0.6835034120302225,-0.3791278208453882 l 12.082164327853558 -21.34802667669156" fill="#ceff1d" stroke="none" /><line stroke="#e1ed5e" stroke-width="0.3" x1="58.13341422392154" x2="55.67067388415222" y1="173.97424548756322" y2="178.32567169271397" /><path d="M 57.64086615596768 174.84453072859336 a86.0,86.0 0 0,1 -31.369924170532247,-30.572349798747897" fill="none" id="id92" stroke="none" /><text fill="#e1ed5e" style="font-size:6.75px; font-family:Arial;" text-anchor="middle"><textPath startOffset="22.145653131862474" xlink:href="#id92">August</textPath></text><path d="M 89.34428304082925 118.09573695890944 l -14.26484208041589 24.22482044490011 a49.11276658685257,49.11276658685257 0 0,0 -0.7228165422303341,-0.43403056540319856 l 14.678591379203652 -23.976375878960994" fill="#a5ff21" stroke="none" /><path d="M 88.72937992617639 117.7192867562869 l -15.923977772895908 25.035137961398505 a50.670375812549786,50.670375812549786 0 0,0 -0.7299293667730099,-0.4731313967858468 l 16.351392771925926 -24.758092722908764" fill="#93ff23" stroke="none" /><path d="M 87.83215693770417 117.11559508785305 l -10.30648586765321 14.497363089440494 a38.78755709722971,38.78755709722971 0 0,0 -0.5393668206474093,-0.3904599833655973 l 10.553833698674573 -14.318302334701832" fill="#ffdf14" stroke="none" /><path d="M 87.2517909369889 116.68781488649013 l -14.015229980398102 18.346385939267552 a44.087151154614205,44.087151154614205 0 0,0 -0.5974649899031769,-0.46459238988339324 l 14.328104914936509 -18.103092497763367" fill="#dfff1b" stroke="none" /><path d="M 86.68645165197938 116.24036423190432 l -21.1520853216042 25.802104811392503 a54.364042413210484,54.364042413210484 0 0,0 -0.7166362970803857,-0.5978434870775853 l 21.591895952846482 -25.435199140403046" fill="#6cff28" stroke="none" /><path d="M 86.13680546590413 115.77377054828092 l -10.719674455883824 12.19702174729725 a37.238188320874045,37.238188320874045 0 0,0 -0.4765335018836357,-0.42611919583573615 l 10.927472984590832 -12.011207021578132" fill="#ffcb12" stroke="none" /><path d="M 85.86807049272751 115.53346607816431 l -15.9199123834773 17.49877246761193 a44.65693657621052,44.65693657621052 0 0,0 -0.5626140915421751,-0.5207472037907577 l 16.217956246333443 -17.222907517688792" fill="#d8ff1c" stroke="none" /><path d="M 85.60350026404147 115.28858382429668 l -10.25751481277808 10.893125267972039 a35.9625127648431,35.9625127648431 0 0,0 -0.44581102619564295,-0.42707687844202463 l 10.442998324839039 -10.71543625922443" fill="#ffbb11" stroke="none" /><path d="M 85.34317274990678 115.03919595460226 l -17.545975518465795 18.003716598023153 a46.139512092253014,46.139512092253014 0 0,0 -0.5624803760418129,-0.5576728803481097 l 17.85244781463757 -17.699863707446383" fill="#c6ff1e" stroke="none" /><path d="M 84.83555147118756 114.52719865689866 l -27.80735043285869 26.638812686963593 a59.50811705948421,59.50811705948421 0 0,0 -0.7003373322186518,-0.7437339773754574 l 28.260543598813594 -26.157537249643646" fill="#37ff2e" stroke="none" /><path d="M 84.3458050057657 113.99807769240083 l -17.43074882371183 15.586683081494165 a44.38323532016619,44.38323532016619 0 0,0 -0.5029866167581795,-0.5723064378910883 l 17.6957465044286 -15.285164365791776" fill="#dbff1b" stroke="none" /><path d="M 83.64595745247003 113.17365903436017 l -8.376854495648612 6.747801015277978 a31.756603078251743,31.756603078251743 0 0,0 -0.33833419797125874,-0.42747420663044905 l 8.491455124261432 -6.603006864732849" fill="#ff830c" stroke="none" /><path d="M 83.4222238831116 112.89097897827486 l -21.12972017777839 16.43059821221042 a47.7662031749426,47.7662031749426 0 0,0 -0.49778757686329433,-0.6516199173099333 l 21.40865973199598 -16.065457381659616" fill="#b4ff20" stroke="none" /><path d="M 82.576782715395 111.72311816256416 l -18.478000356659145 12.432823286915053 a43.27131769932692,43.27131769932692 0 0,0 -0.4093787296453936,-0.6198515740352698 l 18.688703525225264 -12.11379183454072" fill="#e8ff1a" stroke="none" /><path d="M 82.37810715431573 111.42229804090323 l -16.63219937631855 10.780790691197632 a40.820582837571266,40.820582837571266 0 0,0 -0.3760981236471366,-0.5912887186112226 l 16.814815191591574 -10.493688297907738" fill="#fff817" stroke="none" /><path d="M 82.18462484594161 111.11811171558189 l -12.43215974149781 7.758587157253608 a35.654496597113784,35.654496597113784 0 0,0 -0.3195865938472655,-0.5220206831845605 l 12.56351429980048 -7.54402935794449" fill="#ffb710" stroke="none" /><line stroke="#e1ed5e" stroke-width="0.3" x1="26.387840678322732" x2="22.057713659400548" y1="142.50000000000003" y2="145.00000000000006" /><path d="M 25.521815274538298 143.00000000000003 a86.0,86.0 0 0,1 -11.493303480769221,-40.785679425670985" fill="none" id="id93" stroke="none" /><text fill="#e1ed5e" style="font-size:6.75px; font-family:Arial;" text-anchor="middle"><textPath startOffset="21.40746469413373" xlink:href="#id93">September</textPath></text><path d="M 81.81346652052679 110.50000000000001 l -33.22434718503965 19.18208579093225 a59.36417158186446,59.36417158186446 0 0,0 -0.501956961242152,-0.8869098539278141 l 33.54873751130317 -18.608919166905313" fill="#39ff2e" stroke="none" /><path d="M 81.4637452351635 109.86951160357371 l -14.26604959723699 7.5958678720895625 a37.16222075833232,37.16222075833232 0 0,0 -0.2949829685421733,-0.5656687371419408 l 14.394340634754112 -7.34985289184312" fill="#ffca12" stroke="none" /><path d="M 81.29705330413844 109.54985784667822 l -25.440382983789014 12.990040821428169 a49.56491286358549,49.56491286358549 0 0,0 -0.38042271223835256,-0.7611002595488451 l 25.659625609239104 -12.551408705715572" fill="#a0ff22" stroke="none" /><path d="M 80.9802524753101 108.90220220490708 l -24.679651836472928 11.55132320814392 a48.24918866000465,48.24918866000465 0 0,0 -0.3446727551019027,-0.7531721734262674 l 24.874309056429887 -11.125962052502965" fill="#aeff20" stroke="none" /><path d="M 80.68587082218212 108.24405325689762 l -31.601295374914677 13.488713866372875 a55.35967507328152,55.35967507328152 0 0,0 -0.3655693422629471,-0.8772333405848545 l 31.82819056171411 -12.944248016346739" fill="#61ff29" stroke="none" /><path d="M 80.28708602549918 107.23885506374661 l -16.525099286297312 6.068245354403919 a38.604048060126075,38.604048060126075 0 0,0 -0.22309431943773064,-0.6240345170763668 l 16.626833775778984 -5.78367588094663" fill="#ffdc14" stroke="none" /><path d="M 80.16572619554312 106.89939002012753 l -28.33547930254093 9.856550587274414 a51.00084960104005,51.00084960104005 0 0,0 -0.28054007814834475,-0.8293668923404904 l 28.50050480226164 -9.368682020459763" fill="#90ff24" stroke="none" /><path d="M 79.83685265289637 105.86919833188381 l -30.486750068161193 8.874248626185498 a52.75207423772314,52.75207423772314 0 0,0 -0.24562749357897765,-0.8716453218176595 l 30.634596053814747 -8.349595380464843" fill="#7dff26" stroke="none" /><path d="M 79.56144815229197 104.8234425847677 l -21.531046724390126 5.081268400955355 a43.1225057715083,43.1225057715083 0 0,0 -0.1638432182372955,-0.7219234506561191 l 21.615100804185087 -4.710910616360209" fill="#eaff1a" stroke="none" /><path d="M 79.2786578344484 103.40968896794605 l -30.73123093000758 5.056812354927869 a52.14450040804003,52.14450040804003 0 0,0 -0.1377570988492172,-0.884499394886866 l 30.813509520995066 -4.528524778109553" fill="#83ff25" stroke="none" /><path d="M 79.06263194458094 101.62068470465958 l -21.9983213684439 1.7028092010254028 a43.064127043788346,43.064127043788346 0 0,0 -0.05072551994988935,-0.7375379273500599 l 22.024310849558855 -1.3249278495209995" fill="#ebff1a" stroke="none" /><path d="M 79.03789590574601 101.26102812881392 l -37.88704431328956 2.2791905040569747 a58.955537621682424,58.955537621682424 0 0,0 -0.05210100338055512,-1.0107455466878572 l 37.92058690612669 -1.6284731639923866" fill="#3dff2e" stroke="none" /><path d="M 79.00696218219943 100.54070618675478 l -16.097924880012492 0.41462544163835624 a37.10326363503309,37.10326363503309 0 0,0 -0.010934099281815695,-0.6368564668981421 l 16.102670410892973 -0.13822205877116175" fill="#ffc912" stroke="none" /><line stroke="#e1ed5e" stroke-width="0.3" x1="15.003131293944662" x2="10.003315487706104" y1="100.72959589197737" y2="100.7725132973878" /><path d="M 14.003168132696942 100.73817937305945 a86.0,86.0 0 0,1 10.791469493833604,-42.45332614584628" fill="none" id="id94" stroke="none" /><text fill="#e1ed5e" style="font-size:6.75px; font-family:Arial;" text-anchor="middle"><textPath startOffset="22.145653131862435" xlink:href="#id94">October</textPath></text><path d="M 79.00077361379809 100.18025310272382 l -19.26133366440729 0.16533538387345162 a40.26204325404733,40.26204325404733 0 0,0 0.0,-0.6911769731945313 l 19.26133366440729 0.16533538387344454" fill="#fff116" stroke="none" /><path d="M 79.00077361379809 99.81974689727619 l -19.721585914983493 -0.1692860958985547 a40.72231246036681,40.72231246036681 0 0,0 0.012000610291498794,-0.6989753864386239 l 19.71577387309333 0.507808398306231" fill="#fff717" stroke="none" /><path d="M 79.01933749520258 99.09900007780938 l -28.5779313839088 -1.2272593368957296 a49.60427114371903,49.60427114371903 0 0,0 0.04383697279013042,-0.8504255609870705 l 28.5526528216621 1.7176566912595121" fill="#9fff22" stroke="none" /><path d="M 79.03789590574601 98.7389718711861 l -21.406866420363688 -1.287783925910385 a42.44556638046959,42.44556638046959 0 0,0 0.04999691325515049,-0.7269441459157141 l 21.381605545943476 1.655071495980424" fill="#f2ff19" stroke="none" /><path d="M 79.06263194458094 98.37931529534042 l -40.956030654339656 -3.170255796686805 a62.07854633230874,62.07854633230874 0 0,0 0.09136299882485564,-1.0617765358132827 l 40.89557403281705 3.8728533798757683" fill="#32ff45" stroke="none" /><path d="M 79.13060592940154 97.66154086499901 l -21.03869376099912 -2.357429518435747 a42.17035921054472,42.17035921054472 0 0,0 0.08678642603619634,-0.7187161051363792 l 20.995125248703257 2.7182393004955627" fill="#f6ff19" stroke="none" /><path d="M 79.17382384314186 97.30363454192245 l -27.380815231676333 -3.544994714758707 a48.609346791962786,48.609346791962786 0 0,0 0.11424465765966088,-0.826617431912737 l 27.315926057461464 4.014500454871511" fill="#aaff21" stroke="none" /><path d="M 79.2786578344484 96.59031103205396 l -36.01403341637423 -5.926095493717375 a57.49834531477252,57.49834531477252 0 0,0 0.16862124238594284,-0.9725625167307046 l 35.906997356496056 6.543451043368672" fill="#4bff2c" stroke="none" /><path d="M 79.407916724674 95.88100663000787 l -29.65993385742854 -5.932817446379485 a51.247479221897166,51.247479221897166 0 0,0 0.1799574491573045,-0.861161539547635 l 29.55371869744687 6.44109543721253" fill="#8dff24" stroke="none" /><path d="M 79.56144815229197 95.17655741523228 l -20.178458157326396 -4.76206118203605 a41.73276152152498,41.73276152152498 0 0,0 0.17053292816511967,-0.6958325414181162 l 20.093737702644976 5.1077495480622845" fill="#fbff18" stroke="none" /><path d="M 79.73907114497095 94.47779374421319 l -32.41213524781982 -8.834071592156636 a54.59445389075871,54.59445389075871 0 0,0 0.2542060964668137,-0.9020877570921707 l 32.25571065927842 9.38916727315182" fill="#69ff28" stroke="none" /><path d="M 79.83685265289637 94.1308016681162 l -14.008236369420988 -4.077593448914106 a35.58963517419802,35.58963517419802 0 0,0 0.17578513952362293,-0.5851315584559756 l 13.936174909893737 4.317462610960805" fill="#ffb610" stroke="none" /><path d="M 79.94057633289273 93.78553927170692 l -28.81197791350526 -8.926024407247914 a51.16295713299842,51.16295713299842 0 0,0 0.2671078736643947,-0.8367116098757882 l 28.65450532406361 9.419305050815094" fill="#8eff24" stroke="none" /><path d="M 80.05021161711548 93.44210830539832 l -13.972191907094897 -4.592937002857073 a35.70772643887905,35.70772643887905 0 0,0 0.19641728410459192,-0.580672799391043 l 13.89128920141794 4.832111476722277" fill="#ffb711" stroke="none" /><path d="M 80.28708602549916 92.7611449362534 l -27.783792327780297 -10.20259338838459 a50.59783823122784,50.59783823122784 0 0,0 0.3064044042063349,-0.8127740851904063 l 27.60455723975953 10.67803575376914" fill="#94ff23" stroke="none" /><path d="M 80.41425534168474 92.42381321644754 l -25.847796667389776 -9.998483024861125 a48.71422478362262,48.71422478362262 0 0,0 0.30838731384440526,-0.7773374843914673 l 25.672350678579242 10.440721526466174" fill="#a9ff21" stroke="none" /><path d="M 80.68587082218212 91.75594674310238 l -23.85459974181085 -10.182110147597305 a46.93679424870788,46.93679424870788 0 0,0 0.3226706083930392,-0.7383334982606743 l 23.676295251400834 10.590105715633847" fill="#bdff1f" stroke="none" /><path d="M 80.83023694016515 91.42560881287825 l -40.18138144652232 -17.9726208344907 a65.01770683044833,65.01770683044833 0 0,0 0.4644602897174947,-1.014929554769399 l 39.86693669194978 18.65973937147477" fill="#35ff67" stroke="none" /><path d="M 80.9802524753101 91.09779779509293 l -40.42217050539217 -18.919616831564575 a65.63074914697509,65.63074914697509 0 0,0 0.4863574229952189,-1.0162999572713687 l 40.09143382443704 19.61072929090103" fill="#36ff6f" stroke="none" /><path d="M 81.29705330413844 90.45014215332179 l -15.09826213267707 -7.709280224321824 a37.952596290956436,37.952596290956436 0 0,0 0.30125674110257433,-0.5776995232544264 l 14.963697322599556 7.967325990680736" fill="#ffd413" stroke="none" /><path d="M 81.63589988554816 89.8137432299009 l -16.02502598538187 -8.88881178044496 a39.32518574804472,39.32518574804472 0 0,0 0.33251623348523424,-0.5875243234782944 l 15.870076386875265 9.16259287402236" fill="#ffe515" stroke="none" /><line stroke="#e1ed5e" stroke-width="0.3" x1="26.387840678322718" x2="22.05771365940052" y1="57.49999999999999" y2="54.99999999999999" /><path d="M 25.521815274538284 56.99999999999999 a86.0,86.0 0 0,1 29.574782752854787,-30.34633250058573" fill="none" id="id95" stroke="none" /><text fill="#e1ed5e" style="font-size:6.75px; font-family:Arial;" text-anchor="middle"><textPath startOffset="21.40746469413373" xlink:href="#id95">November</textPath></text><path d="M 81.81346652052679 89.5 l -13.989920017923895 -8.077084088289697 a37.15416817657939,37.15416817657939 0 0,0 0.32364162560742327,-0.5496142350989764 l 13.849204682186691 8.316049491682246" fill="#ffca12" stroke="none" /><path d="M 81.99639281039701 89.18935116829357 l -17.2840292545629 -10.37856295686823 a41.160660612248385,41.160660612248385 0 0,0 0.3689407110192497,-0.6026369244790867 l 17.103320579088255 10.67373699747186" fill="#fffc17" stroke="none" /><path d="M 82.18462484594161 88.88188828441811 l -37.09492419465273 -23.149976226194653 a64.72590536833297,64.72590536833297 0 0,0 0.5963484562985365,-0.9375588241471061 l 36.692058046728306 23.78334872502043" fill="#35ff64" stroke="none" /><path d="M 82.576782715395 88.27688183743585 l -24.386729779367464 -16.408480140728965 a50.39304016022474,50.39304016022474 0 0,0 0.48907708465389943,-0.713578082755791 l 24.10146295789825 16.82469295855479" fill="#96ff23" stroke="none" /><path d="M 82.78059297857968 87.97951657250589 l -21.839449394065785 -15.245631814173274 a47.63439203828938,47.63439203828938 0 0,0 0.47381453750013086,-0.6664794844141014 l 21.57451975803568 15.618288525296895" fill="#b5ff1f" stroke="none" /><path d="M 83.2033758604659 87.39550010848427 l -14.839258527484198 -11.135656245329102 a39.55280123484455,39.55280123484455 0 0,0 0.4121929685878031,-0.5395738274534805 l 14.64591358154209 11.388750986023467" fill="#ffe815" stroke="none" /><path d="M 83.42222388311158 87.10902102172516 l -39.274933173899726 -30.540425588333985 a70.75176349568781,70.75176349568781 0 0,0 0.7537878373949665,-0.9523863082426725 l 38.744878905863196 31.21013184049134" fill="#3cffa8" stroke="none" /><path d="M 84.34580500576568 86.00192230759919 l -15.858778957631577 -14.181017933997973 a42.27444804622179,42.27444804622179 0 0,0 0.4883751567454523,-0.5368098479984448 l 15.613006100044258 14.451165357554077" fill="#f4ff19" stroke="none" /><path d="M 85.08716467003674 85.21462403516908 l -7.535957619578193 -7.471548112425272 a31.612006805518185,31.612006805518185 0 0,0 0.3853775791961346,-0.38208377352513007 l 7.406588120252081 7.599811896179076" fill="#ff810b" stroke="none" /><path d="M 85.34317274990677 84.96080404539775 l -43.97048175027968 -45.11758786380673 a84.0,84.0 0 0,0 1.0413100565387983,-0.997551478777726 l 43.189499207875585 45.86575147289003" fill="#4dd2ff" stroke="none" /><path d="M 85.86807049272753 84.46653392183569 l -2.2361086655230507 -2.457875131992183 a24.322850000901767,24.322850000901767 0 0,0 0.3112571639319523,-0.27832807529486764 l 2.1935864747677067 2.4958987371704513" fill="#ff1b02" stroke="none" /><path d="M 86.68645165197937 83.75963576809568 l -14.052057684171615 -17.14122554207014 a43.16488074056353,43.16488074056353 0 0,0 0.5770717626486148,-0.4648481632229951 l 13.755735151167755 17.37992199908653" fill="#eaff1a" stroke="none" /><path d="M 86.96720088162412 83.53348406188908 l -12.2684219901625 -15.500750406844022 a40.76834442496331,40.76834442496331 0 0,0 0.5524888284299868,-0.4296186546859621 l 12.00052321709727 15.709070113150789" fill="#fff717" stroke="none" /><path d="M 87.25179093698888 83.31218511350988 l -0.9039375830570413 -1.1832833130079041 a22.489047532117752,22.489047532117752 0 0,0 0.30879283991096074,-0.2317239038526552 l 0.8834917542353283 1.19862624412456" fill="#ff0000" stroke="none" /><path d="M 88.12776184653039 82.6780497279521 l -9.836439933390256 -14.351659828385232 a38.3990140638164,38.3990140638164 0 0,0 0.5469184590430188,-0.36799114743946126 l 9.588625186250248 14.518400649881803" fill="#ffda14" stroke="none" /><path d="M 89.03521579738668 82.08984904055464 l -6.820295770764464 -11.140440576417792 a34.06238303822865,34.06238303822865 0 0,0 0.5013127062242922,-0.30102387620370835 l 6.628050307982737 11.255878453157424" fill="#ffa20e" stroke="none" /><line stroke="#e1ed5e" stroke-width="0.3" x1="56.869717070023135" x2="54.33264160355391" y1="26.7553504044142" y2="22.446841604673864" /><path d="M 56.362301976729285 25.89364864446614 a86.0,86.0 0 0,1 42.16139366436587,-11.88097634709845" fill="none" id="id96" stroke="none" /><text fill="#e1ed5e" style="font-size:6.75px; font-family:Arial;" text-anchor="middle"><textPath startOffset="22.145653131862474" xlink:href="#id96">December</textPath></text><path d="M 89.34428304082924 81.90426304109057 l -31.811504794006076 -54.022889799450766 a83.69325689053547,83.69325689053547 0 0,0 1.2442697709771273,-0.7183794872181546 l 30.87944255516855 54.56101618394509" fill="#4dd5ff" stroke="none" /><path d="M 89.65649057296885 81.72400993836675 l -1.698618637128535 -3.001296373311908 a24.44863526555877,24.44863526555877 0 0,0 0.36702735043424145,-0.20358388431079208 l 1.6468470985381911 3.030013173055846" fill="#ff1d02" stroke="none" /><path d="M 91.5904679813234 80.7573450057729 l -13.390558091767586 -30.640217430385505 a54.43845047531811,54.43845047531811 0 0,0 0.8595181304612884,-0.36687717978659934 l 12.862604886135868 30.86556925983151" fill="#6bff28" stroke="none" /><path d="M 92.25597844496254 80.48000691201159 l -5.414595166978745 -13.648316896138747 a35.68313300762804,35.68313300762804 0 0,0 0.571317098966535,-0.22099772716939425 l 5.179505805518681 13.73925451144618" fill="#ffb711" stroke="none" /><path d="M 92.93061703081487 80.22567764915836 l -8.378229240617452 -23.43539831628525 a45.88800151581647,45.88800151581647 0 0,0 0.7440285546916953,-0.2588117536108768 l 7.974694913880754 23.575768502464715" fill="#c9ff1d" stroke="none" /><path d="M 93.27111125876988 80.10723608172694 l -10.528525869519726 -31.125715936788964 a53.858180862044456,53.858180862044456 0 0,0 0.878342968424035,-0.2887287798291364 l 9.99266016344793 31.30186563802013" fill="#71ff27" stroke="none" /><path d="M 93.95794788825049 79.88797359093562 l -7.1709697099345515 -23.869825932872345 a45.92371153432859,45.92371153432859 0 0,0 0.7569539496134455,-0.22033826276741295 l 6.760155747939481 23.989407889942278" fill="#c9ff1d" stroke="none" /><path d="M 95.35216902796891 79.52079915486377 l -4.860471468632651 -21.416134107967395 a42.960760074001,42.960760074001 0 0,0 0.7205902051748561,-0.15704928134992427 l 4.492118846838677 21.49641484745103" fill="#ecff1a" stroke="none" /><path d="M 96.05791012581881 79.37332000966035 l -3.7363242746432235 -19.55002742529088 a40.9038612187413,40.9038612187413 0 0,0 0.690818039901725,-0.12589005922978208 l 3.40017150119046 19.611285658452022" fill="#fff917" stroke="none" /><path d="M 96.41257539226777 79.30868818359171 l -5.662822000956807 -32.66165246513255 a54.14892298050752,54.14892298050752 0 0,0 0.9172376233149038,-0.15093110186661737 l 5.101306874588831 32.75404956549484" fill="#6eff28" stroke="none" /></svg>